<svg width="20" height="21" viewBox="0 0 20 21" fill="none" xmlns="http://www.w3.org/2000/svg">
<path d="M10 10.9583C9.7778 10.9583 9.56947 10.9239 9.37502 10.855C9.18058 10.7861 9.00002 10.6678 8.83335 10.5L1.16669 2.83334C0.861132 2.52779 0.701132 2.14557 0.686688 1.68668C0.672244 1.22779 0.832243 0.832232 1.16669 0.50001C1.47224 0.194454 1.86113 0.0416764 2.33335 0.0416764C2.80558 0.0416764 3.19447 0.194454 3.50002 0.50001L10 6.95834L16.5 0.50001C16.8056 0.194454 17.1878 0.0350096 17.6467 0.0216762C18.1056 0.00834291 18.5011 0.167788 18.8334 0.50001C19.1389 0.805565 19.2917 1.19445 19.2917 1.66668C19.2917 2.1389 19.1389 2.52779 18.8334 2.83334L11.1667 10.5C11 10.6667 10.8195 10.785 10.625 10.855C10.4306 10.925 10.2222 10.9595 10 10.9583ZM10 20.9583C9.7778 20.9583 9.56947 20.9239 9.37502 20.855C9.18058 20.7861 9.00002 20.6678 8.83335 20.5L1.16669 12.8333C0.861132 12.5278 0.701132 12.1461 0.686688 11.6883C0.672244 11.2306 0.832243 10.8345 1.16669 10.5C1.47224 10.1945 1.86113 10.0417 2.33335 10.0417C2.80558 10.0417 3.19447 10.1945 3.50002 10.5L10 16.9583L16.5 10.5C16.8056 10.1945 17.1878 10.0345 17.6467 10.02C18.1056 10.0056 18.5011 10.1656 18.8334 10.5C19.1389 10.8056 19.2917 11.1945 19.2917 11.6667C19.2917 12.1389 19.1389 12.5278 18.8334 12.8333L11.1667 20.5C11 20.6667 10.8195 20.785 10.625 20.855C10.4306 20.925 10.2222 20.9595 10 20.9583Z" fill="#FEB916"/>
</svg>
