<svg width="180" height="234" viewBox="0 0 180 234" fill="none" xmlns="http://www.w3.org/2000/svg">
<path d="M101.713 230.722L176.154 187.462C181.291 184.476 181.279 177.052 176.136 174.084L109.889 135.836C109.071 135.364 108.061 135.364 107.243 135.836L25.1982 183.521C23.4482 184.542 23.4482 187.068 25.2042 188.084L99.0727 230.728C99.8909 231.199 100.9 231.199 101.718 230.728L101.713 230.722Z" fill="#B8BCC9"/>
<path d="M112.893 219.123C112.881 222.73 111.609 225.269 109.555 226.457L102.806 230.381L98.9653 232.615C101.02 231.421 102.298 228.882 102.304 225.275L103.809 224.397L112.893 219.123Z" fill="#E4E8ED"/>
<path d="M41.342 2.33733L32.2518 7.62304L30.7526 8.49503C27.5753 6.65549 24.6905 6.48825 22.6121 7.70068L26.4584 5.46695L33.1954 1.54298C35.2798 0.336526 38.1586 0.503757 41.336 2.33733H41.342Z" fill="#B8BCC9"/>
<path d="M113.353 57.0878L113.222 102.473L113.126 136.332L112.893 219.123L103.809 224.397L102.304 225.275L102.572 130.329L102.584 126.154L102.668 97.1516V96.3812L102.764 63.8965V63.2455L104.245 62.3854L113.353 57.0878Z" fill="#E4E8ED"/>
<path d="M101.945 37.3305L92.8371 42.6281L91.3559 43.4881L30.7524 8.49498L32.2516 7.62299L41.3418 2.33728L101.945 37.3305Z" fill="#E4E8ED"/>
<path d="M113.353 57.0876L104.245 62.3793L102.764 63.2394C102.782 55.9708 97.681 47.1254 91.3621 43.4822L92.8373 42.6281L101.945 37.3304C108.264 40.9797 113.377 49.819 113.353 57.0876Z" fill="#E4E8ED"/>
<path d="M102.764 63.2455V63.8965L102.668 97.1517L102.59 126.16L102.31 225.275C102.31 225.442 102.31 225.609 102.298 225.771C102.298 225.92 102.28 226.063 102.274 226.213C102.262 226.362 102.256 226.505 102.238 226.655C102.22 226.81 102.202 226.959 102.184 227.102C102.166 227.21 102.148 227.329 102.136 227.437C102.124 227.485 102.119 227.538 102.113 227.58C102.095 227.688 102.065 227.801 102.047 227.909C102.005 228.106 101.963 228.297 101.909 228.482C101.88 228.608 101.838 228.727 101.802 228.846C101.79 228.864 101.784 228.888 101.784 228.906C101.736 229.038 101.694 229.163 101.647 229.288C101.569 229.497 101.479 229.701 101.39 229.892C101.336 229.999 101.282 230.107 101.229 230.214C101.193 230.274 101.163 230.328 101.127 230.387C101.002 230.614 100.864 230.829 100.715 231.026C100.667 231.092 100.619 231.158 100.566 231.218C100.422 231.409 100.261 231.588 100.088 231.755C100.04 231.803 99.9923 231.851 99.9445 231.892C99.8669 231.97 99.7892 232.036 99.7056 232.101C99.7056 232.101 99.7056 232.113 99.6937 232.113C99.5862 232.203 99.4667 232.293 99.3532 232.376C99.3532 232.376 99.3532 232.376 99.3413 232.376C99.2636 232.436 99.1741 232.49 99.0845 232.549L98.971 232.621C96.8925 233.834 94.0078 233.66 90.8304 231.827L30.2269 196.834C23.908 193.19 18.7955 184.345 18.8253 177.076V174.902L18.9089 145.888L18.9507 132.133L19.0045 112.639L19.0463 98.179L19.2792 15.0411C19.2912 11.4277 20.5693 8.88935 22.6179 7.70082C22.6776 7.66498 22.7373 7.62914 22.7971 7.59331C22.8449 7.56942 22.8986 7.54553 22.9524 7.51567C23.0599 7.46191 23.1793 7.40816 23.2988 7.36038C23.6153 7.22898 23.9378 7.12745 24.2783 7.06175C24.3738 7.03786 24.4694 7.01994 24.5649 7.008C24.7143 6.98411 24.8636 6.96022 25.0189 6.95425C25.1025 6.9423 25.1921 6.93633 25.2757 6.93633C26.9062 6.85869 28.7756 7.35441 30.7585 8.50114L91.362 43.4943C97.6809 47.1376 102.787 55.9829 102.764 63.2515V63.2455Z" fill="white"/>
<g style="mix-blend-mode:screen" opacity="0.3">
<path d="M104.263 63.2452V63.9022L104.167 97.1574L104.09 126.166L103.809 224.403V225.287C103.809 227.24 103.451 228.96 102.805 230.387L98.9651 232.621C101.02 231.426 102.298 228.888 102.304 225.281L102.758 63.2512C102.776 55.9826 97.6751 47.1373 91.3561 43.494L30.7526 8.49488C27.5753 6.65533 24.6905 6.4881 22.6121 7.70053L26.4584 5.4668C28.0829 5.61014 29.7731 6.19545 31.5052 7.19286L32.2518 7.62289L92.1087 42.186C92.3535 42.3234 92.5924 42.4787 92.8373 42.634C99.0786 46.6416 103.91 55.0031 104.245 62.3852C104.263 62.6779 104.263 62.9586 104.263 63.2452Z" fill="#E6E6E6"/>
</g>
<path d="M60.8962 34.0575C61.5353 34.4278 62.0489 35.3177 62.0489 36.0524C62.0489 36.781 61.5293 37.0796 60.8903 36.7153C60.2512 36.345 59.7375 35.4551 59.7375 34.7205C59.7375 33.9859 60.2572 33.6932 60.8962 34.0635V34.0575Z" fill="#39B54A"/>
<path d="M60.9021 31.8954C59.2298 30.9338 57.868 31.7043 57.8621 33.6275C57.8621 35.5506 59.2119 37.8978 60.8842 38.8594C62.5625 39.827 63.9182 39.0505 63.9242 37.1274C63.9242 35.2042 62.5804 32.863 60.9021 31.8954ZM60.8901 36.7093C60.2571 36.339 59.7374 35.4491 59.7434 34.7145C59.7434 33.9798 60.263 33.6872 60.9021 34.0515C61.5412 34.4218 62.0548 35.3057 62.0548 36.0463C62.0548 36.775 61.5352 37.0736 60.8901 36.7093Z" fill="#4D4D4D"/>
<path d="M59.9048 194.63C61.3741 195.478 62.5686 197.544 62.5626 199.234L62.5387 207.047C62.5387 208.743 61.3323 209.424 59.863 208.576L53.0663 204.652C51.591 203.803 50.4025 201.737 50.4085 200.047L50.4324 192.235C50.4324 190.544 51.6328 189.858 53.1081 190.712L59.9048 194.636V194.63Z" fill="#CCCCCC"/>
<path d="M96.1639 63.2752C98.0094 64.3443 99.5025 66.9244 99.4966 69.0447L99.4846 72.891L21.5369 27.8819L21.5488 24.0355C21.5488 21.9153 23.0539 21.0612 24.9054 22.1243L96.1699 63.2692L96.1639 63.2752Z" fill="#5750A1"/>
<path d="M66.97 64.0338C67.2149 64.1772 67.412 64.5176 67.412 64.7983C67.412 65.079 67.2149 65.1925 66.964 65.0551L53.9976 57.5715C53.7528 57.4282 53.5557 57.0818 53.5557 56.807C53.5557 56.5263 53.7528 56.4128 54.0036 56.5502L66.97 64.0338Z" fill="#47C0EA"/>
<path d="M36.0622 56.7833C40.0518 59.0887 43.277 64.667 43.2591 69.2539C43.2471 73.8409 40.004 75.6864 36.0144 73.381C32.0247 71.0756 28.7995 65.4972 28.8175 60.9103C28.8294 56.3234 32.0725 54.4779 36.0622 56.7833Z" fill="white"/>
<path d="M90.705 195.334C90.9678 195.484 91.1769 195.848 91.1769 196.153C91.1769 196.451 90.9619 196.577 90.705 196.421L29.5939 161.142C29.3311 160.992 29.1221 160.622 29.1221 160.323C29.1221 160.025 29.3371 159.899 29.5939 160.055L90.705 195.334Z" fill="#B8BCC9"/>
<path d="M90.7167 190.98C90.9795 191.13 91.1886 191.5 91.1886 191.799C91.1886 192.097 90.9736 192.223 90.7167 192.067L29.6056 156.788C29.3428 156.638 29.1338 156.268 29.1338 155.969C29.1338 155.671 29.3488 155.545 29.6056 155.695L90.7167 190.974V190.98Z" fill="#B8BCC9"/>
<path d="M91.9293 140.972L91.8935 151.86L46.1855 125.468L46.2154 114.58L91.9293 140.972Z" fill="#B8BCC9"/>
<path d="M91.995 116.479L91.9651 127.367L46.2512 100.974L46.2871 90.0861L91.995 116.479Z" fill="#B8BCC9"/>
<path d="M92.0668 91.9794L92.0369 102.867L46.323 76.4746L46.3529 65.5867L92.0668 91.9794Z" fill="#B8BCC9"/>
<path d="M79.4409 77.466L21.4892 44.0078L21.334 99.5047L21.2981 111.295L21.2324 133.459L21.2026 144.55L21.1548 161.291C21.1548 163.417 22.642 165.997 24.4875 167.066L28.3995 169.324L95.752 208.205C97.5975 209.274 99.1026 208.42 99.1085 206.294L99.3295 128.46V128.054L99.4131 99.0449L99.431 94.5117L99.449 89.017L79.4409 77.466ZM46.359 65.5866L53.4603 69.6898L73.2115 81.0914L92.0669 91.9793L92.037 102.867L63.7988 86.5682L50.3785 78.8158L46.3291 76.4746L46.359 65.5866ZM28.8594 60.0381C28.8713 59.9486 28.8773 59.859 28.8952 59.7694C28.943 59.411 29.0087 59.0825 29.1043 58.772C29.1281 58.6883 29.158 58.5988 29.1879 58.5092C29.2356 58.3718 29.2894 58.2344 29.3491 58.103C29.3491 58.0851 29.3611 58.0791 29.3611 58.0672C29.3909 57.9955 29.4268 57.9298 29.4626 57.8641C29.4925 57.7925 29.5343 57.7268 29.5701 57.667C29.7553 57.3445 29.9703 57.0638 30.2092 56.8249C30.257 56.7771 30.3107 56.7293 30.3585 56.6875C30.4421 56.6099 30.5257 56.5502 30.6153 56.4845C30.7049 56.4188 30.7945 56.359 30.89 56.3053C30.9796 56.2515 31.0752 56.1978 31.1767 56.15C31.1767 56.15 31.1946 56.15 31.1946 56.1381C31.2842 56.0903 31.3798 56.0604 31.4754 56.0246C31.5829 55.9828 31.6844 55.9469 31.7979 55.923C31.9054 55.8932 32.0129 55.8693 32.1264 55.8514C32.2339 55.8335 32.3533 55.8155 32.4668 55.8036C32.5803 55.7917 32.6997 55.7857 32.8192 55.7857C33.7987 55.7857 34.8976 56.1022 36.0623 56.7771C40.0519 59.0885 43.2771 64.6669 43.2652 69.2478C43.2532 73.8347 40.0101 75.6862 36.0205 73.3808C32.0308 71.0754 28.8116 65.4971 28.8176 60.9101C28.8176 60.6055 28.8355 60.3129 28.8654 60.0322L28.8594 60.0381ZM35.9966 81.2765C39.9803 83.5819 43.2054 89.1663 43.1935 93.7472C43.1816 98.3341 39.9385 100.186 35.9488 97.8802C31.9591 95.5748 28.7399 89.9905 28.7519 85.4095C28.7638 80.8286 32.0069 78.9711 35.9966 81.2765ZM29.5283 106.511C29.5701 106.445 29.6059 106.379 29.6537 106.319C29.7433 106.194 29.8389 106.075 29.9404 105.961C29.9882 105.907 30.0419 105.854 30.0957 105.8C30.1435 105.758 30.1793 105.716 30.2271 105.68C30.2749 105.633 30.3286 105.591 30.3824 105.549C30.4302 105.501 30.4899 105.465 30.5436 105.43C30.5974 105.388 30.6511 105.352 30.7168 105.322C30.7706 105.286 30.8303 105.25 30.8841 105.22C30.9438 105.185 31.0035 105.155 31.0632 105.131C31.0632 105.131 31.0672 105.131 31.0752 105.131C31.1289 105.101 31.1887 105.077 31.2484 105.053C31.3738 105.005 31.5052 104.958 31.6366 104.922C31.7501 104.892 31.8695 104.868 31.983 104.844C32.1503 104.814 32.3235 104.796 32.4967 104.79C33.5239 104.743 34.6946 105.059 35.9368 105.776C37.8003 106.851 39.4965 108.643 40.7746 110.721C42.2319 113.086 43.1457 115.81 43.1338 118.247C43.1218 122.834 39.8787 124.685 35.8891 122.38C31.8994 120.074 28.6802 114.49 28.6921 109.909C28.6921 109.748 28.6921 109.586 28.7101 109.437C28.7101 109.3 28.728 109.162 28.7399 109.031C28.7399 108.959 28.7519 108.894 28.7638 108.822C28.7997 108.535 28.8474 108.266 28.9131 108.01C28.949 107.872 28.9848 107.747 29.0266 107.615C29.0266 107.604 29.0266 107.592 29.0386 107.58C29.0804 107.454 29.1281 107.329 29.1759 107.209C29.2237 107.09 29.2834 106.976 29.3372 106.857C29.3372 106.857 29.3372 106.845 29.3491 106.839C29.4089 106.732 29.4686 106.624 29.5343 106.517L29.5283 106.511ZM29.2595 138.231C29.2416 138.171 29.2177 138.105 29.2058 138.046C29.158 137.908 29.1162 137.765 29.0804 137.628C29.0326 137.448 28.9788 137.269 28.943 137.084C28.9251 137.024 28.9131 136.959 28.9012 136.899C28.8594 136.726 28.8235 136.552 28.7937 136.385C28.7937 136.355 28.7817 136.331 28.7758 136.302C28.7578 136.182 28.734 136.057 28.722 135.937C28.7101 135.872 28.7041 135.806 28.6981 135.746C28.6862 135.675 28.6802 135.609 28.6742 135.537C28.6563 135.388 28.6444 135.244 28.6384 135.095C28.6384 135.071 28.6384 135.047 28.6384 135.018C28.6205 134.82 28.6205 134.629 28.6205 134.438V134.408C28.6324 129.821 31.8755 127.97 35.8652 130.275C36.0264 130.371 36.1877 130.466 36.343 130.568C36.3728 130.586 36.4027 130.604 36.4266 130.622C36.5938 130.729 36.7491 130.843 36.9044 130.962C36.9223 130.974 36.9462 130.986 36.9582 131.004C37.1134 131.117 37.2628 131.237 37.4061 131.362C37.5733 131.5 37.7346 131.643 37.8958 131.792C38.0631 131.936 38.2184 132.091 38.3796 132.252C38.5349 132.408 38.6902 132.569 38.8395 132.736C39.1381 133.065 39.4368 133.417 39.7115 133.781C39.825 133.925 39.9385 134.074 40.04 134.229C40.1774 134.414 40.3088 134.611 40.4402 134.803C40.5477 134.976 40.6611 135.149 40.7686 135.322C40.8762 135.495 40.9837 135.68 41.0852 135.866C41.3659 136.367 41.6227 136.875 41.8437 137.401C41.9034 137.538 41.9572 137.675 42.0109 137.813C42.1901 138.261 42.3514 138.709 42.4887 139.162C42.5305 139.282 42.5664 139.407 42.5962 139.527C42.6321 139.652 42.6679 139.778 42.6978 139.903C42.7456 140.082 42.7814 140.261 42.8172 140.441C42.8829 140.763 42.9367 141.086 42.9725 141.402C42.9904 141.51 42.9964 141.611 43.0084 141.719C43.0203 141.826 43.0263 141.934 43.0322 142.047C43.0502 142.28 43.0561 142.519 43.0561 142.746C43.0561 143.917 42.8411 144.914 42.4529 145.708C41.336 148.014 38.7798 148.593 35.8055 146.879C35.6382 146.783 35.477 146.676 35.3097 146.574C35.1724 146.485 35.0469 146.395 34.9155 146.3C34.605 146.079 34.3063 145.84 34.0077 145.577C33.9062 145.493 33.8046 145.404 33.7091 145.308C33.6912 145.29 33.6673 145.278 33.6553 145.26C33.5478 145.165 33.4403 145.057 33.3328 144.95C33.1954 144.813 33.0581 144.669 32.9207 144.526C32.7296 144.323 32.5504 144.12 32.3772 143.905C32.2697 143.779 32.1741 143.654 32.0786 143.528C31.989 143.421 31.9054 143.313 31.8277 143.2C31.6187 142.925 31.4216 142.639 31.2305 142.346C31.1409 142.208 31.0573 142.077 30.9677 141.934C30.8841 141.796 30.7945 141.653 30.7168 141.516C30.3525 140.889 30.03 140.244 29.7493 139.581C29.5641 139.139 29.3909 138.697 29.2536 138.243L29.2595 138.231ZM90.7111 196.415L36.0623 164.862L29.6059 161.135C29.3432 160.98 29.1281 160.616 29.1281 160.317C29.1281 160.013 29.3432 159.893 29.6059 160.048L37 164.313L90.7171 195.322C90.9799 195.472 91.1889 195.836 91.1889 196.141C91.1889 196.445 90.9799 196.565 90.7111 196.409V196.415ZM90.729 192.061L39.825 162.67L29.6179 156.776C29.3551 156.626 29.1461 156.262 29.1461 155.957C29.1461 155.653 29.3551 155.533 29.6239 155.683L40.7746 162.121L90.729 190.968C90.9918 191.118 91.2068 191.488 91.2068 191.793C91.2068 192.085 90.9918 192.211 90.729 192.061ZM90.741 187.707L43.5877 160.484L29.6358 152.428C29.373 152.278 29.158 151.908 29.158 151.603C29.158 151.311 29.373 151.185 29.6358 151.335L44.5313 159.935L90.747 186.62C91.0097 186.77 91.2188 187.134 91.2188 187.439C91.2188 187.743 91.0097 187.863 90.741 187.713V187.707ZM91.8399 176.342L68.6485 162.951L57.0737 156.268L53.9381 154.458L46.126 149.949V147.805L46.1559 139.061L63.3449 148.981L71.163 153.497L91.8698 165.454L91.8399 176.342ZM91.9415 140.96L91.9116 151.848L75.1048 142.143L71.1988 139.891L50.1217 127.719L46.1977 125.455L46.2276 114.573L59.5225 122.248L69.0009 127.725L84.5056 136.678L91.9355 140.966L91.9415 140.96ZM92.0131 116.467L91.9892 124.201L91.9773 127.355L71.2824 115.404L60.8484 109.377L53.4543 105.113L46.2634 100.962L46.2753 96.7574L46.2933 90.0741L50.3426 92.4153L52.0448 93.4008L80.6832 109.933L92.0012 116.467H92.0131Z" fill="#706ACC"/>
<path d="M90.7287 186.626C90.9915 186.776 91.2005 187.146 91.2005 187.445C91.2005 187.743 90.9855 187.869 90.7287 187.719L29.6176 152.44C29.3548 152.29 29.1458 151.92 29.1458 151.621C29.1458 151.323 29.3608 151.197 29.6176 151.353L90.7287 186.632V186.626Z" fill="#B8BCC9"/>
<path d="M91.8578 165.466L91.8279 176.354L46.114 149.961L46.1439 139.073L91.8578 165.466Z" fill="#B8BCC9"/>
<path d="M91.6604 78.2903C91.9053 78.4336 92.1024 78.7741 92.1024 79.0548C92.1024 79.3355 91.9053 79.449 91.6545 79.3116L78.6881 71.828C78.4432 71.6906 78.2461 71.3382 78.2461 71.0635C78.2461 70.7828 78.4492 70.6693 78.694 70.8067L91.6604 78.2903Z" fill="#B8BCC9"/>
<path d="M42.2737 49.7773C42.5186 49.9147 42.7157 50.2611 42.7157 50.5418C42.7157 50.8225 42.5126 50.936 42.2677 50.7986L29.3013 43.3091C29.0565 43.1717 28.8594 42.8253 28.8594 42.5446C28.8594 42.2639 29.0565 42.1504 29.3013 42.2878L42.2677 49.7773H42.2737Z" fill="#47C0EA"/>
<path d="M35.9188 105.776C39.9085 108.081 43.1337 113.66 43.1158 118.247C43.1038 122.834 39.8607 124.679 35.8711 122.374C31.8814 120.068 28.6562 114.49 28.6741 109.903C28.6861 105.316 31.9292 103.471 35.9188 105.776Z" fill="white"/>
<path d="M35.9906 81.2766C39.9803 83.582 43.2055 89.1663 43.1875 93.7472C43.1756 98.3342 39.9325 100.186 35.9428 97.8803C31.9532 95.5748 28.728 89.9905 28.7459 85.4036C28.7579 80.8227 32.001 78.9712 35.9906 81.2766Z" fill="white"/>
<path d="M93.3689 69.3613L21.537 27.882L21.4893 44.0078L79.4409 77.4661L99.449 89.017L99.4967 72.8911L93.3749 69.3613H93.3689ZM42.2678 50.7986L29.3014 43.3091C29.0565 43.1717 28.8594 42.8253 28.8594 42.5446C28.8594 42.2639 29.0625 42.1504 29.3014 42.2877L42.2737 49.7773C42.5126 49.9147 42.7157 50.2611 42.7157 50.5418C42.7157 50.8225 42.5126 50.936 42.2678 50.7986ZM66.9643 65.0491L53.9978 57.5655C53.747 57.4222 53.5499 57.0758 53.5499 56.7951C53.5499 56.5144 53.753 56.4009 53.9978 56.5442L66.9643 64.0278C67.2091 64.1712 67.4122 64.5116 67.4122 64.7983C67.4122 65.073 67.2091 65.1925 66.9643 65.0491ZM91.6548 79.3056L83.9323 74.8441L78.6884 71.822C78.4435 71.6846 78.2404 71.3382 78.2404 71.0575C78.2404 70.7768 78.4435 70.6633 78.6884 70.8007L84.8162 74.3364L91.6548 78.2903C91.8997 78.4276 92.1027 78.7741 92.1027 79.0548C92.1027 79.3355 91.8997 79.4489 91.6548 79.3116V79.3056Z" fill="#5D5AB1"/>
<path d="M35.8529 130.269C39.8426 132.575 43.0678 138.153 43.0499 142.74C43.0379 147.327 39.7948 149.172 35.8052 146.867C31.8155 144.562 28.5903 138.983 28.6082 134.396C28.6202 129.809 31.8633 127.964 35.8529 130.269Z" fill="white"/>
<path d="M58.8714 193.788C60.2212 194.564 61.3142 196.457 61.3082 198.01L61.2903 205.177C61.2903 206.73 60.1854 207.357 58.8356 206.581L52.5943 202.979C51.2445 202.197 50.1515 200.31 50.1575 198.751L50.1754 191.584C50.1754 190.031 51.2744 189.404 52.6301 190.186L58.8714 193.788Z" fill="#F2F2F2"/>
<path style="mix-blend-mode:screen" opacity="0.2" d="M102.764 63.2454V63.8964L98.7741 66.2198L93.3749 69.3613L84.8223 74.3424L83.9383 74.8561L79.441 77.478L73.2116 81.1034L63.7989 86.5802L52.0449 93.4188L46.2694 96.7813L32.4848 104.802L31.4874 105.382L29.5224 106.523L21.3042 111.307L18.9988 112.65L19.0406 98.1908L19.2735 15.0529C19.2855 11.4395 20.5636 8.90119 22.6122 7.71266C22.6719 7.67682 22.7316 7.64098 22.7913 7.60515C22.8391 7.58126 22.8929 7.55737 22.9466 7.52751C23.0541 7.47375 23.1736 7.42 23.293 7.37222C23.6096 7.24082 23.9321 7.13929 24.2725 7.07359C24.3681 7.0497 24.4637 7.03178 24.5592 7.01984C24.7085 6.99595 24.8579 6.97206 25.0131 6.96609C25.0968 6.95414 25.1863 6.94817 25.27 6.94817C26.9005 6.87053 28.7699 7.36625 30.7528 8.51298L91.3562 43.5062C97.6752 47.1494 102.782 55.9948 102.758 63.2634L102.764 63.2454Z" fill="url(#paint0_linear_205_268)"/>
<path style="mix-blend-mode:screen" opacity="0.2" d="M102.668 97.1516L102.585 126.154L18.8196 174.896L18.8972 145.882L102.668 97.1516Z" fill="url(#paint1_linear_205_268)"/>
<path d="M108.467 114.759L106.759 113.767C106.449 113.588 106.258 113.206 106.258 112.668L107.966 113.66C107.966 114.197 108.157 114.579 108.467 114.759Z" fill="#999999"/>
<path d="M107.966 113.666L106.257 112.668L106.198 90.952L107.906 91.9435L107.966 113.666Z" fill="#999999"/>
<path d="M109.131 87.8703L110.839 88.8617C110.528 88.6825 110.092 88.7064 109.62 88.9811L107.912 87.9897C108.384 87.715 108.82 87.6911 109.131 87.8703Z" fill="#CCCCCC"/>
<path d="M107.906 91.9434L106.198 90.952C106.198 89.871 106.968 88.5331 107.912 87.9896L109.62 88.9811C108.676 89.5246 107.906 90.8624 107.906 91.9434Z" fill="#ADADAD"/>
<path d="M109.62 88.9751C110.564 88.4316 111.34 88.8736 111.34 89.9546L111.4 111.677C111.4 112.758 110.629 114.096 109.692 114.639C108.748 115.183 107.972 114.741 107.966 113.66L107.906 91.9375C107.906 90.8564 108.676 89.5186 109.62 88.9751Z" fill="#B3B3B3"/>
<g style="mix-blend-mode:multiply" opacity="0.7">
<path d="M68.9889 127.731C68.32 126.895 67.5495 126.19 66.7194 125.712L60.1197 121.902L40.7567 110.721L31.4813 105.37L31.0632 105.125L21.334 99.5047L19.0345 98.1788L18.9927 112.638L18.939 132.133L21.2324 133.459L29.1879 138.052L30.7825 138.971L42.4409 145.702L46.1141 147.823L53.6395 152.171L55.0191 153.831L57.0498 156.28V156.292L69.1741 170.889L71.0913 169.778L68.6246 162.969L67.233 159.135C67.5376 159.069 67.8064 158.95 68.0572 158.776C68.0094 158.806 67.9617 158.848 67.9139 158.878L69.8251 157.767C70.6314 157.295 71.1331 156.298 71.1391 154.882V153.52L71.1629 144.448L71.1749 139.915L71.1928 133.489C71.1928 131.583 70.3089 129.409 68.977 127.743L68.9889 127.731Z" fill="#808080"/>
</g>
<g style="mix-blend-mode:multiply" opacity="0.7">
<path d="M111.376 101.404L107.924 99.4093L106.216 98.4298L104.167 97.2412L102.662 96.3752L99.4251 94.5058L74.6868 80.2254L56.811 69.9108C55.5627 69.1882 54.4339 69.1225 53.6157 69.5943L53.4484 69.6898L51.6985 70.7052H51.7104C50.8982 71.171 50.3905 72.1685 50.3905 73.5899L50.3726 78.8159L50.3308 92.4214V94.3983V94.9896C50.3308 97.8444 52.3316 101.32 54.9535 102.838L53.4484 105.119L50.2949 109.891L60.8424 109.383L65.8952 109.145L74 113.821L91.9773 124.201L98.9831 128.251L99.3355 128.454L102.579 130.329L104.078 131.195L112.302 135.943C112.589 136.111 112.863 136.236 113.132 136.332L113.228 102.473L111.382 101.404H111.376Z" fill="#808080"/>
</g>
<path d="M1.37378 88.3123L3.29097 87.2014C4.10921 86.7236 5.23802 86.7953 6.49226 87.512L4.57507 88.6229C3.3268 87.9002 2.19202 87.8345 1.37378 88.3123Z" fill="#BCAA9B"/>
<path d="M61.9651 153.55L63.8823 152.439L68.3497 164.767L66.4326 165.878L61.9651 153.55Z" fill="#BCAA9B"/>
<path d="M67.0778 152.75L65.1606 153.861C65.9669 153.389 66.4686 152.392 66.4746 150.976L68.3918 149.865C68.3918 151.281 67.8901 152.278 67.0778 152.75Z" fill="#BCAA9B"/>
<path d="M66.5341 129.576L68.4513 128.465L68.3916 149.865L66.4744 150.976L66.5341 129.576Z" fill="#BCAA9B"/>
<path d="M4.56909 88.6287L6.48628 87.5118L63.9721 120.701L62.0549 121.812L4.56909 88.6287Z" fill="#BCAA9B"/>
<path d="M62.0547 121.812L63.9719 120.701C66.4565 122.135 68.4632 125.611 68.4513 128.465L66.5341 129.576C66.5401 126.722 64.5333 123.245 62.0547 121.812Z" fill="#BCAA9B"/>
<path d="M62.0548 121.812C64.5394 123.246 66.5462 126.722 66.5342 129.577L66.4745 150.976C66.4685 153.831 64.4438 154.978 61.9652 153.544L66.4327 165.872L50.8861 147.148L4.47943 120.361C2.00082 118.927 -0.00595925 115.451 1.32971e-05 112.597L0.0597388 91.1969C0.0657114 88.3421 2.09041 87.1953 4.56902 88.6288L62.0548 121.818V121.812Z" fill="#C0D369"/>
<path d="M15.4452 113.092C18.2104 114.693 20.5457 118.246 21.1788 121.579C19.6558 122.29 17.6371 122.099 15.4213 120.821C13.2054 119.543 11.1927 117.404 9.68164 114.938C10.3326 112.352 12.6799 111.498 15.4452 113.092Z" fill="white"/>
<path d="M15.469 103.704C17.4937 104.874 19.1362 107.711 19.1302 110.046C19.1242 112.376 17.4758 113.313 15.4451 112.143C13.4145 110.972 11.778 108.135 11.784 105.806C11.7899 103.477 13.4383 102.533 15.469 103.704Z" fill="white"/>
<path d="M15.4747 101.249C20.1751 103.966 23.9796 110.542 23.9617 115.947C23.9557 118.802 22.8807 120.761 21.1725 121.573C20.5394 118.241 18.2042 114.687 15.4389 113.086C12.6736 111.492 10.3264 112.346 9.67538 114.932C7.97917 112.161 6.92203 108.971 6.928 106.11C6.94592 100.705 10.7684 98.5252 15.4688 101.243L15.4747 101.249ZM15.4449 112.143C17.4696 113.313 19.124 112.376 19.1299 110.046C19.1359 107.717 17.4994 104.874 15.4688 103.703C13.4381 102.533 11.7897 103.47 11.7837 105.806C11.7777 108.135 13.4142 110.972 15.4449 112.143Z" fill="#161618"/>
<path d="M58.9432 132.264C59.1522 132.383 59.3254 132.688 59.3254 132.933C59.3254 133.178 59.1522 133.273 58.9372 133.154L26.1838 114.245C25.9747 114.125 25.8015 113.821 25.8015 113.582C25.8015 113.337 25.9747 113.235 26.1897 113.361L58.9432 132.27V132.264Z" fill="#C4E589"/>
<path d="M58.9134 142.555C59.1224 142.674 59.2956 142.979 59.2956 143.218C59.2956 143.463 59.1224 143.564 58.9074 143.439L26.154 124.53C25.9449 124.41 25.7717 124.106 25.7717 123.861C25.7717 123.616 25.9449 123.52 26.1599 123.64L58.9134 142.549V142.555Z" fill="#C4E589"/>
<path d="M58.9251 139.127C59.1342 139.246 59.3074 139.551 59.3074 139.79C59.3074 140.034 59.1342 140.13 58.9192 140.011L26.1657 121.101C25.9567 120.982 25.7834 120.677 25.7834 120.439C25.7834 120.194 25.9567 120.098 26.1717 120.218L58.9251 139.127Z" fill="#C4E589"/>
<path d="M58.931 135.693C59.14 135.812 59.3132 136.117 59.3132 136.355C59.3132 136.6 59.14 136.696 58.925 136.576L26.1715 117.667C25.9625 117.548 25.7893 117.243 25.7893 117.004C25.7893 116.76 25.9625 116.664 26.1775 116.783L58.931 135.693Z" fill="#C4E589"/>
<path d="M58.949 128.83C59.1581 128.949 59.3313 129.254 59.3313 129.493C59.3313 129.738 59.1581 129.839 58.9431 129.714L26.1896 110.805C25.9806 110.685 25.8074 110.381 25.8074 110.136C25.8074 109.891 25.9806 109.795 26.1956 109.915L58.949 128.824V128.83Z" fill="#C4E589"/>
<path d="M48.9512 65.7001L50.8684 64.5892C51.6866 64.1114 52.8154 64.1831 54.0696 64.8998L52.1525 66.0107C50.9042 65.288 49.7694 65.2223 48.9512 65.7001Z" fill="#9AD2C8"/>
<path d="M114.655 130.138L112.738 131.249C113.544 130.777 114.046 129.78 114.052 128.364L115.969 127.253C115.969 128.669 115.467 129.666 114.655 130.138Z" fill="#9AD2C8"/>
<path d="M114.118 106.964L116.029 105.854L115.969 127.253L114.052 128.364L114.118 106.964Z" fill="#9AD2C8"/>
<path d="M52.1521 66.0107L54.0633 64.8998L111.549 98.0892L109.632 99.2001L52.1521 66.0107Z" fill="#9AD2C8"/>
<path d="M109.632 99.2L111.549 98.0891C114.034 99.5225 116.041 102.999 116.029 105.853L114.111 106.964C114.117 104.109 112.111 100.633 109.632 99.2Z" fill="#9AD2C8"/>
<path d="M109.632 99.2002C112.117 100.634 114.123 104.11 114.111 106.965L114.052 128.364C114.046 131.219 112.021 132.366 109.542 130.932L63.1357 104.139L47.5354 104.886L52.2 97.8265C49.578 96.3095 47.5712 92.8334 47.5772 89.9845L47.6369 68.5849C47.6429 65.73 49.6676 64.5833 52.1462 66.0167L109.632 99.2062V99.2002Z" fill="#60A094"/>
<path d="M107.613 106.851C107.822 106.97 107.996 107.275 107.996 107.514C107.996 107.759 107.822 107.854 107.607 107.735L74.8539 88.8258C74.6449 88.7064 74.4717 88.4018 74.4717 88.1629C74.4717 87.918 74.6449 87.8225 74.8599 87.9419L107.613 106.851Z" fill="#9AD2C8"/>
<path d="M107.607 110.285C107.817 110.405 107.99 110.709 107.99 110.948C107.99 111.193 107.817 111.288 107.602 111.169L74.8481 92.2599C74.639 92.1405 74.4658 91.8359 74.4658 91.597C74.4658 91.3521 74.639 91.2565 74.854 91.376L107.607 110.285Z" fill="#9AD2C8"/>
<path d="M107.59 117.148C107.799 117.267 107.972 117.572 107.972 117.811C107.972 118.055 107.799 118.157 107.584 118.032L74.8302 99.1225C74.6212 99.003 74.448 98.6984 74.448 98.4535C74.448 98.2087 74.6212 98.1131 74.8362 98.2326L107.59 117.142V117.148Z" fill="#9AD2C8"/>
<path d="M107.577 120.576C107.787 120.695 107.96 121 107.96 121.245C107.96 121.49 107.787 121.585 107.571 121.466L74.818 102.557C74.609 102.437 74.4358 102.133 74.4358 101.894C74.4358 101.649 74.609 101.547 74.824 101.673L107.577 120.582V120.576Z" fill="#9AD2C8"/>
<path d="M107.596 113.714C107.805 113.833 107.978 114.138 107.978 114.377C107.978 114.621 107.805 114.717 107.59 114.597L74.8361 95.6884C74.6271 95.5689 74.4539 95.2643 74.4539 95.0254C74.4539 94.7806 74.6271 94.685 74.8421 94.8045L107.596 113.714Z" fill="#9AD2C8"/>
<path d="M67.7347 89.8173C67.8601 89.9248 70.1894 91.9554 70.1297 95.0253C70.0043 94.9357 67.5794 93.2216 67.7347 89.8173Z" fill="white"/>
<path d="M64.1393 79.2696C68.8397 81.9872 72.6442 88.5629 72.6263 93.9681C72.6203 96.8289 71.5452 98.782 69.8371 99.5942C69.204 96.2616 66.8687 92.7079 64.1034 91.1072C61.3381 89.5126 58.9909 90.3666 58.3399 92.9528C56.6437 90.1815 55.5866 86.9922 55.5926 84.1313C55.6105 78.7261 59.4329 76.5462 64.1333 79.2637L64.1393 79.2696ZM64.1094 90.1636C66.1341 91.3342 67.7885 90.3965 67.7945 88.0672C67.8004 85.7379 66.164 82.895 64.1333 81.7244C62.1026 80.5537 60.4542 81.4914 60.4482 83.8267C60.4423 86.156 62.0787 88.993 64.1094 90.1636ZM67.7347 89.8112C67.5795 93.2156 70.0043 94.9297 70.1297 95.0193C70.1895 91.9494 67.8542 89.9187 67.7347 89.8112ZM58.0831 88.0612C58.2085 88.121 60.6394 89.208 60.502 85.6364C60.3766 85.6005 58.0473 84.9376 58.0831 88.0612Z" fill="#161618"/>
<path d="M64.1092 91.1132C66.8745 92.7138 69.2098 96.2675 69.8429 99.6002C68.3199 100.311 66.3011 100.12 64.0853 98.8417C61.8695 97.5635 59.8568 95.4254 58.3457 92.9587C58.9967 90.3726 61.3439 89.5185 64.1092 91.1132Z" fill="white"/>
<path d="M60.5021 85.6362C60.6394 89.2078 58.2086 88.1208 58.0832 88.0611C58.0473 84.9374 60.3826 85.6004 60.5021 85.6362Z" fill="white"/>
<path d="M64.1331 81.7243C66.1578 82.895 67.8002 85.7319 67.7943 88.0672C67.7883 90.3965 66.1399 91.3342 64.1092 90.1636C62.0785 88.9929 60.442 86.156 60.448 83.8267C60.454 81.4974 62.1024 80.5537 64.1331 81.7243Z" fill="white"/>
<defs>
<linearGradient id="paint0_linear_205_268" x1="15.8333" y1="9.59401" x2="62.246" y2="87.4044" gradientUnits="userSpaceOnUse">
<stop stop-opacity="0"/>
<stop offset="0.05" stop-color="#1E1E1E" stop-opacity="0.12"/>
<stop offset="0.16" stop-color="#525252" stop-opacity="0.32"/>
<stop offset="0.26" stop-color="#808080" stop-opacity="0.51"/>
<stop offset="0.37" stop-color="#A7A7A7" stop-opacity="0.66"/>
<stop offset="0.48" stop-color="#C7C7C7" stop-opacity="0.78"/>
<stop offset="0.6" stop-color="#DFDFDF" stop-opacity="0.88"/>
<stop offset="0.72" stop-color="#F1F1F1" stop-opacity="0.95"/>
<stop offset="0.85" stop-color="#FBFBFB" stop-opacity="0.99"/>
<stop offset="1" stop-color="white"/>
</linearGradient>
<linearGradient id="paint1_linear_205_268" x1="53.8247" y1="124.428" x2="67.2988" y2="147.016" gradientUnits="userSpaceOnUse">
<stop stop-opacity="0"/>
<stop offset="0.05" stop-color="#1E1E1E" stop-opacity="0.12"/>
<stop offset="0.16" stop-color="#525252" stop-opacity="0.32"/>
<stop offset="0.26" stop-color="#808080" stop-opacity="0.51"/>
<stop offset="0.37" stop-color="#A7A7A7" stop-opacity="0.66"/>
<stop offset="0.48" stop-color="#C7C7C7" stop-opacity="0.78"/>
<stop offset="0.6" stop-color="#DFDFDF" stop-opacity="0.88"/>
<stop offset="0.72" stop-color="#F1F1F1" stop-opacity="0.95"/>
<stop offset="0.85" stop-color="#FBFBFB" stop-opacity="0.99"/>
<stop offset="1" stop-color="white"/>
</linearGradient>
</defs>
</svg>
