<svg width="32" height="33" viewBox="0 0 32 33" fill="none" xmlns="http://www.w3.org/2000/svg">
<circle cx="16" cy="16.9422" r="16" fill="#FEB916"/>
<g clip-path="url(#clip0_205_164)">
<path d="M13.9999 23.6088C14.3681 23.6088 14.6666 23.3104 14.6666 22.9422C14.6666 22.574 14.3681 22.2755 13.9999 22.2755C13.6317 22.2755 13.3333 22.574 13.3333 22.9422C13.3333 23.3104 13.6317 23.6088 13.9999 23.6088Z" stroke="#13273B" stroke-width="2" stroke-linecap="round" stroke-linejoin="round"/>
<path d="M21.3334 23.6088C21.7016 23.6088 22.0001 23.3104 22.0001 22.9422C22.0001 22.574 21.7016 22.2755 21.3334 22.2755C20.9652 22.2755 20.6667 22.574 20.6667 22.9422C20.6667 23.3104 20.9652 23.6088 21.3334 23.6088Z" stroke="#13273B" stroke-width="2" stroke-linecap="round" stroke-linejoin="round"/>
<path d="M8.66675 9.60889H11.3334L13.1201 18.5356C13.181 18.8425 13.348 19.1182 13.5918 19.3144C13.8355 19.5106 14.1405 19.6149 14.4534 19.6089H20.9334C21.2463 19.6149 21.5513 19.5106 21.7951 19.3144C22.0388 19.1182 22.2058 18.8425 22.2667 18.5356L23.3334 12.9422H12.0001" stroke="#13273B" stroke-width="2" stroke-linecap="round" stroke-linejoin="round"/>
</g>
<defs>
<clipPath id="clip0_205_164">
<rect width="16" height="16" fill="white" transform="translate(8 8.9422)"/>
</clipPath>
</defs>
</svg>
