<svg width="32" height="33" viewBox="0 0 32 33" fill="none" xmlns="http://www.w3.org/2000/svg">
<circle cx="16" cy="16.9422" r="16" fill="#FEB916"/>
<path d="M22.6666 21.6089C22.6666 21.9625 22.5261 22.3016 22.2761 22.5517C22.026 22.8017 21.6869 22.9422 21.3333 22.9422H10.6666C10.313 22.9422 9.97382 22.8017 9.72378 22.5517C9.47373 22.3016 9.33325 21.9625 9.33325 21.6089V12.2755C9.33325 11.9219 9.47373 11.5828 9.72378 11.3327C9.97382 11.0827 10.313 10.9422 10.6666 10.9422H13.9999L15.3333 12.9422H21.3333C21.6869 12.9422 22.026 13.0827 22.2761 13.3327C22.5261 13.5828 22.6666 13.9219 22.6666 14.2755V21.6089Z" stroke="#13273B" stroke-width="2" stroke-linecap="round" stroke-linejoin="round"/>
</svg>
