<svg width="32" height="33" viewBox="0 0 32 33" fill="none" xmlns="http://www.w3.org/2000/svg">
<circle cx="16" cy="16.9422" r="16" fill="#FEB916"/>
<g clip-path="url(#clip0_205_140)">
<path d="M16.0001 20.2755C17.841 20.2755 19.3334 18.7831 19.3334 16.9422C19.3334 15.1012 17.841 13.6089 16.0001 13.6089C14.1591 13.6089 12.6667 15.1012 12.6667 16.9422C12.6667 18.7831 14.1591 20.2755 16.0001 20.2755Z" stroke="#13273B" stroke-width="2" stroke-linecap="round" stroke-linejoin="round"/>
<path d="M16 9.60886V10.9422" stroke="#13273B" stroke-width="2" stroke-linecap="round" stroke-linejoin="round"/>
<path d="M16 22.9422V24.2755" stroke="#13273B" stroke-width="2" stroke-linecap="round" stroke-linejoin="round"/>
<path d="M10.8132 11.7555L11.7599 12.7022" stroke="#13273B" stroke-width="2" stroke-linecap="round" stroke-linejoin="round"/>
<path d="M20.24 21.1822L21.1867 22.1289" stroke="#13273B" stroke-width="2" stroke-linecap="round" stroke-linejoin="round"/>
<path d="M8.66675 16.9422H10.0001" stroke="#13273B" stroke-width="2" stroke-linecap="round" stroke-linejoin="round"/>
<path d="M22 16.9422H23.3333" stroke="#13273B" stroke-width="2" stroke-linecap="round" stroke-linejoin="round"/>
<path d="M10.8132 22.1289L11.7599 21.1822" stroke="#13273B" stroke-width="2" stroke-linecap="round" stroke-linejoin="round"/>
<path d="M20.24 12.7022L21.1867 11.7555" stroke="#13273B" stroke-width="2" stroke-linecap="round" stroke-linejoin="round"/>
</g>
<defs>
<clipPath id="clip0_205_140">
<rect width="16" height="16" fill="white" transform="translate(8 8.9422)"/>
</clipPath>
</defs>
</svg>
