<svg width="32" height="33" viewBox="0 0 32 33" fill="none" xmlns="http://www.w3.org/2000/svg">
<circle cx="16" cy="16.9422" r="16" fill="#FEB916"/>
<g clip-path="url(#clip0_203_107)">
<path d="M19.3334 22.9422V21.6089C19.3334 20.9016 19.0525 20.2233 18.5524 19.7232C18.0523 19.2232 17.374 18.9422 16.6667 18.9422H11.3334C10.6262 18.9422 9.94789 19.2232 9.4478 19.7232C8.9477 20.2233 8.66675 20.9016 8.66675 21.6089V22.9422" stroke="#13273B" stroke-width="2" stroke-linecap="round" stroke-linejoin="round"/>
<path d="M13.9999 16.2755C15.4727 16.2755 16.6666 15.0816 16.6666 13.6089C16.6666 12.1361 15.4727 10.9422 13.9999 10.9422C12.5272 10.9422 11.3333 12.1361 11.3333 13.6089C11.3333 15.0816 12.5272 16.2755 13.9999 16.2755Z" stroke="#13273B" stroke-width="2" stroke-linecap="round" stroke-linejoin="round"/>
<path d="M23.3333 22.9422V21.6089C23.3328 21.018 23.1362 20.4441 22.7742 19.9771C22.4122 19.5101 21.9053 19.1766 21.3333 19.0289" stroke="#13273B" stroke-width="2" stroke-linecap="round" stroke-linejoin="round"/>
<path d="M18.6667 11.0289C19.2404 11.1757 19.7488 11.5093 20.1118 11.9771C20.4749 12.4448 20.672 13.0201 20.672 13.6122C20.672 14.2043 20.4749 14.7796 20.1118 15.2473C19.7488 15.7151 19.2404 16.0487 18.6667 16.1955" stroke="#13273B" stroke-width="2" stroke-linecap="round" stroke-linejoin="round"/>
</g>
<defs>
<clipPath id="clip0_203_107">
<rect width="16" height="16" fill="white" transform="translate(8 8.9422)"/>
</clipPath>
</defs>
</svg>
