<svg width="32" height="33" viewBox="0 0 32 33" fill="none" xmlns="http://www.w3.org/2000/svg">
<circle cx="16" cy="16.9422" r="16" fill="#FEB916"/>
<g clip-path="url(#clip0_203_117)">
<path d="M22.6666 16.3289V16.9422C22.6658 18.3798 22.2003 19.7787 21.3395 20.9301C20.4787 22.0815 19.2688 22.9239 17.8902 23.3315C16.5115 23.7391 15.0381 23.6901 13.6896 23.1919C12.341 22.6937 11.1897 21.7729 10.4072 20.5669C9.62476 19.3609 9.25311 17.9343 9.3477 16.4998C9.44229 15.0653 9.99806 13.6998 10.9321 12.6069C11.8662 11.5141 13.1284 10.7525 14.5307 10.4356C15.933 10.1188 17.4001 10.2638 18.7133 10.8489" stroke="#13273B" stroke-width="2" stroke-linecap="round" stroke-linejoin="round"/>
<path d="M22.6667 11.6089L16 18.2822L14 16.2822" stroke="#13273B" stroke-width="2" stroke-linecap="round" stroke-linejoin="round"/>
</g>
<defs>
<clipPath id="clip0_203_117">
<rect width="16" height="16" fill="white" transform="translate(8 8.9422)"/>
</clipPath>
</defs>
</svg>
