<svg width="115" height="28" viewBox="0 0 115 28" fill="none" xmlns="http://www.w3.org/2000/svg">
<path d="M12.3337 10.6327C11.3954 10.2687 10.4134 10.0261 9.43128 9.79318C8.37628 9.54569 7.30183 9.35159 6.31004 8.89544C5.20642 8.39077 5.10919 7.20189 6.09126 6.49341C6.3781 6.28474 6.70384 6.16828 7.04902 6.09549C7.87552 5.9208 8.71174 5.9305 9.5431 6.03726C10.987 6.21681 12.3143 6.75059 13.6172 7.45422C14.0986 6.25078 14.5507 5.06189 15.0563 3.89726C15.2362 3.47509 15.1438 3.29069 14.7597 3.10144C12.4553 1.95622 10.0147 1.57772 7.47199 1.72815C5.65856 1.83491 3.93751 2.26194 2.46926 3.38774C0.612073 4.80955 -0.0199536 6.75545 0.281475 8.99735C0.568317 11.1325 1.99767 12.3408 3.9132 13.059C5.00223 13.4666 6.13502 13.7335 7.2678 14.0052C8.21098 14.2285 9.15416 14.4517 10.0341 14.8738C10.53 15.1116 10.8266 15.5095 10.8266 16.0627C10.8266 16.6402 10.5252 17.043 10.0001 17.2904C9.62575 17.4651 9.23681 17.5573 8.82842 17.601C6.3781 17.8533 4.13198 17.2468 2.04143 16.0045C1.66221 15.7813 1.55039 15.8492 1.39968 16.2277C1.04477 17.1255 0.646106 18.0086 0.26689 18.8967C-0.146358 19.8672 -0.160942 19.8866 0.811407 20.3767C3.48537 21.7257 6.33921 22.1188 9.29515 21.8567C10.8849 21.716 12.3775 21.2502 13.6756 20.2845C15.5279 18.9064 16.228 17.0187 15.9557 14.7768C15.6932 12.598 14.2541 11.3897 12.3289 10.6472L12.3337 10.6327Z" fill="#032F55"/>
<path d="M28.7955 6.81365C27.3564 6.26531 25.8639 6.11003 24.3324 6.29928C21.4445 6.65352 19.1984 7.99769 18.0121 10.6909C16.821 13.4083 16.996 16.1209 18.7463 18.5715C20.4965 21.0269 23.044 21.8713 25.9708 21.7839C30.3999 21.6481 33.6086 18.3774 33.6135 13.9955C33.6135 10.6472 31.8292 7.96857 28.7955 6.81851V6.81365ZM28.2704 15.558C27.8086 16.8682 26.7779 17.6058 25.4069 17.5961C24.099 17.5864 23.0538 16.8052 22.6405 15.5095C22.3391 14.5633 22.3245 13.6024 22.587 12.6465C23.0003 11.1713 24.2498 10.2881 25.718 10.4143C27.1863 10.5453 28.2753 11.6517 28.4552 13.1997C28.4843 13.4472 28.4892 13.7043 28.5038 13.8936C28.4892 14.4953 28.4552 15.034 28.2704 15.5532V15.558Z" fill="#032F55"/>
<path d="M57.8397 12.4136C57.7765 9.52141 56.3325 7.53185 53.8142 6.70205C52.1806 6.16341 50.4936 6.11004 48.8066 6.3284C47.28 6.52736 45.8069 6.93498 44.4699 7.73566C44.2268 7.88124 44.1053 7.9977 44.2706 8.31312C44.7519 9.25937 45.204 10.225 45.6416 11.1907C45.7777 11.4964 45.8944 11.4819 46.1472 11.3169C47.4404 10.458 48.8795 10.1571 50.4158 10.2784C51.7236 10.3852 52.5452 11.0888 52.7737 12.2243C52.8467 12.5931 52.7251 12.661 52.4042 12.6513C51.6847 12.6368 50.9652 12.6416 50.2505 12.6513C48.967 12.6659 47.6884 12.6999 46.4583 13.1269C44.7373 13.7238 43.6726 14.869 43.5316 16.713C43.3857 18.6346 44.0907 20.168 45.8506 21.0997C47.3383 21.8858 48.9281 21.9538 50.5471 21.6044C51.6555 21.3666 52.5015 20.7358 53.1773 19.6342C53.1773 20.2457 53.1919 20.6873 53.1724 21.124C53.1578 21.4248 53.2064 21.5704 53.5711 21.5656C54.874 21.5413 56.1721 21.551 57.475 21.5656C57.757 21.5656 57.8834 21.5219 57.8786 21.1919C57.864 18.2707 57.9126 15.3445 57.8445 12.4233L57.8397 12.4136ZM51.5875 18.159C50.7513 18.5812 49.8664 18.6298 49.0302 18.1299C48.4662 17.7903 48.3252 17.2273 48.4273 16.6111C48.5294 16.0045 48.9573 15.6891 49.5115 15.5289C50.1922 15.33 50.8971 15.4125 51.5923 15.3979C51.7479 15.3979 51.9035 15.3979 52.0591 15.3979C52.5647 15.3979 52.8175 15.6244 52.8175 16.0773C52.8661 17.1157 52.3751 17.7611 51.5826 18.1639L51.5875 18.159Z" fill="#032F55"/>
<path d="M83.5194 11.6711C82.27 11.1422 80.9427 10.8365 79.63 10.4919C78.5264 10.2008 77.4034 9.95815 76.4505 9.26908C75.692 8.72073 75.3566 7.99284 75.4343 7.06114C75.5267 5.91593 76.1831 5.18319 77.17 4.70763C77.8263 4.39221 78.5361 4.27575 79.2557 4.23208C81.3414 4.0962 83.2472 4.62999 85.0752 5.78491C85.3037 5.2026 85.4787 4.6494 85.7413 4.13503C85.9843 3.65947 85.8336 3.4411 85.4107 3.20818C83.2034 1.98532 80.8309 1.69417 78.366 1.95621C77.2526 2.07752 76.2025 2.39779 75.2545 3.00437C73.4848 4.13017 72.7264 5.7655 72.8333 7.82786C72.9451 9.96785 74.1752 11.2538 76.0567 12.0302C77.2964 12.5446 78.5993 12.8406 79.8877 13.1948C81.0254 13.5054 82.2019 13.7238 83.1645 14.4759C84.307 15.3688 84.4529 17.0429 83.4805 18.1299C83.043 18.62 82.4887 18.9403 81.8567 19.1053C79.2849 19.7653 76.8637 19.3431 74.5592 18.0766C74.1217 17.8339 73.7279 17.1546 73.3098 17.3632C72.9451 17.5476 72.8917 18.2804 72.6145 18.7171C72.2888 19.2315 72.4833 19.5032 72.9062 19.7944C75.1767 21.3569 77.7096 21.8907 80.4225 21.7306C81.7935 21.6481 83.111 21.3521 84.2924 20.6048C86.0427 19.4984 86.806 17.8776 86.7136 15.8346C86.6115 13.7141 85.3669 12.4475 83.5194 11.6711Z" fill="#032F55"/>
<path d="M40.3811 0.898338C39.0635 0.932306 37.7411 0.917749 36.4187 0.903191C36.0638 0.903191 35.918 0.961423 35.918 1.36904C35.9326 7.95402 35.9326 14.5342 35.918 21.1191C35.918 21.4928 36.0347 21.5607 36.375 21.5559C37.7363 21.5365 39.0927 21.5267 40.454 21.5559C40.9013 21.5656 40.9936 21.4345 40.9888 21.0075C40.9693 17.7369 40.979 14.4614 40.979 11.1907C40.979 7.95887 40.9693 4.72219 40.9888 1.49036C40.9888 1.0051 40.8526 0.878928 40.3762 0.888633L40.3811 0.898338Z" fill="#032F55"/>
<path d="M70.6794 7.62888C70.6794 6.02752 70.6794 6.04208 69.0605 6.37206C67.811 6.62439 66.7365 7.17759 65.808 8.26457C65.808 7.71623 65.7885 7.31831 65.8128 6.92525C65.8371 6.57587 65.7302 6.45455 65.3607 6.4594C64.0577 6.47881 62.7548 6.47881 61.4567 6.4594C61.1164 6.4594 60.9851 6.51763 60.9851 6.90099C60.9997 11.6468 60.9948 16.3927 60.9851 21.1385C60.9851 21.4685 61.0726 21.5607 61.4032 21.5558C62.7645 21.5364 64.1258 21.5267 65.4822 21.5558C65.9392 21.5656 66.0608 21.4442 66.0559 20.9881C66.0316 18.8384 66.0267 16.6887 66.051 14.539C66.0754 12.2874 67.0963 11.1082 69.1285 10.8947C69.5175 10.8559 69.9064 10.8607 70.2905 10.9432C70.6016 11.0111 70.6843 10.9092 70.6794 10.5987C70.66 9.60874 70.6746 8.62366 70.6746 7.63373L70.6794 7.62888Z" fill="#032F55"/>
<path d="M100.56 6.78938C100.132 6.76026 99.9619 6.93496 99.8063 7.30861C98.3478 10.8656 96.8747 14.4177 95.3967 17.9649C95.3189 18.1493 95.3092 18.3774 95.0904 18.4939C94.998 18.2706 94.9057 18.0571 94.8133 17.8436C93.3353 14.3158 91.8622 10.7879 90.3794 7.26008C90.3016 7.08053 90.3065 6.80393 90.0148 6.80393C89.2126 6.79908 88.4104 6.80393 87.5499 6.80393C87.652 7.05142 87.7152 7.2067 87.7832 7.36684C89.7133 11.9186 91.6435 16.4752 93.5687 21.0269C93.6562 21.2307 93.8361 21.4248 93.7194 21.6772C93.3694 22.4099 93.1214 23.1912 92.6352 23.8511C92.1637 24.4868 91.5414 24.8022 90.7489 24.8314C89.7182 24.8653 88.8625 24.4723 88.0992 23.7686C87.8075 24.2927 87.5499 24.8168 87.2387 25.3021C87.0151 25.6514 87.0686 25.8504 87.3943 26.1027C89.057 27.3935 92.7617 27.8206 94.5848 25.0837C95.0078 24.4528 95.3432 23.7832 95.6398 23.0844C97.8422 17.8727 100.049 12.661 102.247 7.44448C102.33 7.24552 102.495 7.05627 102.432 6.79908C101.8 6.79908 101.177 6.83305 100.56 6.78938Z" fill="#032F55"/>
<path d="M112.359 13.8548C111.625 13.6024 110.867 13.4472 110.108 13.2822C109.048 13.0541 107.959 12.9425 106.958 12.4912C106.355 12.2195 105.937 11.7924 105.898 11.0888C105.859 10.3512 106.214 9.83683 106.822 9.46318C107.089 9.29819 107.376 9.18173 107.677 9.11864C109.097 8.80807 110.483 8.9488 111.868 9.36127C112.398 9.51655 112.894 10.2056 113.366 9.89506C113.789 9.61846 113.905 8.90028 114.207 8.40531C114.411 8.07048 114.328 7.92005 114.007 7.75991C112.184 6.85733 110.259 6.54191 108.246 6.73116C106.904 6.85733 105.66 7.23583 104.639 8.16753C102.407 10.2105 103.146 13.7529 106 14.7282C106.754 14.9854 107.531 15.1359 108.314 15.2912C109.321 15.4901 110.356 15.5775 111.304 15.9996C111.883 16.2568 112.291 16.6596 112.306 17.3632C112.32 18.1008 111.999 18.6297 111.363 18.9694C111.144 19.0859 110.901 19.1781 110.658 19.2266C108.431 19.6973 106.335 19.3043 104.396 18.1493C104.016 17.9261 103.895 17.9746 103.744 18.3531C103.589 18.7462 103.404 19.1393 103.17 19.4887C102.893 19.8963 103 20.1146 103.399 20.3476C105.052 21.3084 106.851 21.6966 108.747 21.6723C109.097 21.6723 109.447 21.7014 109.797 21.6723C111.294 21.5316 112.704 21.1531 113.803 20.0418C115.762 18.062 114.994 14.7719 112.364 13.8645L112.359 13.8548Z" fill="#032F55"/>
</svg>
