<svg width="101" height="102" viewBox="0 0 101 102" fill="none" xmlns="http://www.w3.org/2000/svg">
<circle cx="50.1919" cy="51.0182" r="9.94283" fill="#FCD04B"/>
<path d="M44.8832 99.9924C44.9136 99.9486 44.9463 99.9156 44.9813 99.8934C45.0132 99.8741 45.0519 99.8659 45.0976 99.8689C45.1493 99.8723 45.2085 99.9021 45.2751 99.9584C45.3417 100.015 45.4263 100.077 45.5288 100.145C45.6281 100.215 45.7507 100.281 45.8964 100.343C46.0391 100.404 46.2154 100.442 46.4254 100.455C46.6232 100.468 46.8 100.452 46.9557 100.407C47.1082 100.365 47.2392 100.302 47.3486 100.217C47.455 100.133 47.5382 100.03 47.598 99.9083C47.6577 99.7899 47.6922 99.6592 47.7016 99.5162C47.7135 99.3336 47.6793 99.1786 47.599 99.0511C47.5154 98.9264 47.4034 98.8167 47.2629 98.722C47.1193 98.627 46.9568 98.5416 46.7753 98.4655C46.5906 98.3924 46.403 98.3159 46.2127 98.2363C46.0192 98.1564 45.8324 98.0678 45.6524 97.9705C45.469 97.876 45.3085 97.7601 45.1708 97.6228C45.03 97.4852 44.9215 97.3207 44.8454 97.1293C44.7662 96.9377 44.7355 96.7065 44.7531 96.4357C44.7718 96.1496 44.8381 95.8834 44.9519 95.6372C45.0656 95.394 45.2228 95.1858 45.4236 95.0124C45.6214 94.8389 45.8607 94.7078 46.1415 94.6192C46.4193 94.5303 46.7317 94.4972 47.0786 94.5199C47.5047 94.5477 47.8862 94.649 48.2232 94.8238C48.56 95.0016 48.8431 95.2295 49.0726 95.5073L48.7895 95.9106C48.763 95.9424 48.7323 95.9679 48.6974 95.9871C48.6593 96.009 48.619 96.0186 48.5764 96.0158C48.5368 96.0133 48.4938 95.9936 48.4473 95.957C48.3975 95.9232 48.3423 95.8798 48.2815 95.827C48.2208 95.7741 48.1512 95.7161 48.0728 95.6529C47.9945 95.5897 47.9051 95.5304 47.8048 95.475C47.7015 95.4193 47.584 95.3704 47.4522 95.3282C47.3203 95.289 47.1707 95.264 47.0033 95.253C46.7933 95.2393 46.6043 95.256 46.4361 95.3031C46.268 95.3502 46.1243 95.4218 46.0049 95.518C45.8824 95.6169 45.7859 95.7375 45.7155 95.8796C45.6451 96.0217 45.604 96.1825 45.5923 96.3621C45.5794 96.5599 45.6145 96.7241 45.6977 96.8549C45.7776 96.9885 45.8878 97.1026 46.0283 97.1974C46.1688 97.2921 46.3315 97.3745 46.5164 97.4447C46.7012 97.5178 46.8889 97.5912 47.0797 97.6648C47.2703 97.7414 47.4573 97.827 47.6406 97.9215C47.8239 98.0159 47.9843 98.1334 48.1219 98.2738C48.2594 98.4142 48.3675 98.5847 48.4461 98.7854C48.5214 98.989 48.5496 99.2354 48.5308 99.5245C48.5157 99.7558 48.457 99.9765 48.3546 100.187C48.2492 100.397 48.1058 100.58 47.9245 100.736C47.7401 100.892 47.5199 101.013 47.2638 101.097C47.0046 101.181 46.7122 101.212 46.3866 101.191C46.0214 101.167 45.6935 101.087 45.4028 100.952C45.109 100.817 44.8552 100.632 44.6412 100.398L44.8832 99.9924Z" fill="black"/>
<path d="M31.8977 94.4307C32.0488 93.9636 32.2617 93.558 32.5363 93.2141C32.8101 92.8731 33.1274 92.6055 33.4883 92.4113C33.8491 92.2171 34.245 92.1031 34.6758 92.0694C35.1028 92.0376 35.5455 92.0958 36.004 92.244C36.4625 92.3923 36.8554 92.6043 37.1829 92.8801C37.5095 93.1588 37.7622 93.4825 37.9411 93.8512C38.1199 94.22 38.2205 94.6227 38.2427 95.0594C38.264 95.499 38.1992 95.9524 38.0481 96.4196C37.897 96.8867 37.6846 97.2908 37.4109 97.6318C37.1362 97.9757 36.8184 98.2447 36.4575 98.439C36.0957 98.6361 35.7009 98.752 35.2729 98.7867C34.845 98.8214 34.4019 98.7646 33.9434 98.6164C33.4849 98.4681 33.0924 98.2546 32.7658 97.976C32.4363 97.6964 32.1826 97.3707 32.0047 96.9991C31.8259 96.6303 31.7258 96.2262 31.7045 95.7866C31.6822 95.3499 31.7467 94.8979 31.8977 94.4307ZM32.7639 94.7108C32.64 95.0939 32.5811 95.4546 32.587 95.7931C32.593 96.1316 32.6579 96.4362 32.7819 96.7071C32.9049 96.9808 33.0845 97.2184 33.3207 97.4198C33.5568 97.6212 33.8432 97.7763 34.1798 97.8851C34.5135 97.993 34.8351 98.0345 35.1444 98.0095C35.4538 97.9846 35.7399 97.8976 36.0029 97.7486C36.2619 97.6016 36.493 97.3927 36.696 97.1218C36.899 96.8509 37.0624 96.5239 37.1862 96.1409C37.3101 95.7578 37.3691 95.3971 37.3631 95.0586C37.3563 94.723 37.2913 94.4184 37.1683 94.1446C37.0414 93.8728 36.8599 93.6362 36.6237 93.4349C36.3866 93.2364 36.1012 93.0832 35.7675 92.9753C35.4309 92.8664 35.1084 92.823 34.8 92.8451C34.4906 92.8701 34.2064 92.9561 33.9473 93.1031C33.6873 93.253 33.4562 93.4619 33.2542 93.7299C33.0512 94.0008 32.8878 94.3278 32.7639 94.7108Z" fill="black"/>
<path d="M24.5132 87.312L24.9062 86.6783L28.0669 88.6383L24.6122 94.2095L23.8619 93.7442L26.9236 88.8067L24.5132 87.312Z" fill="black"/>
<path d="M16.2085 82.1371L15.0466 84.749C15.012 84.8266 14.9698 84.9139 14.9201 85.0109C14.8682 85.11 14.8109 85.2123 14.7482 85.3179C14.9683 85.1889 15.1604 85.0899 15.3244 85.0212L17.9365 83.8702L16.2085 82.1371ZM16.6269 79.11L17.1114 79.5959C17.1674 79.652 17.1986 79.7114 17.205 79.7739C17.2114 79.8365 17.2016 79.8979 17.1756 79.9583L16.4876 81.5099L18.5645 83.5929L20.1181 82.9094C20.1699 82.8836 20.2292 82.874 20.2961 82.8806C20.3629 82.8871 20.4233 82.9174 20.4771 82.9714L20.9616 83.4573L14.4687 86.2297L13.8356 85.5948L16.6269 79.11Z" fill="black"/>
<path d="M9.80431 74.9698C9.67225 74.7503 9.52977 74.5726 9.37689 74.4368C9.21982 74.2999 9.05913 74.2044 8.89484 74.1502C8.72636 74.095 8.55688 74.0795 8.3864 74.1038C8.21593 74.128 8.04837 74.1897 7.88373 74.2887C7.54924 74.49 7.36309 74.7514 7.3253 75.0731C7.2875 75.3949 7.40067 75.7752 7.6648 76.2142L8.16475 77.0453L10.2854 75.7694L9.80431 74.9698ZM11.1399 70.632L11.5455 71.3062C11.6289 71.4447 11.6366 71.5789 11.5688 71.7087L10.4391 74.3743C10.4031 74.4565 10.3877 74.5315 10.3931 74.5995C10.3942 74.6665 10.427 74.7535 10.4914 74.8607L10.8381 75.4369L13.1822 74.0266L13.6373 74.7832L8.02017 78.1626L7.06505 76.5751C6.85123 76.2197 6.70309 75.8906 6.62061 75.5879C6.53552 75.2867 6.51061 75.0116 6.54588 74.7626C6.57957 74.511 6.66874 74.2865 6.81339 74.0892C6.95541 73.8934 7.14533 73.724 7.38314 73.5809C7.58174 73.4614 7.78615 73.3811 7.99636 73.3401C8.20657 73.299 8.41708 73.297 8.6279 73.3338C8.83454 73.3697 9.03809 73.4447 9.23855 73.5591C9.43743 73.6707 9.62694 73.8201 9.80709 74.0071C9.80379 73.8774 9.83319 73.7458 9.89527 73.6124L11.1399 70.632Z" fill="black"/>
<path d="M2.7451 63.7384C2.79697 63.7508 2.83958 63.7694 2.87291 63.7941C2.90242 63.8168 2.92404 63.85 2.93776 63.8936C2.9533 63.9431 2.94686 64.009 2.91844 64.0915C2.89001 64.174 2.86271 64.2752 2.83653 64.3954C2.80653 64.5135 2.7892 64.6516 2.78456 64.8097C2.779 64.9649 2.80777 65.1429 2.87087 65.3436C2.93031 65.5327 3.00908 65.6918 3.10718 65.8208C3.20145 65.9478 3.30778 66.0471 3.42615 66.1186C3.54361 66.1871 3.66976 66.2274 3.80459 66.2394C3.93651 66.2522 4.07085 66.2372 4.20759 66.1942C4.38215 66.1393 4.51436 66.0514 4.60421 65.9305C4.69024 65.8075 4.75204 65.6634 4.7896 65.4981C4.82625 65.33 4.84723 65.1476 4.85254 64.9509C4.85403 64.7522 4.85751 64.5497 4.86299 64.3434C4.86755 64.1342 4.88267 63.928 4.90835 63.7249C4.9302 63.5199 4.98027 63.3283 5.05857 63.1502C5.13595 62.9693 5.25012 62.8087 5.40107 62.6685C5.5511 62.5255 5.75559 62.4132 6.01452 62.3318C6.28801 62.2459 6.56012 62.2115 6.83086 62.2287C7.0987 62.2468 7.3497 62.3181 7.58388 62.4427C7.81713 62.5644 8.02583 62.7402 8.20997 62.97C8.39319 63.1969 8.53693 63.4762 8.64119 63.8079C8.76922 64.2152 8.81264 64.6076 8.77142 64.985C8.7273 65.3633 8.61718 65.7096 8.44105 66.0239L7.96273 65.9057C7.92341 65.8925 7.88854 65.8731 7.85811 65.8475C7.82386 65.8199 7.80034 65.7857 7.78753 65.745C7.77565 65.7072 7.77839 65.66 7.79576 65.6034C7.8093 65.5448 7.82975 65.4776 7.85709 65.4019C7.88444 65.3261 7.9134 65.2403 7.94399 65.1444C7.97458 65.0484 7.9976 64.9437 8.01305 64.8302C8.02759 64.7137 8.03075 64.5864 8.02251 64.4483C8.01136 64.3112 7.98064 64.1626 7.93034 64.0026C7.86724 63.8018 7.78336 63.6316 7.67869 63.4919C7.57403 63.3521 7.45532 63.244 7.32256 63.1674C7.18598 63.0889 7.03872 63.0425 6.88078 63.0282C6.72284 63.0139 6.55804 63.0337 6.38639 63.0877C6.19728 63.1471 6.0568 63.2393 5.96495 63.364C5.86928 63.4868 5.80266 63.6308 5.76509 63.7961C5.72753 63.9613 5.70946 64.1428 5.71088 64.3406C5.70939 64.5393 5.70882 64.7409 5.70916 64.9454C5.7066 65.1508 5.69439 65.356 5.67254 65.5611C5.65068 65.7662 5.59915 65.9582 5.51795 66.1371C5.43674 66.3161 5.31676 66.4785 5.15799 66.6243C4.99541 66.7681 4.77592 66.8835 4.49952 66.9704C4.27841 67.0399 4.05131 67.0649 3.81822 67.0455C3.58422 67.0231 3.3616 66.9556 3.15037 66.843C2.93823 66.7275 2.74666 66.5655 2.57565 66.3571C2.40374 66.1458 2.26885 65.8845 2.171 65.5732C2.06125 65.2241 2.01685 64.8896 2.03778 64.5697C2.0578 64.2469 2.13825 63.9435 2.27913 63.6595L2.7451 63.7384Z" fill="black"/>
<path d="M4.09633 53.1632L6.70248 52.987L6.76235 53.8724L4.1562 54.0486L0.383879 56.7108L0.33142 55.9349C0.326071 55.8558 0.341632 55.7921 0.378102 55.7438C0.41153 55.6957 0.45754 55.6528 0.516133 55.6152L2.95717 53.9463C3.05996 53.8843 3.15698 53.8273 3.24822 53.7753C3.33642 53.7235 3.42655 53.6777 3.51861 53.6378C3.42202 53.6107 3.32665 53.579 3.23248 53.5425C3.13528 53.5063 3.03168 53.4659 2.92168 53.4214L0.278523 52.1008C0.224944 52.0769 0.175209 52.0421 0.129319 51.9963C0.083428 51.9505 0.057911 51.8895 0.0527679 51.8135L0 51.033L4.09633 53.1632Z" fill="black"/>
<path d="M2.22002 40.6431C2.26048 40.6779 2.2899 40.7139 2.30829 40.7511C2.32419 40.7847 2.32827 40.8241 2.32056 40.8692C2.31181 40.9203 2.27596 40.976 2.21303 41.0364C2.15009 41.0968 2.07955 41.1745 2.00142 41.2694C1.9208 41.3608 1.84233 41.4758 1.76601 41.6143C1.69021 41.7498 1.63455 41.9213 1.59905 42.1287C1.5656 42.3241 1.56306 42.5016 1.59144 42.6612C1.61733 42.8172 1.66661 42.9541 1.7393 43.0717C1.8125 43.1863 1.90634 43.2798 2.02084 43.352C2.13233 43.4236 2.25872 43.4716 2.4 43.4958C2.58036 43.5266 2.73813 43.5088 2.87329 43.4422C3.00596 43.3721 3.12673 43.2721 3.2356 43.1422C3.34499 43.0093 3.44694 42.8566 3.54145 42.684C3.63348 42.508 3.72902 42.3294 3.82809 42.1483C3.92767 41.9642 4.03524 41.7877 4.1508 41.6188C4.26387 41.4463 4.39588 41.2987 4.54683 41.176C4.6983 41.0504 4.87318 40.9596 5.07147 40.9038C5.27027 40.8451 5.50344 40.8386 5.77098 40.8844C6.05354 40.9327 6.31134 41.0264 6.54437 41.1653C6.77439 41.3037 6.96514 41.4817 7.1166 41.6995C7.26858 41.9143 7.37401 42.1659 7.43291 42.4545C7.49232 42.74 7.49269 43.0541 7.43403 43.3968C7.36198 43.8177 7.22148 44.1866 7.01252 44.5035C6.80055 44.8199 6.54446 45.0778 6.24426 45.277L5.87266 44.9535C5.84371 44.9238 5.82154 44.8906 5.80616 44.8539C5.78829 44.8137 5.78296 44.7726 5.79016 44.7305C5.79685 44.6914 5.82084 44.6507 5.86214 44.6082C5.90095 44.5623 5.94981 44.5119 6.00871 44.457C6.06761 44.4021 6.13257 44.3389 6.20358 44.2676C6.27459 44.1962 6.34289 44.1135 6.40848 44.0195C6.47459 43.9226 6.53549 43.8108 6.5912 43.6842C6.6439 43.557 6.68441 43.4108 6.71271 43.2455C6.74822 43.0381 6.75131 42.8483 6.72198 42.6762C6.69266 42.5041 6.63641 42.3537 6.55325 42.225C6.46759 42.0927 6.35776 41.9842 6.22377 41.8994C6.08977 41.8146 5.9341 41.757 5.75674 41.7266C5.56135 41.6932 5.39431 41.711 5.25563 41.7801C5.11445 41.8456 4.98943 41.9433 4.88056 42.0732C4.77169 42.2031 4.67275 42.3563 4.58373 42.5329C4.49171 42.709 4.39917 42.8881 4.30611 43.0702C4.21005 43.2518 4.10549 43.4288 3.99242 43.6013C3.87935 43.7738 3.74584 43.9211 3.59188 44.0432C3.43792 44.1654 3.25703 44.2551 3.04921 44.3124C2.83889 44.3661 2.59095 44.3685 2.30538 44.3196C2.07692 44.2805 1.86344 44.1991 1.66494 44.0754C1.46695 43.9487 1.2997 43.787 1.16319 43.5903C1.02719 43.3907 0.930691 43.1591 0.87369 42.8957C0.817203 42.6292 0.816491 42.3351 0.871553 42.0135C0.933304 41.6528 1.04651 41.3349 1.21117 41.0598C1.37634 40.7818 1.58644 40.5486 1.84147 40.3602L2.22002 40.6431Z" fill="black"/>
<path d="M3.21594 32.4712L3.45195 31.8808L11.4464 35.0763L11.2104 35.6667L3.21594 32.4712Z" fill="black"/>
<path d="M10.7043 21.8989C10.727 21.9472 10.7391 21.992 10.7407 22.0335C10.7414 22.0707 10.7291 22.1083 10.7036 22.1463C10.6747 22.1893 10.6192 22.2255 10.537 22.2549C10.4549 22.2843 10.3588 22.3263 10.2487 22.3809C10.1377 22.4313 10.0191 22.5042 9.89275 22.5994C9.76814 22.692 9.64721 22.8257 9.52996 23.0005C9.41951 23.1651 9.3446 23.326 9.30522 23.4832C9.26501 23.6362 9.25401 23.7812 9.27221 23.9183C9.29211 24.0529 9.33953 24.1765 9.41448 24.2892C9.48689 24.4002 9.58261 24.4957 9.70164 24.5755C9.85359 24.6775 10.0049 24.7257 10.1554 24.7203C10.3052 24.7106 10.4563 24.6687 10.6088 24.5947C10.7629 24.5182 10.9184 24.4206 11.0753 24.3018C11.2313 24.1787 11.3915 24.0549 11.556 23.9302C11.7221 23.8029 11.8925 23.6859 12.0671 23.579C12.2408 23.4678 12.4216 23.3872 12.6095 23.337C12.7992 23.2843 12.9959 23.273 13.1996 23.3032C13.4051 23.3309 13.6205 23.4203 13.8459 23.5716C14.084 23.7313 14.2809 23.9222 14.4367 24.1443C14.59 24.3647 14.6912 24.6052 14.7403 24.8658C14.7912 25.124 14.7844 25.3967 14.7201 25.6841C14.6576 25.969 14.5294 26.2558 14.3357 26.5445C14.0978 26.899 13.8187 27.1782 13.4983 27.3819C13.1755 27.584 12.8363 27.7145 12.4809 27.7735L12.2741 27.3263C12.2599 27.2873 12.2532 27.248 12.2542 27.2082C12.2543 27.1642 12.2663 27.1245 12.2901 27.0891C12.3122 27.0561 12.3507 27.0288 12.4058 27.0069C12.46 26.9809 12.5252 26.9548 12.6014 26.9289C12.6776 26.9029 12.7627 26.8718 12.8567 26.8357C12.9507 26.7996 13.0468 26.7521 13.1451 26.6932C13.2451 26.6318 13.3464 26.5547 13.4491 26.4619C13.5492 26.3675 13.6459 26.2506 13.7394 26.1113C13.8566 25.9366 13.9371 25.7647 13.9807 25.5957C14.0244 25.4266 14.0346 25.2664 14.0113 25.1149C13.9873 24.9592 13.9314 24.8152 13.8439 24.683C13.7563 24.5508 13.6378 24.4346 13.4884 24.3343C13.3238 24.2239 13.1641 24.1718 13.0092 24.1781C12.8536 24.1802 12.6995 24.2182 12.5471 24.2922C12.3946 24.3662 12.2416 24.4655 12.0882 24.5903C11.9322 24.7133 11.7745 24.8388 11.6151 24.9669C11.4531 25.0933 11.2853 25.2121 11.1116 25.3232C10.9378 25.4344 10.7557 25.5142 10.5653 25.5627C10.3748 25.6112 10.1731 25.619 9.96 25.5863C9.74611 25.5492 9.51888 25.45 9.27829 25.2886C9.08582 25.1595 8.92432 24.9978 8.79379 24.8038C8.66496 24.6071 8.57848 24.3912 8.53435 24.1559C8.49192 23.9181 8.49858 23.6673 8.55435 23.4036C8.61181 23.1373 8.73145 22.8687 8.91327 22.5977C9.11717 22.2938 9.35051 22.0501 9.61327 21.8665C9.87772 21.6803 10.1648 21.5534 10.4746 21.4858L10.7043 21.8989Z" fill="black"/>
<path d="M22.0322 13.4591C22.3605 13.8243 22.6044 14.212 22.7639 14.6221C22.9215 15.03 22.9937 15.4388 22.9805 15.8484C22.9673 16.258 22.8673 16.6576 22.6802 17.0472C22.4935 17.4324 22.2209 17.7861 21.8625 18.1082C21.5042 18.4304 21.1236 18.6639 20.7207 18.8087C20.3157 18.9513 19.9089 19.0074 19.5002 18.977C19.0915 18.9466 18.6927 18.8314 18.3038 18.6315C17.9129 18.4293 17.5533 18.1456 17.2251 17.7805C16.8968 17.4153 16.6539 17.0288 16.4964 16.6209C16.3368 16.2107 16.2636 15.8008 16.2768 15.3912C16.2879 14.9793 16.3858 14.5796 16.5706 14.1921C16.7553 13.8046 17.0269 13.4498 17.3852 13.1276C17.7436 12.8055 18.1252 12.5731 18.5302 12.4306C18.9374 12.2859 19.3464 12.23 19.7571 12.2626C20.1658 12.293 20.5656 12.4093 20.9565 12.6115C21.3454 12.8114 21.7039 13.094 22.0322 13.4591ZM21.3552 14.0677C21.0861 13.7684 20.8036 13.5363 20.5079 13.3715C20.2122 13.2068 19.9161 13.1101 19.6196 13.0813C19.3211 13.0503 19.0254 13.0864 18.7327 13.1896C18.44 13.2928 18.1621 13.4627 17.899 13.6992C17.6382 13.9336 17.4409 14.1909 17.3073 14.471C17.1736 14.7511 17.1052 15.0423 17.1021 15.3444C17.0992 15.6423 17.1639 15.947 17.2964 16.2585C17.4288 16.5701 17.6296 16.8756 17.8987 17.1749C18.1678 17.4743 18.4503 17.7064 18.746 17.8711C19.0397 18.0336 19.3358 18.1303 19.6343 18.1613C19.9331 18.188 20.2288 18.1498 20.5215 18.0466C20.8122 17.9411 21.0879 17.7712 21.3487 17.5367C21.6118 17.3002 21.8112 17.043 21.947 16.7652C22.0806 16.4851 22.1489 16.1961 22.1518 15.8982C22.1527 15.5981 22.0879 15.2934 21.9575 14.9841C21.8251 14.6726 21.6243 14.3671 21.3552 14.0677Z" fill="black"/>
<path d="M31.8958 10.6451L32.2466 11.303L28.9649 13.0531L25.8803 7.26874L26.6594 6.85329L29.3931 11.9797L31.8958 10.6451Z" fill="black"/>
<path d="M40.54 6.05948L38.864 3.74359C38.8142 3.67471 38.7599 3.59442 38.701 3.50273C38.6413 3.40809 38.5816 3.30716 38.5217 3.19995C38.5229 3.45514 38.512 3.67091 38.4892 3.84727L38.1736 6.68423L40.54 6.05948ZM42.9481 7.94077L42.2847 8.11594C42.208 8.13618 42.141 8.13336 42.0837 8.10748C42.0264 8.08161 41.9782 8.04229 41.939 7.98955L40.9423 6.61565L38.0983 7.36652L37.9096 9.05337C37.9059 9.11112 37.8845 9.16725 37.8453 9.22176C37.806 9.27628 37.7496 9.31327 37.6758 9.33273L37.0124 9.5079L37.8734 2.50054L38.7403 2.27167L42.9481 7.94077Z" fill="black"/>
<path d="M49.9534 4.11784C50.2096 4.11379 50.4348 4.07973 50.629 4.01566C50.8261 3.94849 50.9894 3.85745 51.1188 3.74255C51.2511 3.62456 51.3496 3.48575 51.4141 3.32612C51.4787 3.16649 51.5095 2.99062 51.5065 2.79852C51.5003 2.4082 51.3676 2.11596 51.1083 1.9218C50.849 1.72764 50.4632 1.63461 49.9509 1.64271L48.9812 1.65803L49.0203 4.13258L49.9534 4.11784ZM53.0349 7.45019L52.2481 7.46262C52.0865 7.46518 51.9666 7.40455 51.8884 7.28073L50.1499 4.96571C50.0969 4.89335 50.0396 4.8424 49.9782 4.81287C49.9197 4.78024 49.8279 4.76492 49.7029 4.7669L49.0305 4.77752L49.0738 7.51279L48.191 7.52675L48.0874 0.972156L49.9399 0.942878C50.3546 0.936323 50.7136 0.973352 51.0168 1.05396C51.32 1.13152 51.5704 1.24805 51.7681 1.40353C51.9688 1.55896 52.1182 1.74876 52.2163 1.97292C52.3143 2.19402 52.3655 2.44332 52.3699 2.72082C52.3736 2.95257 52.3404 3.16965 52.2704 3.37206C52.2004 3.57448 52.0966 3.7576 51.9588 3.92143C51.8241 4.08217 51.657 4.22054 51.4576 4.33655C51.2611 4.45251 51.0368 4.54145 50.7846 4.60339C50.8985 4.66565 50.9975 4.75711 51.0818 4.87778L53.0349 7.45019Z" fill="black"/>
<path d="M63.2108 3.64935C63.174 3.68796 63.1366 3.71548 63.0985 3.73192C63.064 3.74606 63.0245 3.74811 62.9799 3.73807C62.9293 3.72669 62.8755 3.68801 62.8184 3.62204C62.7614 3.55606 62.6875 3.48161 62.5967 3.39868C62.5096 3.31344 62.3988 3.22913 62.2644 3.14576C62.133 3.06305 61.9646 2.99861 61.7593 2.95243C61.5659 2.90893 61.3888 2.89722 61.228 2.91732C61.0708 2.9351 60.9316 2.97725 60.8104 3.04376C60.6921 3.11094 60.594 3.19983 60.5159 3.31044C60.4386 3.41808 60.3842 3.54182 60.3527 3.68167C60.3126 3.86019 60.3222 4.01866 60.3818 4.15709C60.4449 4.29321 60.5385 4.41898 60.6626 4.53442C60.7897 4.65052 60.9369 4.76023 61.1044 4.86354C61.2755 4.96454 61.4488 5.06919 61.6245 5.17748C61.8032 5.28644 61.9739 5.40299 62.1367 5.52713C62.3031 5.64896 62.4437 5.78842 62.5584 5.94551C62.6761 6.10327 62.7576 6.2826 62.8031 6.48351C62.8515 6.68509 62.846 6.91828 62.7864 7.18309C62.7235 7.46278 62.6167 7.71539 62.4659 7.94093C62.3158 8.1635 62.1281 8.34479 61.9028 8.48479C61.6805 8.62546 61.4237 8.71775 61.1325 8.76166C60.8443 8.80623 60.5306 8.79037 60.1914 8.71408C59.7748 8.62038 59.4137 8.461 59.1079 8.23593C58.8029 8.00789 58.5586 7.73882 58.3752 7.42873L58.7175 7.07434C58.7486 7.04697 58.7829 7.02655 58.8203 7.01308C58.8614 6.99731 58.9027 6.99411 58.9444 7.00348C58.9831 7.01218 59.0225 7.03825 59.0628 7.08169C59.1067 7.12282 59.1545 7.17421 59.2063 7.23587C59.2581 7.29753 59.3178 7.36567 59.3854 7.44027C59.453 7.51487 59.532 7.58735 59.6225 7.65771C59.7159 7.72875 59.8244 7.79535 59.948 7.85753C60.0722 7.91673 60.2161 7.96473 60.3798 8.00154C60.5851 8.04772 60.7744 8.06062 60.9478 8.04022C61.1212 8.01983 61.2743 7.97143 61.4072 7.89503C61.5436 7.81633 61.6577 7.71226 61.7493 7.58282C61.841 7.45339 61.9065 7.3009 61.946 7.12535C61.9895 6.93195 61.9804 6.76421 61.9185 6.62214C61.8604 6.47777 61.7692 6.34786 61.6452 6.23243C61.5211 6.11699 61.3732 6.01026 61.2014 5.91223C61.0303 5.81123 60.8562 5.70956 60.6792 5.60722C60.5028 5.5019 60.3314 5.38833 60.165 5.2665C59.9986 5.14467 59.8584 5.00372 59.7444 4.84366C59.6303 4.68359 59.5501 4.4983 59.5037 4.2878C59.4609 4.07499 59.4713 3.82726 59.5349 3.54459C59.5857 3.31846 59.6781 3.10948 59.8119 2.91763C59.9486 2.72646 60.1187 2.56778 60.3222 2.44162C60.5286 2.31612 60.7648 2.23171 61.0309 2.18841C61.2999 2.14577 61.5936 2.16025 61.912 2.23186C62.2691 2.31217 62.5807 2.44166 62.8468 2.62031C63.1159 2.79963 63.338 3.0215 63.513 3.28593L63.2108 3.64935Z" fill="black"/>
<path d="M71.6793 10.126L70.5236 12.4685L69.7277 12.0759L70.8834 9.73334L70.4742 5.1344L71.1716 5.47847C71.2427 5.51355 71.29 5.55899 71.3135 5.61478C71.3383 5.66784 71.3523 5.72914 71.3554 5.79869L71.5737 8.74764C71.5757 8.86765 71.5763 8.98017 71.5755 9.0852C71.5761 9.18749 71.5705 9.28845 71.5587 9.38807C71.6306 9.31813 71.706 9.25158 71.7847 9.18842C71.8649 9.12252 71.9518 9.05318 72.0455 8.98039L74.5144 7.35711C74.5619 7.32276 74.617 7.29723 74.6797 7.28053C74.7423 7.26383 74.8078 7.27235 74.8762 7.30608L75.5777 7.65217L71.6793 10.126Z" fill="black"/>
<path d="M83.4498 14.7872C83.3994 14.8048 83.3535 14.8122 83.3121 14.8094C83.275 14.8063 83.2389 14.79 83.2038 14.7607C83.164 14.7275 83.1337 14.6685 83.1131 14.5838C83.0925 14.499 83.0607 14.3991 83.0178 14.2838C82.9792 14.1682 82.9192 14.0427 82.8376 13.9071C82.7585 13.7735 82.6381 13.6393 82.4765 13.5045C82.3243 13.3775 82.1721 13.2862 82.0198 13.2307C81.8719 13.1748 81.7288 13.1487 81.5905 13.1525C81.4546 13.1583 81.3267 13.1926 81.2068 13.2554C81.0889 13.3158 80.984 13.4011 80.8921 13.5111C80.7749 13.6516 80.7112 13.797 80.7009 13.9474C80.695 14.0973 80.7208 14.252 80.7785 14.4113C80.8386 14.5726 80.9195 14.7374 81.0213 14.9058C81.1274 15.0738 81.2339 15.246 81.3408 15.4226C81.45 15.6011 81.5487 15.7828 81.6368 15.9675C81.7292 16.1519 81.7906 16.3401 81.821 16.5323C81.8537 16.7263 81.8444 16.9231 81.7931 17.1226C81.7441 17.3241 81.6327 17.529 81.4588 17.7374C81.2752 17.9576 81.0648 18.1335 80.8277 18.2654C80.5925 18.3949 80.3428 18.4705 80.0784 18.4922C79.8164 18.5158 79.5458 18.4807 79.2667 18.3868C78.9899 18.2949 78.718 18.1375 78.4511 17.9148C78.1232 17.6413 77.8747 17.3346 77.7054 16.9948C77.5381 16.6526 77.4436 16.3017 77.422 15.9421L77.8883 15.783C77.9286 15.7729 77.9684 15.7704 78.0078 15.7755C78.0516 15.7802 78.0898 15.7962 78.1226 15.8236C78.153 15.849 78.1762 15.8902 78.1922 15.9472C78.2125 16.0039 78.2316 16.0714 78.2495 16.1499C78.2674 16.2284 78.2894 16.3163 78.3155 16.4135C78.3416 16.5108 78.3789 16.6113 78.4272 16.7152C78.4779 16.8211 78.544 16.9299 78.6256 17.0416C78.7091 17.151 78.8152 17.2594 78.944 17.3669C79.1056 17.5017 79.2681 17.5996 79.4317 17.6606C79.5953 17.7216 79.7536 17.7485 79.9067 17.7412C80.064 17.7335 80.213 17.6929 80.3537 17.6196C80.4943 17.5463 80.6222 17.4405 80.7375 17.3024C80.8645 17.1502 80.9329 16.9968 80.9428 16.8421C80.9569 16.6871 80.9352 16.53 80.8775 16.3706C80.8198 16.2113 80.7369 16.0488 80.6288 15.8831C80.5227 15.7152 80.4143 15.5452 80.3035 15.3734C80.1947 15.1991 80.094 15.0198 80.0016 14.8355C79.9092 14.6511 79.8488 14.4617 79.8204 14.2672C79.792 14.0727 79.8052 13.8713 79.86 13.6628C79.9191 13.4539 80.0415 13.2382 80.2271 13.0158C80.3756 12.8378 80.5531 12.694 80.7598 12.5844C80.9687 12.4768 81.1925 12.4133 81.4311 12.3939C81.672 12.3765 81.9208 12.4093 82.1772 12.4922C82.4361 12.5771 82.6908 12.7241 82.9413 12.9331C83.2223 13.1676 83.4405 13.425 83.5957 13.7055C83.7533 13.9879 83.8495 14.2867 83.8845 14.6018L83.4498 14.7872Z" fill="black"/>
<path d="M90.018 19.7501L90.4102 20.2506L83.6338 25.5612L83.2416 25.0607L90.018 19.7501Z" fill="black"/>
<path d="M95.4036 31.5334C95.3505 31.5288 95.3056 31.5168 95.2689 31.4973C95.2364 31.4793 95.2101 31.4497 95.19 31.4086C95.1673 31.362 95.1638 31.2958 95.1796 31.21C95.1955 31.1242 95.2074 31.02 95.2154 30.8973C95.2275 30.7761 95.224 30.6369 95.2051 30.4799C95.1875 30.3256 95.1325 30.1539 95.0402 29.9648C94.9533 29.7866 94.8517 29.641 94.7355 29.5281C94.6234 29.4165 94.5035 29.3342 94.3758 29.2811C94.2494 29.2308 94.1187 29.2098 93.9836 29.218C93.8512 29.2249 93.7206 29.2598 93.5918 29.3227C93.4273 29.4029 93.3097 29.5096 93.2388 29.6425C93.1721 29.7769 93.1324 29.9286 93.1199 30.0976C93.1087 30.2694 93.1151 30.4529 93.1391 30.6482C93.1672 30.8449 93.1939 31.0456 93.2192 31.2505C93.2459 31.458 93.2616 31.6641 93.2665 31.8688C93.2754 32.0748 93.2544 32.2717 93.2035 32.4594C93.1539 32.6499 93.0649 32.8257 92.9365 32.9868C92.8095 33.1506 92.624 33.292 92.3801 33.411C92.1224 33.5368 91.8585 33.6113 91.5882 33.6346C91.3206 33.6566 91.0618 33.6234 90.8117 33.535C90.5629 33.4495 90.3304 33.3067 90.1141 33.1069C89.8991 32.9097 89.7154 32.655 89.5629 32.3425C89.3756 31.9588 89.2743 31.5773 89.2589 31.198C89.2462 30.8173 89.3035 30.4585 89.4309 30.1214L89.9214 30.1671C89.9623 30.1743 89.9997 30.1883 90.0336 30.2091C90.0715 30.2313 90.0999 30.2615 90.1186 30.2999C90.136 30.3355 90.1403 30.3826 90.1316 30.4412C90.1269 30.5012 90.1167 30.5706 90.1009 30.6496C90.0852 30.7285 90.0693 30.8177 90.0533 30.9171C90.0374 31.0166 90.0302 31.1236 90.0318 31.2381C90.0348 31.3555 90.0506 31.4818 90.0793 31.6171C90.1108 31.7511 90.1633 31.8934 90.2368 32.0442C90.3291 32.2333 90.4374 32.3891 90.5617 32.5117C90.686 32.6343 90.8195 32.7236 90.9622 32.7795C91.1089 32.8368 91.2615 32.8608 91.4198 32.8514C91.5781 32.842 91.7381 32.7979 91.8998 32.719C92.0779 32.632 92.2031 32.52 92.2754 32.383C92.3517 32.2473 92.3961 32.095 92.4087 31.926C92.4212 31.757 92.4121 31.5748 92.3812 31.3795C92.3531 31.1828 92.3237 30.9834 92.2929 30.7812C92.2648 30.5777 92.2463 30.3729 92.2374 30.1669C92.2285 29.9608 92.2509 29.7633 92.3045 29.5742C92.3582 29.3851 92.4526 29.2067 92.5879 29.0389C92.7273 28.8724 92.9271 28.7257 93.1875 28.5986C93.3958 28.497 93.6167 28.4384 93.85 28.4229C94.0848 28.4102 94.3149 28.4438 94.5406 28.5237C94.7676 28.6064 94.9811 28.738 95.1813 28.9186C95.3827 29.1019 95.555 29.3403 95.6981 29.6335C95.8586 29.9624 95.9523 30.2866 95.9793 30.606C96.0075 30.9282 95.9732 31.2402 95.8761 31.542L95.4036 31.5334Z" fill="black"/>
<path d="M97.0176 45.5671C96.537 45.6677 96.0793 45.6841 95.6445 45.6163C95.2126 45.5478 94.8228 45.4051 94.4752 45.1881C94.1275 44.9711 93.8321 44.684 93.589 44.3267C93.3496 43.9718 93.1805 43.5585 93.0817 43.0869C92.9829 42.6153 92.972 42.1689 93.049 41.7477C93.1289 41.3259 93.2846 40.9459 93.516 40.6076C93.7474 40.2694 94.0472 39.9823 94.4153 39.7463C94.7864 39.5097 95.2122 39.341 95.6928 39.2404C96.1734 39.1398 96.6296 39.1237 97.0615 39.1922C97.4963 39.26 97.8876 39.4024 98.2353 39.6194C98.5859 39.8357 98.8825 40.1211 99.1249 40.4754C99.3674 40.8297 99.538 41.2426 99.6367 41.7142C99.7355 42.1859 99.7449 42.6326 99.665 43.0544C99.5857 43.4792 99.4288 43.861 99.1944 44.1999C98.963 44.5381 98.6618 44.8255 98.2907 45.0621C97.9226 45.2981 97.4982 45.4665 97.0176 45.5671ZM96.8311 44.6761C97.2251 44.5936 97.5676 44.4658 97.8585 44.2927C98.1494 44.1196 98.3817 43.912 98.5554 43.67C98.732 43.4274 98.8492 43.1536 98.9068 42.8486C98.9645 42.5436 98.957 42.218 98.8845 41.8718C98.8126 41.5285 98.6891 41.2287 98.514 40.9725C98.3388 40.7163 98.1213 40.511 97.8615 40.3567C97.6053 40.2047 97.3093 40.1077 96.9734 40.0659C96.6374 40.0241 96.2725 40.0444 95.8784 40.1269C95.4844 40.2094 95.142 40.3372 94.851 40.5103C94.5631 40.6828 94.3308 40.8904 94.1542 41.133C93.9811 41.378 93.8658 41.653 93.8081 41.958C93.7534 42.2623 93.762 42.5861 93.8339 42.9294C93.9064 43.2756 94.0288 43.5772 94.201 43.834C94.3761 44.0902 94.5918 44.2943 94.848 44.4463C95.1071 44.5977 95.4032 44.6946 95.7361 44.7371C96.0721 44.7789 96.437 44.7586 96.8311 44.6761Z" fill="black"/>
<path d="M94.5009 55.5106L93.7558 55.4839L93.8892 51.7671L100.44 52.0024L100.409 52.8847L94.6027 52.6762L94.5009 55.5106Z" fill="black"/>
<path d="M94.1285 65.2887L96.9727 65.0015C97.0573 64.9931 97.154 64.9864 97.2628 64.9815C97.3747 64.9773 97.492 64.9763 97.6147 64.9783C97.3934 64.8512 97.2122 64.7336 97.0712 64.6253L94.7758 62.9285L94.1285 65.2887ZM91.2926 66.4273L91.4741 65.7656C91.4951 65.6891 91.5312 65.6326 91.5823 65.596C91.6334 65.5594 91.6916 65.5374 91.7569 65.5301L93.4455 65.3575L94.2235 62.5208L92.8592 61.511C92.8111 61.4788 92.7733 61.4321 92.7459 61.3708C92.7184 61.3095 92.7148 61.2421 92.7349 61.1686L92.9164 60.5068L98.5451 64.7686L98.3079 65.6333L91.2926 66.4273Z" fill="black"/>
<path d="M91.0831 74.4051C90.958 74.6287 90.8745 74.8405 90.8324 75.0407C90.7915 75.2449 90.7883 75.4318 90.8228 75.6014C90.8584 75.7751 90.929 75.9299 91.0347 76.0659C91.1404 76.2018 91.277 76.3167 91.4447 76.4105C91.7854 76.6011 92.1048 76.633 92.4028 76.5062C92.7009 76.3794 92.975 76.0924 93.2251 75.6452L93.6986 74.7988L91.5387 73.5907L91.0831 74.4051ZM86.6542 75.3977L87.0384 74.711C87.1173 74.57 87.2299 74.4967 87.3763 74.4912L90.2512 74.1494C90.3403 74.1399 90.4131 74.116 90.4695 74.0776C90.5271 74.0434 90.5864 73.9718 90.6474 73.8626L90.9757 73.2758L88.5882 71.9403L89.0193 71.1697L94.7404 74.37L93.836 75.9869C93.6335 76.3489 93.4213 76.6408 93.1994 76.8626C92.9801 77.0859 92.7536 77.244 92.5199 77.337C92.2848 77.4325 92.0456 77.4665 91.8025 77.4388C91.5621 77.4127 91.3207 77.3318 91.0785 77.1964C90.8762 77.0832 90.7051 76.9456 90.5652 76.7834C90.4252 76.6213 90.319 76.4395 90.2464 76.2382C90.175 76.041 90.1392 75.827 90.139 75.5963C90.1373 75.3682 90.1729 75.1295 90.2459 74.8803C90.1349 74.9475 90.0061 74.9873 89.8594 74.9996L86.6542 75.3977Z" fill="black"/>
<path d="M84.8341 86.1068C84.8192 86.0555 84.8142 86.0093 84.8191 85.9681C84.8242 85.9313 84.8422 85.896 84.8733 85.8625C84.9085 85.8244 84.969 85.7973 85.0547 85.7811C85.1404 85.7648 85.2419 85.7383 85.3592 85.7014C85.4766 85.6688 85.6051 85.6154 85.7447 85.5409C85.8822 85.4688 86.0225 85.3555 86.1654 85.2011C86.3001 85.0557 86.3992 84.9083 86.4625 84.7592C86.526 84.6143 86.5594 84.4727 86.5627 84.3345C86.564 84.1985 86.5364 84.069 86.4799 83.946C86.4256 83.8251 86.3459 83.7159 86.2407 83.6185C86.1064 83.4942 85.9645 83.423 85.8149 83.405C85.6655 83.3913 85.5097 83.4091 85.3476 83.4585C85.1834 83.5101 85.0146 83.5824 84.8412 83.6754C84.668 83.7727 84.4904 83.8701 84.3086 83.9678C84.1247 84.0676 83.9382 84.1568 83.7491 84.2352C83.5602 84.318 83.3691 84.3696 83.1756 84.39C82.9801 84.4126 82.784 84.3931 82.5875 84.3316C82.3888 84.2723 82.1899 84.1505 81.9908 83.966C81.7804 83.7712 81.6156 83.552 81.4961 83.3084C81.379 83.0669 81.3164 82.8136 81.3084 82.5484C81.2983 82.2856 81.3473 82.0172 81.4555 81.7432C81.5617 81.4716 81.7328 81.2082 81.9691 80.9531C82.2592 80.6398 82.5783 80.4075 82.9264 80.256C83.2768 80.1066 83.6321 80.0304 83.9924 80.0274L84.1271 80.5013C84.1351 80.542 84.1356 80.5819 84.1284 80.621C84.1215 80.6645 84.1035 80.7018 84.0745 80.7332C84.0475 80.7622 84.0052 80.7833 83.9474 80.7963C83.8898 80.8136 83.8213 80.8292 83.742 80.843C83.6627 80.8569 83.5738 80.8743 83.4753 80.8953C83.3769 80.9164 83.2745 80.9484 83.1683 80.9913C83.0599 81.0364 82.9479 81.0968 82.8321 81.1725C82.7185 81.2502 82.6048 81.3506 82.4908 81.4737C82.3478 81.6281 82.2416 81.7854 82.1722 81.9456C82.1028 82.1058 82.0678 82.2625 82.0672 82.4157C82.0668 82.5733 82.0996 82.7242 82.1655 82.8684C82.2315 83.0126 82.3305 83.1459 82.4625 83.2681C82.6079 83.4028 82.7576 83.4791 82.9115 83.4969C83.0656 83.5191 83.2237 83.5055 83.3858 83.4561C83.5479 83.4067 83.7145 83.3323 83.8855 83.233C84.0587 83.1357 84.234 83.0362 84.4114 82.9344C84.591 82.8347 84.7753 82.7435 84.9641 82.6607C85.153 82.5779 85.3453 82.5274 85.541 82.5091C85.7367 82.4908 85.9372 82.5144 86.1426 82.5799C86.3481 82.6497 86.5572 82.7831 86.7698 82.9799C86.9398 83.1374 87.0742 83.3222 87.173 83.5342C87.2697 83.7484 87.3215 83.9752 87.3286 84.2145C87.3335 84.456 87.2879 84.7027 87.1919 84.9546C87.0937 85.2087 86.9338 85.4554 86.712 85.6948C86.4634 85.9633 86.195 86.1679 85.9069 86.3084C85.6167 86.4512 85.3133 86.5319 84.9968 86.5505L84.8341 86.1068Z" fill="black"/>
<path d="M74.982 90.1806L73.536 88.0053L74.275 87.514L75.7211 89.6893L79.9042 91.6436L79.2565 92.0742C79.1905 92.1181 79.1275 92.1362 79.0674 92.1285C79.0091 92.1233 78.949 92.1046 78.8873 92.0724L76.2272 90.7811C76.1223 90.7226 76.0247 90.6666 75.9343 90.6132C75.8456 90.5624 75.761 90.5068 75.6808 90.4467C75.7052 90.544 75.7249 90.6426 75.74 90.7424C75.7568 90.8448 75.7731 90.9547 75.789 91.0723L75.9539 94.0224C75.9597 94.0808 75.9542 94.1413 75.9372 94.2038C75.9202 94.2664 75.8799 94.3188 75.8164 94.361L75.165 94.7941L74.982 90.1806Z" fill="black"/>
<path d="M65.0428 98.0216C65.0529 97.9692 65.0695 97.9258 65.0927 97.8914C65.114 97.8609 65.1462 97.8378 65.1891 97.8221C65.2378 97.8044 65.304 97.8078 65.3877 97.8325C65.4714 97.8572 65.5738 97.8799 65.6949 97.9006C65.8143 97.9253 65.9531 97.9364 66.1112 97.9339C66.2665 97.9325 66.443 97.8957 66.6407 97.8236C66.8269 97.7557 66.9823 97.6699 67.1068 97.5661C67.2294 97.4662 67.3237 97.3555 67.3898 97.234C67.453 97.1136 67.4876 96.9857 67.4935 96.8505C67.5004 96.7181 67.4793 96.5846 67.4302 96.4499C67.3675 96.278 67.2737 96.1499 67.1488 96.0656C67.0221 95.9852 66.8754 95.93 66.7086 95.8999C66.539 95.8708 66.3558 95.8581 66.1591 95.8617C65.9605 95.8691 65.7581 95.8748 65.5517 95.8786C65.3425 95.8835 65.1359 95.8776 64.9319 95.8611C64.726 95.8485 64.5324 95.8072 64.351 95.737C64.1667 95.6678 64.0011 95.561 63.8543 95.4165C63.7046 95.2731 63.5833 95.0739 63.4903 94.8188C63.3921 94.5495 63.3455 94.2792 63.3505 94.008C63.3565 93.7396 63.4165 93.4856 63.5304 93.2461C63.6415 93.0076 63.8077 92.7912 64.029 92.5969C64.2474 92.4036 64.5199 92.2474 64.8466 92.1283C65.2477 91.9821 65.6377 91.9211 66.0166 91.9452C66.3965 91.9723 66.7474 92.0667 67.0693 92.2284L66.9728 92.7116C66.9614 92.7515 66.9436 92.7872 66.9194 92.8187C66.8933 92.8542 66.8603 92.8792 66.8202 92.8939C66.7829 92.9074 66.7356 92.9068 66.6783 92.892C66.6191 92.8811 66.5511 92.8637 66.4742 92.8398C66.3973 92.8159 66.3103 92.7909 66.2131 92.7646C66.1159 92.7384 66.0102 92.7201 65.8961 92.7098C65.7791 92.7005 65.6518 92.7031 65.5142 92.7176C65.3777 92.7349 65.2307 92.7723 65.0731 92.8297C64.8754 92.9018 64.7091 92.9933 64.5742 93.1041C64.4394 93.215 64.3367 93.3384 64.2662 93.4745C64.1939 93.6145 64.1541 93.7637 64.147 93.9221C64.1398 94.0805 64.167 94.2443 64.2287 94.4133C64.2966 94.5996 64.3949 94.7357 64.5237 94.8219C64.6507 94.9119 64.7976 94.972 64.9643 95.0021C65.1311 95.0321 65.3133 95.042 65.5107 95.0317C65.7093 95.0242 65.9107 95.0157 66.115 95.0062C66.3203 94.9995 66.5259 95.0024 66.7317 95.015C66.9376 95.0276 67.1317 95.0704 67.3142 95.1435C67.4966 95.2165 67.6642 95.3291 67.8171 95.4811C67.9681 95.6371 68.0932 95.8511 68.1924 96.1233C68.2718 96.3411 68.3071 96.5668 68.2981 96.8006C68.2864 97.0353 68.229 97.2608 68.126 97.4769C68.0201 97.694 67.8669 97.8927 67.6665 98.0729C67.4631 98.2541 67.2082 98.4007 66.9016 98.5124C66.5578 98.6378 66.2256 98.6972 65.9051 98.6907C65.5818 98.6853 65.275 98.6186 64.9849 98.4906L65.0428 98.0216Z" fill="black"/>
<path d="M57.4534 101.212L56.8237 101.3L55.6316 92.7732L56.2613 92.6852L57.4534 101.212Z" fill="black"/>
</svg>
