<svg width="29" height="8" viewBox="0 0 29 8" fill="none" xmlns="http://www.w3.org/2000/svg">
<path d="M5.69621 2.61987C7.34857 2.61987 8.16111 3.40448 8.16111 4.75222V7.49446H7.1732V4.75222C7.1732 3.9858 6.73024 3.56102 5.70531 3.56102H4.56087V7.49381H3.57296V3.56166H1.09832C1.01519 3.56166 0.978164 3.60778 0.978164 3.70001V7.49446H0V3.3772C0 2.80498 0.194204 2.61987 0.683286 2.61987H5.69621Z" fill="white"/>
<path d="M12.3629 0.782227V1.91822H11.375V0.782227H12.3629ZM12.3538 2.61969V7.49428H11.375V2.61969H12.3538Z" fill="white"/>
<path d="M16.582 0.505615V2.61977H18.2993C19.9425 2.61977 20.7551 3.41348 20.7551 4.75212V7.49436H19.7672V4.75212C19.7672 4.00453 19.3145 3.56092 18.2993 3.56092H16.582V7.49371H15.6031V0.505615H16.582Z" fill="white"/>
<path d="M26.8859 2.61987C28.1784 2.61987 29.0001 3.41358 29.0001 5.05684C29.0001 6.7001 28.1784 7.49446 26.8859 7.49446H25.861C24.5594 7.49446 23.7468 6.70075 23.7468 5.05684C23.7468 3.41293 24.5594 2.61987 25.861 2.61987H26.8859ZM25.9532 3.56166C25.1037 3.56166 24.7347 4.00463 24.7347 5.05749C24.7347 6.11035 25.1043 6.54357 25.9532 6.54357H26.793C27.6335 6.54357 28.0115 6.1097 28.0115 5.05749C28.0115 4.00528 27.6329 3.56166 26.793 3.56166H25.9532Z" fill="white"/>
</svg>
