<svg width="303" height="209" viewBox="0 0 303 209" fill="none" xmlns="http://www.w3.org/2000/svg">
<path d="M1.30292 133.277C39.6114 88.4633 149.852 9.58096 284.346 52.5589" stroke="#B8BCC9" stroke-dasharray="6 6"/>
<path d="M99.1766 207.166C113.739 173.174 185.39 90.3022 302.37 90.8329" stroke="#B8BCC9" stroke-dasharray="6 6"/>
<path d="M14.856 153.306C94.6468 127.732 200.129 118.061 274.743 177.038" stroke="#B8BCC9" stroke-dasharray="6 6"/>
<path d="M21.5896 63.1445C132.907 81.581 200.429 155.964 204.222 207.878" stroke="#B8BCC9" stroke-dasharray="6 6"/>
<path d="M92.7197 8.70507C189.598 21.0935 259.156 53.8418 301.294 131.416" stroke="#B8BCC9" stroke-dasharray="6 6"/>
<ellipse cx="176.135" cy="141.913" rx="38.4377" ry="39.0264" fill="#C0D369"/>
<ellipse cx="214.849" cy="39.0264" rx="38.4377" ry="39.0264" fill="#706ACC"/>
<ellipse cx="90.9631" cy="75.5681" rx="38.4377" ry="39.0264" fill="#DBDBDB"/>
<path d="M149.905 139.753H147.725V145.878H146.38V139.753H144.2V138.648H149.905V139.753ZM152.201 139.718V141.723H154.731V142.758H152.201V144.803H155.411V145.878H150.851V138.648H155.411V139.718H152.201ZM161.411 144.173C161.485 144.173 161.55 144.201 161.606 144.258L162.136 144.833C161.843 145.196 161.481 145.474 161.051 145.668C160.625 145.861 160.111 145.958 159.511 145.958C158.975 145.958 158.491 145.866 158.061 145.683C157.635 145.499 157.27 145.244 156.966 144.918C156.663 144.591 156.43 144.201 156.266 143.748C156.106 143.294 156.026 142.799 156.026 142.263C156.026 141.719 156.113 141.223 156.286 140.773C156.46 140.319 156.703 139.929 157.016 139.603C157.333 139.276 157.71 139.023 158.146 138.843C158.583 138.659 159.066 138.568 159.596 138.568C160.123 138.568 160.59 138.654 160.996 138.828C161.406 139.001 161.755 139.228 162.041 139.508L161.591 140.133C161.565 140.173 161.53 140.208 161.486 140.238C161.446 140.268 161.39 140.283 161.316 140.283C161.266 140.283 161.215 140.269 161.161 140.243C161.108 140.213 161.05 140.178 160.986 140.138C160.923 140.094 160.85 140.048 160.766 139.998C160.683 139.948 160.586 139.903 160.476 139.863C160.366 139.819 160.238 139.784 160.091 139.758C159.948 139.728 159.781 139.713 159.591 139.713C159.268 139.713 158.971 139.771 158.701 139.888C158.435 140.001 158.205 140.168 158.011 140.388C157.818 140.604 157.668 140.871 157.561 141.188C157.455 141.501 157.401 141.859 157.401 142.263C157.401 142.669 157.458 143.031 157.571 143.348C157.688 143.664 157.845 143.931 158.041 144.148C158.238 144.364 158.47 144.531 158.736 144.648C159.003 144.761 159.29 144.818 159.596 144.818C159.78 144.818 159.945 144.808 160.091 144.788C160.241 144.768 160.378 144.736 160.501 144.693C160.628 144.649 160.746 144.594 160.856 144.528C160.97 144.458 161.081 144.373 161.191 144.273C161.225 144.243 161.26 144.219 161.296 144.203C161.333 144.183 161.371 144.173 161.411 144.173ZM169.153 138.648V145.878H168.463C168.356 145.878 168.266 145.861 168.193 145.828C168.123 145.791 168.054 145.731 167.988 145.648L164.213 140.828C164.233 141.048 164.243 141.251 164.243 141.438V145.878H163.058V138.648H163.763C163.819 138.648 163.868 138.651 163.908 138.658C163.951 138.661 163.988 138.671 164.018 138.688C164.051 138.701 164.083 138.723 164.113 138.753C164.143 138.779 164.176 138.816 164.213 138.863L168.003 143.703C167.993 143.586 167.984 143.471 167.978 143.358C167.971 143.244 167.968 143.139 167.968 143.043V138.648H169.153ZM177.658 142.263C177.658 142.793 177.569 143.284 177.393 143.738C177.219 144.188 176.973 144.578 176.653 144.908C176.333 145.238 175.948 145.496 175.498 145.683C175.048 145.866 174.548 145.958 173.998 145.958C173.451 145.958 172.953 145.866 172.503 145.683C172.053 145.496 171.666 145.238 171.343 144.908C171.023 144.578 170.774 144.188 170.598 143.738C170.421 143.284 170.333 142.793 170.333 142.263C170.333 141.733 170.421 141.243 170.598 140.793C170.774 140.339 171.023 139.948 171.343 139.618C171.666 139.288 172.053 139.031 172.503 138.848C172.953 138.661 173.451 138.568 173.998 138.568C174.364 138.568 174.709 138.611 175.033 138.698C175.356 138.781 175.653 138.901 175.923 139.058C176.193 139.211 176.434 139.399 176.648 139.623C176.864 139.843 177.048 140.089 177.198 140.363C177.348 140.636 177.461 140.933 177.538 141.253C177.618 141.573 177.658 141.909 177.658 142.263ZM176.283 142.263C176.283 141.866 176.229 141.511 176.123 141.198C176.016 140.881 175.864 140.613 175.668 140.393C175.471 140.173 175.231 140.004 174.948 139.888C174.668 139.771 174.351 139.713 173.998 139.713C173.644 139.713 173.326 139.771 173.043 139.888C172.763 140.004 172.523 140.173 172.323 140.393C172.126 140.613 171.974 140.881 171.868 141.198C171.761 141.511 171.708 141.866 171.708 142.263C171.708 142.659 171.761 143.016 171.868 143.333C171.974 143.646 172.126 143.913 172.323 144.133C172.523 144.349 172.763 144.516 173.043 144.633C173.326 144.749 173.644 144.808 173.998 144.808C174.351 144.808 174.668 144.749 174.948 144.633C175.231 144.516 175.471 144.349 175.668 144.133C175.864 143.913 176.016 143.646 176.123 143.333C176.229 143.016 176.283 142.659 176.283 142.263ZM183.074 144.768V145.878H178.839V138.648H180.184V144.768H183.074ZM190.675 142.263C190.675 142.793 190.587 143.284 190.41 143.738C190.237 144.188 189.99 144.578 189.67 144.908C189.35 145.238 188.965 145.496 188.515 145.683C188.065 145.866 187.565 145.958 187.015 145.958C186.469 145.958 185.97 145.866 185.52 145.683C185.07 145.496 184.684 145.238 184.36 144.908C184.04 144.578 183.792 144.188 183.615 143.738C183.439 143.284 183.35 142.793 183.35 142.263C183.35 141.733 183.439 141.243 183.615 140.793C183.792 140.339 184.04 139.948 184.36 139.618C184.684 139.288 185.07 139.031 185.52 138.848C185.97 138.661 186.469 138.568 187.015 138.568C187.382 138.568 187.727 138.611 188.05 138.698C188.374 138.781 188.67 138.901 188.94 139.058C189.21 139.211 189.452 139.399 189.665 139.623C189.882 139.843 190.065 140.089 190.215 140.363C190.365 140.636 190.479 140.933 190.555 141.253C190.635 141.573 190.675 141.909 190.675 142.263ZM189.3 142.263C189.3 141.866 189.247 141.511 189.14 141.198C189.034 140.881 188.882 140.613 188.685 140.393C188.489 140.173 188.249 140.004 187.965 139.888C187.685 139.771 187.369 139.713 187.015 139.713C186.662 139.713 186.344 139.771 186.06 139.888C185.78 140.004 185.54 140.173 185.34 140.393C185.144 140.613 184.992 140.881 184.885 141.198C184.779 141.511 184.725 141.866 184.725 142.263C184.725 142.659 184.779 143.016 184.885 143.333C184.992 143.646 185.144 143.913 185.34 144.133C185.54 144.349 185.78 144.516 186.06 144.633C186.344 144.749 186.662 144.808 187.015 144.808C187.369 144.808 187.685 144.749 187.965 144.633C188.249 144.516 188.489 144.349 188.685 144.133C188.882 143.913 189.034 143.646 189.14 143.333C189.247 143.016 189.3 142.659 189.3 142.263ZM197.817 142.253V145.178C197.45 145.448 197.058 145.646 196.642 145.773C196.228 145.896 195.785 145.958 195.312 145.958C194.722 145.958 194.187 145.866 193.707 145.683C193.23 145.499 192.822 145.244 192.482 144.918C192.145 144.591 191.885 144.201 191.702 143.748C191.518 143.294 191.427 142.799 191.427 142.263C191.427 141.719 191.515 141.221 191.692 140.768C191.868 140.314 192.118 139.924 192.442 139.598C192.768 139.271 193.163 139.018 193.627 138.838C194.09 138.658 194.61 138.568 195.187 138.568C195.48 138.568 195.753 138.591 196.007 138.638C196.263 138.684 196.5 138.749 196.717 138.833C196.937 138.913 197.137 139.011 197.317 139.128C197.497 139.244 197.662 139.373 197.812 139.513L197.427 140.123C197.367 140.219 197.288 140.279 197.192 140.303C197.095 140.323 196.99 140.298 196.877 140.228C196.767 140.164 196.657 140.101 196.547 140.038C196.437 139.974 196.313 139.919 196.177 139.873C196.043 139.826 195.892 139.788 195.722 139.758C195.555 139.728 195.362 139.713 195.142 139.713C194.785 139.713 194.462 139.773 194.172 139.893C193.885 140.013 193.64 140.184 193.437 140.408C193.233 140.631 193.077 140.899 192.967 141.213C192.857 141.526 192.802 141.876 192.802 142.263C192.802 142.676 192.86 143.046 192.977 143.373C193.097 143.696 193.263 143.971 193.477 144.198C193.693 144.421 193.953 144.593 194.257 144.713C194.56 144.829 194.898 144.888 195.272 144.888C195.538 144.888 195.777 144.859 195.987 144.803C196.197 144.746 196.402 144.669 196.602 144.573V143.263H195.692C195.605 143.263 195.537 143.239 195.487 143.193C195.44 143.143 195.417 143.083 195.417 143.013V142.253H197.817ZM200.462 145.878H199.112V138.648H200.462V145.878ZM205.901 143.148L205.021 140.743C204.978 140.636 204.933 140.509 204.886 140.363C204.839 140.216 204.793 140.058 204.746 139.888C204.703 140.058 204.658 140.218 204.611 140.368C204.564 140.514 204.519 140.643 204.476 140.753L203.601 143.148H205.901ZM208.276 145.878H207.236C207.119 145.878 207.024 145.849 206.951 145.793C206.878 145.733 206.823 145.659 206.786 145.573L206.246 144.098H203.251L202.711 145.573C202.684 145.649 202.633 145.719 202.556 145.783C202.479 145.846 202.384 145.878 202.271 145.878H201.221L204.066 138.648H205.436L208.276 145.878Z" fill="#6F7481"/>
<path d="M190.49 42.991H189.14V35.761H190.49V42.991ZM198.204 35.761V42.991H197.514C197.407 42.991 197.317 42.9743 197.244 42.941C197.174 42.9043 197.105 42.8443 197.039 42.761L193.264 37.941C193.284 38.161 193.294 38.3643 193.294 38.551V42.991H192.109V35.761H192.814C192.87 35.761 192.919 35.7643 192.959 35.771C193.002 35.7743 193.039 35.7843 193.069 35.801C193.102 35.8143 193.134 35.836 193.164 35.866C193.194 35.8927 193.227 35.9293 193.264 35.976L197.054 40.816C197.044 40.6993 197.036 40.5843 197.029 40.471C197.022 40.3577 197.019 40.2527 197.019 40.156V35.761H198.204ZM206.709 39.376C206.709 39.906 206.621 40.3977 206.444 40.851C206.271 41.301 206.024 41.691 205.704 42.021C205.384 42.351 204.999 42.6093 204.549 42.796C204.099 42.9793 203.599 43.071 203.049 43.071C202.502 43.071 202.004 42.9793 201.554 42.796C201.104 42.6093 200.717 42.351 200.394 42.021C200.074 41.691 199.826 41.301 199.649 40.851C199.472 40.3977 199.384 39.906 199.384 39.376C199.384 38.846 199.472 38.356 199.649 37.906C199.826 37.4527 200.074 37.061 200.394 36.731C200.717 36.401 201.104 36.1443 201.554 35.961C202.004 35.7743 202.502 35.681 203.049 35.681C203.416 35.681 203.761 35.7243 204.084 35.811C204.407 35.8943 204.704 36.0143 204.974 36.171C205.244 36.3243 205.486 36.5127 205.699 36.736C205.916 36.956 206.099 37.2027 206.249 37.476C206.399 37.7493 206.512 38.046 206.589 38.366C206.669 38.686 206.709 39.0227 206.709 39.376ZM205.334 39.376C205.334 38.9793 205.281 38.6243 205.174 38.311C205.067 37.9943 204.916 37.726 204.719 37.506C204.522 37.286 204.282 37.1177 203.999 37.001C203.719 36.8843 203.402 36.826 203.049 36.826C202.696 36.826 202.377 36.8843 202.094 37.001C201.814 37.1177 201.574 37.286 201.374 37.506C201.177 37.726 201.026 37.9943 200.919 38.311C200.812 38.6243 200.759 38.9793 200.759 39.376C200.759 39.7727 200.812 40.1293 200.919 40.446C201.026 40.7593 201.177 41.026 201.374 41.246C201.574 41.4627 201.814 41.6293 202.094 41.746C202.377 41.8627 202.696 41.921 203.049 41.921C203.402 41.921 203.719 41.8627 203.999 41.746C204.282 41.6293 204.522 41.4627 204.719 41.246C204.916 41.026 205.067 40.7593 205.174 40.446C205.281 40.1293 205.334 39.7727 205.334 39.376ZM213.851 35.761L210.931 42.991H209.716L206.796 35.761H207.876C207.992 35.761 208.087 35.7893 208.161 35.846C208.234 35.9027 208.289 35.976 208.326 36.066L210.031 40.476C210.087 40.6193 210.141 40.7777 210.191 40.951C210.244 41.121 210.294 41.2993 210.341 41.486C210.381 41.2993 210.424 41.121 210.471 40.951C210.517 40.7777 210.569 40.6193 210.626 40.476L212.321 36.066C212.347 35.9893 212.399 35.9193 212.476 35.856C212.556 35.7927 212.652 35.761 212.766 35.761H213.851ZM217.843 40.261L216.963 37.856C216.92 37.7493 216.875 37.6227 216.828 37.476C216.781 37.3293 216.735 37.171 216.688 37.001C216.645 37.171 216.6 37.331 216.553 37.481C216.506 37.6277 216.461 37.756 216.418 37.866L215.543 40.261H217.843ZM220.218 42.991H219.178C219.061 42.991 218.966 42.9627 218.893 42.906C218.82 42.846 218.765 42.7727 218.728 42.686L218.188 41.211H215.193L214.653 42.686C214.626 42.7627 214.575 42.8327 214.498 42.896C214.421 42.9593 214.326 42.991 214.213 42.991H213.163L216.008 35.761H217.378L220.218 42.991ZM226.441 41.946C226.178 42.276 225.858 42.536 225.481 42.726C225.105 42.9127 224.66 43.0243 224.146 43.061L224.081 43.296C224.395 43.3693 224.615 43.4677 224.741 43.591C224.868 43.7177 224.931 43.8677 224.931 44.041C224.931 44.1543 224.901 44.256 224.841 44.346C224.785 44.436 224.701 44.5127 224.591 44.576C224.485 44.6393 224.356 44.6877 224.206 44.721C224.056 44.7543 223.891 44.771 223.711 44.771C223.575 44.771 223.446 44.761 223.326 44.741C223.21 44.7243 223.093 44.6977 222.976 44.661L223.091 44.276C223.111 44.1993 223.16 44.161 223.236 44.161C223.283 44.161 223.333 44.1727 223.386 44.196C223.443 44.2227 223.525 44.236 223.631 44.236C223.741 44.236 223.823 44.2143 223.876 44.171C223.933 44.131 223.961 44.081 223.961 44.021C223.961 43.9243 223.901 43.8543 223.781 43.811C223.661 43.771 223.476 43.7327 223.226 43.696L223.446 43.056C222.966 43.0127 222.533 42.8927 222.146 42.696C221.763 42.496 221.436 42.2343 221.166 41.911C220.896 41.5877 220.69 41.211 220.546 40.781C220.403 40.351 220.331 39.8827 220.331 39.376C220.331 38.8327 220.418 38.336 220.591 37.886C220.765 37.4327 221.008 37.0427 221.321 36.716C221.638 36.3893 222.015 36.136 222.451 35.956C222.888 35.7727 223.371 35.681 223.901 35.681C224.428 35.681 224.895 35.7677 225.301 35.941C225.711 36.1143 226.06 36.341 226.346 36.621L225.896 37.246C225.87 37.286 225.835 37.321 225.791 37.351C225.751 37.381 225.695 37.396 225.621 37.396C225.571 37.396 225.52 37.3827 225.466 37.356C225.413 37.326 225.355 37.291 225.291 37.251C225.228 37.2077 225.155 37.161 225.071 37.111C224.988 37.061 224.891 37.016 224.781 36.976C224.671 36.9327 224.543 36.8977 224.396 36.871C224.253 36.841 224.086 36.826 223.896 36.826C223.573 36.826 223.276 36.8843 223.006 37.001C222.74 37.1143 222.51 37.281 222.316 37.501C222.123 37.7177 221.973 37.9843 221.866 38.301C221.76 38.6143 221.706 38.9727 221.706 39.376C221.706 39.7827 221.763 40.1443 221.876 40.461C221.993 40.7777 222.15 41.0443 222.346 41.261C222.543 41.4777 222.775 41.6443 223.041 41.761C223.308 41.8743 223.595 41.931 223.901 41.931C224.085 41.931 224.25 41.921 224.396 41.901C224.546 41.881 224.683 41.8493 224.806 41.806C224.933 41.7627 225.051 41.7077 225.161 41.641C225.275 41.571 225.386 41.486 225.496 41.386C225.53 41.356 225.565 41.3327 225.601 41.316C225.638 41.296 225.676 41.286 225.716 41.286C225.79 41.286 225.855 41.3143 225.911 41.371L226.441 41.946ZM231.183 40.261L230.303 37.856C230.259 37.7493 230.214 37.6227 230.168 37.476C230.121 37.3293 230.074 37.171 230.028 37.001C229.984 37.171 229.939 37.331 229.893 37.481C229.846 37.6277 229.801 37.756 229.758 37.866L228.883 40.261H231.183ZM233.558 42.991H232.518C232.401 42.991 232.306 42.9627 232.233 42.906C232.159 42.846 232.104 42.7727 232.068 42.686L231.528 41.211H228.533L227.993 42.686C227.966 42.7627 227.914 42.8327 227.838 42.896C227.761 42.9593 227.666 42.991 227.553 42.991H226.503L229.348 35.761H230.718L233.558 42.991ZM230.653 34.496C230.726 34.496 230.789 34.481 230.843 34.451C230.899 34.421 230.944 34.3843 230.978 34.341C231.014 34.2943 231.041 34.2443 231.058 34.191C231.074 34.1343 231.083 34.0793 231.083 34.026H231.838C231.838 34.1927 231.814 34.3527 231.768 34.506C231.724 34.656 231.658 34.791 231.568 34.911C231.481 35.0277 231.373 35.121 231.243 35.191C231.116 35.261 230.969 35.296 230.803 35.296C230.633 35.296 230.484 35.2693 230.358 35.216C230.234 35.1627 230.121 35.106 230.018 35.046C229.914 34.9827 229.819 34.9243 229.733 34.871C229.649 34.8177 229.563 34.791 229.473 34.791C229.396 34.791 229.331 34.806 229.278 34.836C229.224 34.866 229.181 34.9043 229.148 34.951C229.114 34.9977 229.089 35.0493 229.073 35.106C229.056 35.1627 229.048 35.2177 229.048 35.271H228.283C228.283 35.1077 228.306 34.9493 228.353 34.796C228.399 34.6393 228.466 34.5027 228.553 34.386C228.643 34.266 228.751 34.171 228.878 34.101C229.008 34.0277 229.156 33.991 229.323 33.991C229.493 33.991 229.641 34.0177 229.768 34.071C229.894 34.1243 230.008 34.1827 230.108 34.246C230.208 34.306 230.301 34.3627 230.388 34.416C230.474 34.4693 230.563 34.496 230.653 34.496ZM240.986 39.376C240.986 39.906 240.898 40.3977 240.721 40.851C240.548 41.301 240.301 41.691 239.981 42.021C239.661 42.351 239.276 42.6093 238.826 42.796C238.376 42.9793 237.876 43.071 237.326 43.071C236.78 43.071 236.281 42.9793 235.831 42.796C235.381 42.6093 234.995 42.351 234.671 42.021C234.351 41.691 234.103 41.301 233.926 40.851C233.75 40.3977 233.661 39.906 233.661 39.376C233.661 38.846 233.75 38.356 233.926 37.906C234.103 37.4527 234.351 37.061 234.671 36.731C234.995 36.401 235.381 36.1443 235.831 35.961C236.281 35.7743 236.78 35.681 237.326 35.681C237.693 35.681 238.038 35.7243 238.361 35.811C238.685 35.8943 238.981 36.0143 239.251 36.171C239.521 36.3243 239.763 36.5127 239.976 36.736C240.193 36.956 240.376 37.2027 240.526 37.476C240.676 37.7493 240.79 38.046 240.866 38.366C240.946 38.686 240.986 39.0227 240.986 39.376ZM239.611 39.376C239.611 38.9793 239.558 38.6243 239.451 38.311C239.345 37.9943 239.193 37.726 238.996 37.506C238.8 37.286 238.56 37.1177 238.276 37.001C237.996 36.8843 237.68 36.826 237.326 36.826C236.973 36.826 236.655 36.8843 236.371 37.001C236.091 37.1177 235.851 37.286 235.651 37.506C235.455 37.726 235.303 37.9943 235.196 38.311C235.09 38.6243 235.036 38.9793 235.036 39.376C235.036 39.7727 235.09 40.1293 235.196 40.446C235.303 40.7593 235.455 41.026 235.651 41.246C235.851 41.4627 236.091 41.6293 236.371 41.746C236.655 41.8627 236.973 41.921 237.326 41.921C237.68 41.921 237.996 41.8627 238.276 41.746C238.56 41.6293 238.8 41.4627 238.996 41.246C239.193 41.026 239.345 40.7593 239.451 40.446C239.558 40.1293 239.611 39.7727 239.611 39.376Z" fill="#C0D369"/>
<path d="M78.4313 75.9077V78.8327C78.0646 79.1027 77.6729 79.301 77.2563 79.4277C76.8429 79.551 76.3996 79.6127 75.9263 79.6127C75.3363 79.6127 74.8013 79.521 74.3213 79.3377C73.8446 79.1544 73.4363 78.8994 73.0963 78.5727C72.7596 78.246 72.4996 77.856 72.3163 77.4027C72.1329 76.9494 72.0413 76.4544 72.0413 75.9177C72.0413 75.3744 72.1296 74.876 72.3063 74.4227C72.4829 73.9694 72.7329 73.5794 73.0563 73.2527C73.3829 72.926 73.7779 72.6727 74.2413 72.4927C74.7046 72.3127 75.2246 72.2227 75.8013 72.2227C76.0946 72.2227 76.3679 72.246 76.6213 72.2927C76.8779 72.3394 77.1146 72.4044 77.3313 72.4877C77.5513 72.5677 77.7513 72.666 77.9313 72.7827C78.1113 72.8994 78.2763 73.0277 78.4263 73.1677L78.0413 73.7777C77.9813 73.8744 77.9029 73.9344 77.8063 73.9577C77.7096 73.9777 77.6046 73.9527 77.4913 73.8827C77.3813 73.8194 77.2713 73.756 77.1613 73.6927C77.0513 73.6294 76.9279 73.5744 76.7913 73.5277C76.6579 73.481 76.5063 73.4427 76.3363 73.4127C76.1696 73.3827 75.9763 73.3677 75.7563 73.3677C75.3996 73.3677 75.0763 73.4277 74.7863 73.5477C74.4996 73.6677 74.2546 73.8394 74.0513 74.0627C73.8479 74.286 73.6913 74.5544 73.5813 74.8677C73.4713 75.181 73.4163 75.531 73.4163 75.9177C73.4163 76.331 73.4746 76.701 73.5913 77.0277C73.7113 77.351 73.8779 77.626 74.0913 77.8527C74.3079 78.076 74.5679 78.2477 74.8713 78.3677C75.1746 78.4844 75.5129 78.5427 75.8863 78.5427C76.1529 78.5427 76.3913 78.5144 76.6013 78.4577C76.8113 78.401 77.0163 78.3244 77.2163 78.2277V76.9177H76.3063C76.2196 76.9177 76.1513 76.8944 76.1013 76.8477C76.0546 76.7977 76.0313 76.7377 76.0313 76.6677V75.9077H78.4313ZM81.0771 73.3727V75.3777H83.6071V76.4127H81.0771V78.4577H84.2871V79.5327H79.7271V72.3027H84.2871V73.3727H81.0771ZM89.3291 73.6177C89.2891 73.6877 89.2457 73.7394 89.1991 73.7727C89.1557 73.8027 89.1007 73.8177 89.0341 73.8177C88.9641 73.8177 88.8874 73.7927 88.8041 73.7427C88.7241 73.6894 88.6274 73.631 88.5141 73.5677C88.4007 73.5044 88.2674 73.4477 88.1141 73.3977C87.9641 73.3444 87.7857 73.3177 87.5791 73.3177C87.3924 73.3177 87.2291 73.341 87.0891 73.3877C86.9491 73.431 86.8307 73.4927 86.7341 73.5727C86.6407 73.6527 86.5707 73.7494 86.5241 73.8627C86.4774 73.9727 86.4541 74.0944 86.4541 74.2277C86.4541 74.3977 86.5007 74.5394 86.5941 74.6527C86.6907 74.766 86.8174 74.8627 86.9741 74.9427C87.1307 75.0227 87.3091 75.0944 87.5091 75.1577C87.7091 75.221 87.9141 75.2894 88.1241 75.3627C88.3341 75.4327 88.5391 75.516 88.7391 75.6127C88.9391 75.706 89.1174 75.826 89.2741 75.9727C89.4307 76.116 89.5557 76.2927 89.6491 76.5027C89.7457 76.7127 89.7941 76.9677 89.7941 77.2677C89.7941 77.5944 89.7374 77.901 89.6241 78.1877C89.5141 78.471 89.3507 78.7194 89.1341 78.9327C88.9207 79.1427 88.6591 79.3094 88.3491 79.4327C88.0391 79.5527 87.6841 79.6127 87.2841 79.6127C87.0541 79.6127 86.8274 79.5894 86.6041 79.5427C86.3807 79.4994 86.1657 79.436 85.9591 79.3527C85.7557 79.2694 85.5641 79.1694 85.3841 79.0527C85.2041 78.936 85.0441 78.806 84.9041 78.6627L85.2991 78.0177C85.3324 77.971 85.3757 77.9327 85.4291 77.9027C85.4824 77.8694 85.5391 77.8527 85.5991 77.8527C85.6824 77.8527 85.7724 77.8877 85.8691 77.9577C85.9657 78.0244 86.0807 78.0994 86.2141 78.1827C86.3474 78.266 86.5024 78.3427 86.6791 78.4127C86.8591 78.4794 87.0741 78.5127 87.3241 78.5127C87.7074 78.5127 88.0041 78.4227 88.2141 78.2427C88.4241 78.0594 88.5291 77.7977 88.5291 77.4577C88.5291 77.2677 88.4807 77.1127 88.3841 76.9927C88.2907 76.8727 88.1657 76.7727 88.0091 76.6927C87.8524 76.6094 87.6741 76.5394 87.4741 76.4827C87.2741 76.426 87.0707 76.3644 86.8641 76.2977C86.6574 76.231 86.4541 76.151 86.2541 76.0577C86.0541 75.9644 85.8757 75.8427 85.7191 75.6927C85.5624 75.5427 85.4357 75.356 85.3391 75.1327C85.2457 74.906 85.1991 74.6277 85.1991 74.2977C85.1991 74.0344 85.2507 73.7777 85.3541 73.5277C85.4607 73.2777 85.6141 73.056 85.8141 72.8627C86.0141 72.6694 86.2607 72.5144 86.5541 72.3977C86.8474 72.281 87.1841 72.2227 87.5641 72.2227C87.9907 72.2227 88.3841 72.2894 88.7441 72.4227C89.1041 72.556 89.4107 72.7427 89.6641 72.9827L89.3291 73.6177ZM96.0174 73.4077H93.8374V79.5327H92.4924V73.4077H90.3124V72.3027H96.0174V73.4077ZM100.08 76.8027L99.2003 74.3977C99.157 74.291 99.112 74.1644 99.0653 74.0177C99.0187 73.871 98.972 73.7127 98.9253 73.5427C98.882 73.7127 98.837 73.8727 98.7903 74.0227C98.7437 74.1694 98.6987 74.2977 98.6553 74.4077L97.7803 76.8027H100.08ZM102.455 79.5327H101.415C101.299 79.5327 101.204 79.5044 101.13 79.4477C101.057 79.3877 101.002 79.3144 100.965 79.2277L100.425 77.7527H97.4303L96.8903 79.2277C96.8637 79.3044 96.812 79.3744 96.7353 79.4377C96.6587 79.501 96.5637 79.5327 96.4503 79.5327H95.4003L98.2453 72.3027H99.6153L102.455 79.5327ZM99.5503 71.0377C99.6237 71.0377 99.687 71.0227 99.7403 70.9927C99.797 70.9627 99.842 70.926 99.8753 70.8827C99.912 70.836 99.9387 70.786 99.9553 70.7327C99.972 70.676 99.9803 70.621 99.9803 70.5677H100.735C100.735 70.7344 100.712 70.8944 100.665 71.0477C100.622 71.1977 100.555 71.3327 100.465 71.4527C100.379 71.5694 100.27 71.6627 100.14 71.7327C100.014 71.8027 99.867 71.8377 99.7003 71.8377C99.5303 71.8377 99.382 71.811 99.2553 71.7577C99.132 71.7044 99.0187 71.6477 98.9153 71.5877C98.812 71.5244 98.717 71.466 98.6303 71.4127C98.547 71.3594 98.4603 71.3327 98.3703 71.3327C98.2937 71.3327 98.2287 71.3477 98.1753 71.3777C98.122 71.4077 98.0787 71.446 98.0453 71.4927C98.012 71.5394 97.987 71.591 97.9703 71.6477C97.9537 71.7044 97.9453 71.7594 97.9453 71.8127H97.1803C97.1803 71.6494 97.2037 71.491 97.2503 71.3377C97.297 71.181 97.3637 71.0444 97.4503 70.9277C97.5403 70.8077 97.6487 70.7127 97.7753 70.6427C97.9053 70.5694 98.0537 70.5327 98.2203 70.5327C98.3903 70.5327 98.5387 70.5594 98.6653 70.6127C98.792 70.666 98.9053 70.7244 99.0053 70.7877C99.1053 70.8477 99.1987 70.9044 99.2853 70.9577C99.372 71.011 99.4603 71.0377 99.5503 71.0377ZM109.884 75.9177C109.884 76.4477 109.796 76.9394 109.619 77.3927C109.446 77.8427 109.199 78.2327 108.879 78.5627C108.559 78.8927 108.174 79.151 107.724 79.3377C107.274 79.521 106.774 79.6127 106.224 79.6127C105.677 79.6127 105.179 79.521 104.729 79.3377C104.279 79.151 103.892 78.8927 103.569 78.5627C103.249 78.2327 103.001 77.8427 102.824 77.3927C102.647 76.9394 102.559 76.4477 102.559 75.9177C102.559 75.3877 102.647 74.8977 102.824 74.4477C103.001 73.9944 103.249 73.6027 103.569 73.2727C103.892 72.9427 104.279 72.686 104.729 72.5027C105.179 72.316 105.677 72.2227 106.224 72.2227C106.591 72.2227 106.936 72.266 107.259 72.3527C107.582 72.436 107.879 72.556 108.149 72.7127C108.419 72.866 108.661 73.0544 108.874 73.2777C109.091 73.4977 109.274 73.7444 109.424 74.0177C109.574 74.291 109.687 74.5877 109.764 74.9077C109.844 75.2277 109.884 75.5644 109.884 75.9177ZM108.509 75.9177C108.509 75.521 108.456 75.166 108.349 74.8527C108.242 74.536 108.091 74.2677 107.894 74.0477C107.697 73.8277 107.457 73.6594 107.174 73.5427C106.894 73.426 106.577 73.3677 106.224 73.3677C105.871 73.3677 105.552 73.426 105.269 73.5427C104.989 73.6594 104.749 73.8277 104.549 74.0477C104.352 74.2677 104.201 74.536 104.094 74.8527C103.987 75.166 103.934 75.521 103.934 75.9177C103.934 76.3144 103.987 76.671 104.094 76.9877C104.201 77.301 104.352 77.5677 104.549 77.7877C104.749 78.0044 104.989 78.171 105.269 78.2877C105.552 78.4044 105.871 78.4627 106.224 78.4627C106.577 78.4627 106.894 78.4044 107.174 78.2877C107.457 78.171 107.697 78.0044 107.894 77.7877C108.091 77.5677 108.242 77.301 108.349 76.9877C108.456 76.671 108.509 76.3144 108.509 75.9177Z" fill="#706ACC"/>
</svg>
