<svg width="528" height="365" viewBox="0 0 528 365" fill="none" xmlns="http://www.w3.org/2000/svg">
<path d="M1.53818 229.525C67.5119 152.349 257.364 16.5 488.985 90.5152" stroke="#B8BCC9" stroke-width="2" stroke-dasharray="6 6"/>
<path d="M170.093 356.775C195.172 298.235 318.568 155.516 520.027 156.43" stroke="#B8BCC9" stroke-width="2" stroke-dasharray="6 6"/>
<path d="M24.8793 264.019C162.293 219.976 343.951 203.322 472.449 304.89" stroke="#B8BCC9" stroke-width="2" stroke-dasharray="6 6"/>
<path d="M36.4756 108.745C228.183 140.496 344.467 268.596 351 358" stroke="#B8BCC9" stroke-width="2" stroke-dasharray="6 6"/>
<path d="M158.974 14.9917C325.814 36.3266 445.606 92.7247 518.174 226.321" stroke="#B8BCC9" stroke-width="2" stroke-dasharray="6 6"/>
<ellipse cx="302.628" cy="244.398" rx="66.1962" ry="67.21" fill="#C0D369"/>
<ellipse cx="369.3" cy="67.21" rx="66.1962" ry="67.21" fill="#706ACC"/>
<ellipse cx="155.949" cy="130.141" rx="66.1962" ry="67.21" fill="#DBDBDB"/>
<path d="M260.66 240.315H257.172V250.115H255.02V240.315H251.532V238.547H260.66V240.315ZM264.334 240.259V243.467H268.382V245.123H264.334V248.395H269.47V250.115H262.174V238.547H269.47V240.259H264.334ZM279.071 247.387C279.188 247.387 279.292 247.433 279.383 247.523L280.231 248.443C279.761 249.025 279.183 249.47 278.495 249.779C277.812 250.089 276.991 250.243 276.031 250.243C275.172 250.243 274.399 250.097 273.711 249.803C273.028 249.51 272.444 249.102 271.959 248.579C271.473 248.057 271.1 247.433 270.839 246.707C270.583 245.982 270.455 245.19 270.455 244.331C270.455 243.462 270.593 242.667 270.871 241.947C271.148 241.222 271.537 240.598 272.039 240.075C272.545 239.553 273.148 239.147 273.847 238.859C274.545 238.566 275.319 238.419 276.167 238.419C277.009 238.419 277.756 238.558 278.407 238.835C279.063 239.113 279.62 239.475 280.079 239.923L279.359 240.923C279.316 240.987 279.26 241.043 279.191 241.091C279.127 241.139 279.036 241.163 278.919 241.163C278.839 241.163 278.756 241.142 278.671 241.099C278.585 241.051 278.492 240.995 278.391 240.931C278.289 240.862 278.172 240.787 278.039 240.707C277.905 240.627 277.751 240.555 277.575 240.491C277.399 240.422 277.193 240.366 276.959 240.323C276.729 240.275 276.463 240.251 276.159 240.251C275.641 240.251 275.167 240.345 274.735 240.531C274.308 240.713 273.94 240.979 273.631 241.331C273.321 241.678 273.081 242.105 272.911 242.611C272.74 243.113 272.655 243.686 272.655 244.331C272.655 244.982 272.745 245.561 272.927 246.067C273.113 246.574 273.364 247.001 273.679 247.347C273.993 247.694 274.364 247.961 274.791 248.147C275.217 248.329 275.676 248.419 276.167 248.419C276.46 248.419 276.724 248.403 276.959 248.371C277.199 248.339 277.417 248.289 277.615 248.219C277.817 248.15 278.007 248.062 278.183 247.955C278.364 247.843 278.543 247.707 278.719 247.547C278.772 247.499 278.828 247.462 278.887 247.435C278.945 247.403 279.007 247.387 279.071 247.387ZM291.457 238.547V250.115H290.353C290.182 250.115 290.038 250.089 289.921 250.035C289.809 249.977 289.7 249.881 289.593 249.747L283.553 242.035C283.585 242.387 283.601 242.713 283.601 243.011V250.115H281.705V238.547H282.833C282.924 238.547 283.001 238.553 283.065 238.563C283.134 238.569 283.193 238.585 283.241 238.611C283.294 238.633 283.345 238.667 283.393 238.715C283.441 238.758 283.494 238.817 283.553 238.891L289.617 246.635C289.601 246.449 289.588 246.265 289.577 246.083C289.566 245.902 289.561 245.734 289.561 245.579V238.547H291.457ZM305.065 244.331C305.065 245.179 304.924 245.966 304.641 246.691C304.364 247.411 303.969 248.035 303.457 248.563C302.945 249.091 302.329 249.505 301.609 249.803C300.889 250.097 300.089 250.243 299.209 250.243C298.334 250.243 297.537 250.097 296.817 249.803C296.097 249.505 295.478 249.091 294.961 248.563C294.449 248.035 294.052 247.411 293.769 246.691C293.486 245.966 293.345 245.179 293.345 244.331C293.345 243.483 293.486 242.699 293.769 241.979C294.052 241.254 294.449 240.627 294.961 240.099C295.478 239.571 296.097 239.161 296.817 238.867C297.537 238.569 298.334 238.419 299.209 238.419C299.796 238.419 300.348 238.489 300.865 238.627C301.382 238.761 301.857 238.953 302.289 239.203C302.721 239.449 303.108 239.75 303.449 240.107C303.796 240.459 304.089 240.854 304.329 241.291C304.569 241.729 304.75 242.203 304.873 242.715C305.001 243.227 305.065 243.766 305.065 244.331ZM302.865 244.331C302.865 243.697 302.78 243.129 302.609 242.627C302.438 242.121 302.196 241.691 301.881 241.339C301.566 240.987 301.182 240.718 300.729 240.531C300.281 240.345 299.774 240.251 299.209 240.251C298.644 240.251 298.134 240.345 297.681 240.531C297.233 240.718 296.849 240.987 296.529 241.339C296.214 241.691 295.972 242.121 295.801 242.627C295.63 243.129 295.545 243.697 295.545 244.331C295.545 244.966 295.63 245.537 295.801 246.043C295.972 246.545 296.214 246.971 296.529 247.323C296.849 247.67 297.233 247.937 297.681 248.123C298.134 248.31 298.644 248.403 299.209 248.403C299.774 248.403 300.281 248.31 300.729 248.123C301.182 247.937 301.566 247.67 301.881 247.323C302.196 246.971 302.438 246.545 302.609 246.043C302.78 245.537 302.865 244.966 302.865 244.331ZM313.731 248.339V250.115H306.955V238.547H309.107V248.339H313.731ZM325.893 244.331C325.893 245.179 325.752 245.966 325.469 246.691C325.192 247.411 324.797 248.035 324.285 248.563C323.773 249.091 323.157 249.505 322.437 249.803C321.717 250.097 320.917 250.243 320.037 250.243C319.163 250.243 318.365 250.097 317.645 249.803C316.925 249.505 316.307 249.091 315.789 248.563C315.277 248.035 314.88 247.411 314.597 246.691C314.315 245.966 314.173 245.179 314.173 244.331C314.173 243.483 314.315 242.699 314.597 241.979C314.88 241.254 315.277 240.627 315.789 240.099C316.307 239.571 316.925 239.161 317.645 238.867C318.365 238.569 319.163 238.419 320.037 238.419C320.624 238.419 321.176 238.489 321.693 238.627C322.211 238.761 322.685 238.953 323.117 239.203C323.549 239.449 323.936 239.75 324.277 240.107C324.624 240.459 324.917 240.854 325.157 241.291C325.397 241.729 325.579 242.203 325.701 242.715C325.829 243.227 325.893 243.766 325.893 244.331ZM323.693 244.331C323.693 243.697 323.608 243.129 323.437 242.627C323.267 242.121 323.024 241.691 322.709 241.339C322.395 240.987 322.011 240.718 321.557 240.531C321.109 240.345 320.603 240.251 320.037 240.251C319.472 240.251 318.963 240.345 318.509 240.531C318.061 240.718 317.677 240.987 317.357 241.339C317.043 241.691 316.8 242.121 316.629 242.627C316.459 243.129 316.373 243.697 316.373 244.331C316.373 244.966 316.459 245.537 316.629 246.043C316.8 246.545 317.043 246.971 317.357 247.323C317.677 247.67 318.061 247.937 318.509 248.123C318.963 248.31 319.472 248.403 320.037 248.403C320.603 248.403 321.109 248.31 321.557 248.123C322.011 247.937 322.395 247.67 322.709 247.323C323.024 246.971 323.267 246.545 323.437 246.043C323.608 245.537 323.693 244.966 323.693 244.331ZM337.319 244.315V248.995C336.732 249.427 336.106 249.745 335.439 249.947C334.778 250.145 334.068 250.243 333.311 250.243C332.367 250.243 331.511 250.097 330.743 249.803C329.98 249.51 329.327 249.102 328.783 248.579C328.244 248.057 327.828 247.433 327.535 246.707C327.242 245.982 327.095 245.19 327.095 244.331C327.095 243.462 327.236 242.665 327.519 241.939C327.802 241.214 328.202 240.59 328.719 240.067C329.242 239.545 329.874 239.139 330.615 238.851C331.356 238.563 332.188 238.419 333.111 238.419C333.58 238.419 334.018 238.457 334.423 238.531C334.834 238.606 335.212 238.71 335.559 238.843C335.911 238.971 336.231 239.129 336.519 239.315C336.807 239.502 337.071 239.707 337.311 239.931L336.695 240.907C336.599 241.062 336.474 241.158 336.319 241.195C336.164 241.227 335.996 241.187 335.815 241.075C335.639 240.974 335.463 240.873 335.287 240.771C335.111 240.67 334.914 240.582 334.695 240.507C334.482 240.433 334.239 240.371 333.967 240.323C333.7 240.275 333.391 240.251 333.039 240.251C332.468 240.251 331.951 240.347 331.487 240.539C331.028 240.731 330.636 241.006 330.311 241.363C329.986 241.721 329.735 242.15 329.559 242.651C329.383 243.153 329.295 243.713 329.295 244.331C329.295 244.993 329.388 245.585 329.575 246.107C329.767 246.625 330.034 247.065 330.375 247.427C330.722 247.785 331.138 248.059 331.623 248.251C332.108 248.438 332.65 248.531 333.247 248.531C333.674 248.531 334.055 248.486 334.391 248.395C334.727 248.305 335.055 248.182 335.375 248.027V245.931H333.919C333.78 245.931 333.671 245.894 333.591 245.819C333.516 245.739 333.479 245.643 333.479 245.531V244.315H337.319ZM341.552 250.115H339.392V238.547H341.552V250.115ZM350.254 245.747L348.846 241.899C348.777 241.729 348.705 241.526 348.63 241.291C348.556 241.057 348.481 240.803 348.406 240.531C348.337 240.803 348.265 241.059 348.19 241.299C348.116 241.534 348.044 241.739 347.974 241.915L346.574 245.747H350.254ZM354.054 250.115H352.39C352.204 250.115 352.052 250.07 351.934 249.979C351.817 249.883 351.729 249.766 351.67 249.627L350.806 247.267H346.014L345.15 249.627C345.108 249.75 345.025 249.862 344.902 249.963C344.78 250.065 344.628 250.115 344.446 250.115H342.766L347.318 238.547H349.51L354.054 250.115Z" fill="#6F7481"/>
<path d="M330.327 72.9274H328.167V61.3594H330.327V72.9274ZM342.669 61.3594V72.9274H341.565C341.394 72.9274 341.25 72.9007 341.133 72.8474C341.021 72.7887 340.911 72.6927 340.805 72.5594L334.765 64.8474C334.797 65.1994 334.813 65.5247 334.813 65.8234V72.9274H332.917V61.3594H334.045C334.135 61.3594 334.213 61.3647 334.277 61.3754C334.346 61.3807 334.405 61.3967 334.453 61.4234C334.506 61.4447 334.557 61.4794 334.605 61.5274C334.653 61.5701 334.706 61.6287 334.765 61.7034L340.829 69.4474C340.813 69.2607 340.799 69.0767 340.789 68.8954C340.778 68.7141 340.773 68.5461 340.773 68.3914V61.3594H342.669ZM356.277 67.1434C356.277 67.9914 356.135 68.7781 355.853 69.5034C355.575 70.2234 355.181 70.8474 354.669 71.3754C354.157 71.9034 353.541 72.3167 352.821 72.6154C352.101 72.9087 351.301 73.0554 350.421 73.0554C349.546 73.0554 348.749 72.9087 348.029 72.6154C347.309 72.3167 346.69 71.9034 346.173 71.3754C345.661 70.8474 345.263 70.2234 344.981 69.5034C344.698 68.7781 344.557 67.9914 344.557 67.1434C344.557 66.2954 344.698 65.5114 344.981 64.7914C345.263 64.0661 345.661 63.4394 346.173 62.9114C346.69 62.3834 347.309 61.9727 348.029 61.6794C348.749 61.3807 349.546 61.2314 350.421 61.2314C351.007 61.2314 351.559 61.3007 352.077 61.4394C352.594 61.5727 353.069 61.7647 353.501 62.0154C353.933 62.2607 354.319 62.5621 354.661 62.9194C355.007 63.2714 355.301 63.6661 355.541 64.1034C355.781 64.5407 355.962 65.0154 356.085 65.5274C356.213 66.0394 356.277 66.5781 356.277 67.1434ZM354.077 67.1434C354.077 66.5087 353.991 65.9407 353.821 65.4394C353.65 64.9327 353.407 64.5034 353.093 64.1514C352.778 63.7994 352.394 63.5301 351.941 63.3434C351.493 63.1567 350.986 63.0634 350.421 63.0634C349.855 63.0634 349.346 63.1567 348.893 63.3434C348.445 63.5301 348.061 63.7994 347.741 64.1514C347.426 64.5034 347.183 64.9327 347.013 65.4394C346.842 65.9407 346.757 66.5087 346.757 67.1434C346.757 67.7781 346.842 68.3487 347.013 68.8554C347.183 69.3567 347.426 69.7834 347.741 70.1354C348.061 70.4821 348.445 70.7487 348.893 70.9354C349.346 71.1221 349.855 71.2154 350.421 71.2154C350.986 71.2154 351.493 71.1221 351.941 70.9354C352.394 70.7487 352.778 70.4821 353.093 70.1354C353.407 69.7834 353.65 69.3567 353.821 68.8554C353.991 68.3487 354.077 67.7781 354.077 67.1434ZM367.704 61.3594L363.032 72.9274H361.088L356.416 61.3594H358.144C358.33 61.3594 358.482 61.4047 358.6 61.4954C358.717 61.5861 358.805 61.7034 358.864 61.8474L361.592 68.9034C361.682 69.1327 361.768 69.3861 361.848 69.6634C361.933 69.9354 362.013 70.2207 362.088 70.5194C362.152 70.2207 362.221 69.9354 362.296 69.6634C362.37 69.3861 362.453 69.1327 362.544 68.9034L365.256 61.8474C365.298 61.7247 365.381 61.6127 365.504 61.5114C365.632 61.4101 365.786 61.3594 365.968 61.3594H367.704ZM374.091 68.5594L372.683 64.7114C372.614 64.5407 372.542 64.3381 372.467 64.1034C372.392 63.8687 372.318 63.6154 372.243 63.3434C372.174 63.6154 372.102 63.8714 372.027 64.1114C371.952 64.3461 371.88 64.5514 371.811 64.7274L370.411 68.5594H374.091ZM377.891 72.9274H376.227C376.04 72.9274 375.888 72.8821 375.771 72.7914C375.654 72.6954 375.566 72.5781 375.507 72.4394L374.643 70.0794H369.851L368.987 72.4394C368.944 72.5621 368.862 72.6741 368.739 72.7754C368.616 72.8767 368.464 72.9274 368.283 72.9274H366.603L371.155 61.3594H373.347L377.891 72.9274ZM387.849 71.2554C387.427 71.7834 386.915 72.1994 386.313 72.5034C385.71 72.8021 384.998 72.9807 384.177 73.0394L384.073 73.4154C384.574 73.5327 384.926 73.6901 385.129 73.8874C385.331 74.0901 385.433 74.3301 385.433 74.6074C385.433 74.7887 385.385 74.9514 385.289 75.0954C385.198 75.2394 385.065 75.3621 384.889 75.4634C384.718 75.5647 384.513 75.6421 384.273 75.6954C384.033 75.7487 383.769 75.7754 383.481 75.7754C383.262 75.7754 383.057 75.7594 382.865 75.7274C382.678 75.7007 382.491 75.6581 382.305 75.5994L382.489 74.9834C382.521 74.8607 382.598 74.7994 382.721 74.7994C382.795 74.7994 382.875 74.8181 382.961 74.8554C383.051 74.8981 383.182 74.9194 383.353 74.9194C383.529 74.9194 383.659 74.8847 383.745 74.8154C383.835 74.7514 383.881 74.6714 383.881 74.5754C383.881 74.4207 383.785 74.3087 383.593 74.2394C383.401 74.1754 383.105 74.1141 382.705 74.0554L383.057 73.0314C382.289 72.9621 381.595 72.7701 380.977 72.4554C380.363 72.1354 379.841 71.7167 379.409 71.1994C378.977 70.6821 378.646 70.0794 378.417 69.3914C378.187 68.7034 378.073 67.9541 378.073 67.1434C378.073 66.2741 378.211 65.4794 378.489 64.7594C378.766 64.0341 379.155 63.4101 379.657 62.8874C380.163 62.3647 380.766 61.9594 381.465 61.6714C382.163 61.3781 382.937 61.2314 383.785 61.2314C384.627 61.2314 385.374 61.3701 386.025 61.6474C386.681 61.9247 387.238 62.2874 387.697 62.7354L386.977 63.7354C386.934 63.7994 386.878 63.8554 386.809 63.9034C386.745 63.9514 386.654 63.9754 386.537 63.9754C386.457 63.9754 386.374 63.9541 386.289 63.9114C386.203 63.8634 386.11 63.8074 386.009 63.7434C385.907 63.6741 385.79 63.5994 385.657 63.5194C385.523 63.4394 385.369 63.3674 385.193 63.3034C385.017 63.2341 384.811 63.1781 384.577 63.1354C384.347 63.0874 384.081 63.0634 383.777 63.0634C383.259 63.0634 382.785 63.1567 382.353 63.3434C381.926 63.5247 381.558 63.7914 381.249 64.1434C380.939 64.4901 380.699 64.9167 380.529 65.4234C380.358 65.9247 380.273 66.4981 380.273 67.1434C380.273 67.7941 380.363 68.3727 380.545 68.8794C380.731 69.3861 380.982 69.8127 381.297 70.1594C381.611 70.5061 381.982 70.7727 382.409 70.9594C382.835 71.1407 383.294 71.2314 383.785 71.2314C384.078 71.2314 384.342 71.2154 384.577 71.1834C384.817 71.1514 385.035 71.1007 385.233 71.0314C385.435 70.9621 385.625 70.8741 385.801 70.7674C385.982 70.6554 386.161 70.5194 386.337 70.3594C386.39 70.3114 386.446 70.2741 386.505 70.2474C386.563 70.2154 386.625 70.1994 386.689 70.1994C386.806 70.1994 386.91 70.2447 387.001 70.3354L387.849 71.2554ZM395.435 68.5594L394.027 64.7114C393.958 64.5407 393.886 64.3381 393.811 64.1034C393.736 63.8687 393.662 63.6154 393.587 63.3434C393.518 63.6154 393.446 63.8714 393.371 64.1114C393.296 64.3461 393.224 64.5514 393.155 64.7274L391.755 68.5594H395.435ZM399.235 72.9274H397.571C397.384 72.9274 397.232 72.8821 397.115 72.7914C396.998 72.6954 396.91 72.5781 396.851 72.4394L395.987 70.0794H391.195L390.331 72.4394C390.288 72.5621 390.206 72.6741 390.083 72.7754C389.96 72.8767 389.808 72.9274 389.627 72.9274H387.947L392.499 61.3594H394.691L399.235 72.9274ZM394.587 59.3354C394.704 59.3354 394.806 59.3114 394.891 59.2634C394.982 59.2154 395.054 59.1567 395.107 59.0874C395.166 59.0127 395.208 58.9327 395.235 58.8474C395.262 58.7567 395.275 58.6687 395.275 58.5834H396.483C396.483 58.8501 396.446 59.1061 396.371 59.3514C396.302 59.5914 396.195 59.8074 396.051 59.9994C395.912 60.1861 395.739 60.3354 395.531 60.4474C395.328 60.5594 395.094 60.6154 394.827 60.6154C394.555 60.6154 394.318 60.5727 394.115 60.4874C393.918 60.4021 393.736 60.3114 393.571 60.2154C393.406 60.1141 393.254 60.0207 393.115 59.9354C392.982 59.8501 392.843 59.8074 392.699 59.8074C392.576 59.8074 392.472 59.8314 392.387 59.8794C392.302 59.9274 392.232 59.9887 392.179 60.0634C392.126 60.1381 392.086 60.2207 392.059 60.3114C392.032 60.4021 392.019 60.4901 392.019 60.5754H390.795C390.795 60.3141 390.832 60.0607 390.907 59.8154C390.982 59.5647 391.088 59.3461 391.227 59.1594C391.371 58.9674 391.544 58.8154 391.747 58.7034C391.955 58.5861 392.192 58.5274 392.459 58.5274C392.731 58.5274 392.968 58.5701 393.171 58.6554C393.374 58.7407 393.555 58.8341 393.715 58.9354C393.875 59.0314 394.024 59.1221 394.163 59.2074C394.302 59.2927 394.443 59.3354 394.587 59.3354ZM411.12 67.1434C411.12 67.9914 410.979 68.7781 410.696 69.5034C410.419 70.2234 410.024 70.8474 409.512 71.3754C409 71.9034 408.384 72.3167 407.664 72.6154C406.944 72.9087 406.144 73.0554 405.264 73.0554C404.39 73.0554 403.592 72.9087 402.872 72.6154C402.152 72.3167 401.534 71.9034 401.016 71.3754C400.504 70.8474 400.107 70.2234 399.824 69.5034C399.542 68.7781 399.4 67.9914 399.4 67.1434C399.4 66.2954 399.542 65.5114 399.824 64.7914C400.107 64.0661 400.504 63.4394 401.016 62.9114C401.534 62.3834 402.152 61.9727 402.872 61.6794C403.592 61.3807 404.39 61.2314 405.264 61.2314C405.851 61.2314 406.403 61.3007 406.92 61.4394C407.438 61.5727 407.912 61.7647 408.344 62.0154C408.776 62.2607 409.163 62.5621 409.504 62.9194C409.851 63.2714 410.144 63.6661 410.384 64.1034C410.624 64.5407 410.806 65.0154 410.928 65.5274C411.056 66.0394 411.12 66.5781 411.12 67.1434ZM408.92 67.1434C408.92 66.5087 408.835 65.9407 408.664 65.4394C408.494 64.9327 408.251 64.5034 407.936 64.1514C407.622 63.7994 407.238 63.5301 406.784 63.3434C406.336 63.1567 405.83 63.0634 405.264 63.0634C404.699 63.0634 404.19 63.1567 403.736 63.3434C403.288 63.5301 402.904 63.7994 402.584 64.1514C402.27 64.5034 402.027 64.9327 401.856 65.4394C401.686 65.9407 401.6 66.5087 401.6 67.1434C401.6 67.7781 401.686 68.3487 401.856 68.8554C402.027 69.3567 402.27 69.7834 402.584 70.1354C402.904 70.4821 403.288 70.7487 403.736 70.9354C404.19 71.1221 404.699 71.2154 405.264 71.2154C405.83 71.2154 406.336 71.1221 406.784 70.9354C407.238 70.7487 407.622 70.4821 407.936 70.1354C408.251 69.7834 408.494 69.3567 408.664 68.8554C408.835 68.3487 408.92 67.7781 408.92 67.1434Z" fill="#C0D369"/>
<path d="M135.898 130.058V134.738C135.311 135.17 134.684 135.488 134.018 135.69C133.356 135.888 132.647 135.986 131.89 135.986C130.946 135.986 130.09 135.84 129.322 135.546C128.559 135.253 127.906 134.845 127.362 134.322C126.823 133.8 126.407 133.176 126.114 132.45C125.82 131.725 125.674 130.933 125.674 130.074C125.674 129.205 125.815 128.408 126.098 127.682C126.38 126.957 126.78 126.333 127.298 125.81C127.82 125.288 128.452 124.882 129.194 124.594C129.935 124.306 130.767 124.162 131.69 124.162C132.159 124.162 132.596 124.2 133.002 124.274C133.412 124.349 133.791 124.453 134.138 124.586C134.49 124.714 134.81 124.872 135.098 125.058C135.386 125.245 135.65 125.45 135.89 125.674L135.274 126.65C135.178 126.805 135.052 126.901 134.898 126.938C134.743 126.97 134.575 126.93 134.394 126.818C134.218 126.717 134.042 126.616 133.866 126.514C133.69 126.413 133.492 126.325 133.274 126.25C133.06 126.176 132.818 126.114 132.546 126.066C132.279 126.018 131.97 125.994 131.618 125.994C131.047 125.994 130.53 126.09 130.066 126.282C129.607 126.474 129.215 126.749 128.89 127.106C128.564 127.464 128.314 127.893 128.138 128.394C127.962 128.896 127.874 129.456 127.874 130.074C127.874 130.736 127.967 131.328 128.154 131.85C128.346 132.368 128.612 132.808 128.954 133.17C129.3 133.528 129.716 133.802 130.202 133.994C130.687 134.181 131.228 134.274 131.826 134.274C132.252 134.274 132.634 134.229 132.97 134.138C133.306 134.048 133.634 133.925 133.954 133.77V131.674H132.498C132.359 131.674 132.25 131.637 132.17 131.562C132.095 131.482 132.058 131.386 132.058 131.274V130.058H135.898ZM140.131 126.002V129.21H144.179V130.866H140.131V134.138H145.267V135.858H137.971V124.29H145.267V126.002H140.131ZM153.334 126.394C153.27 126.506 153.201 126.589 153.126 126.642C153.057 126.69 152.969 126.714 152.862 126.714C152.75 126.714 152.628 126.674 152.494 126.594C152.366 126.509 152.212 126.416 152.03 126.314C151.849 126.213 151.636 126.122 151.39 126.042C151.15 125.957 150.865 125.914 150.534 125.914C150.236 125.914 149.974 125.952 149.75 126.026C149.526 126.096 149.337 126.194 149.182 126.322C149.033 126.45 148.921 126.605 148.846 126.786C148.772 126.962 148.734 127.157 148.734 127.37C148.734 127.642 148.809 127.869 148.958 128.05C149.113 128.232 149.316 128.386 149.566 128.514C149.817 128.642 150.102 128.757 150.422 128.858C150.742 128.96 151.07 129.069 151.406 129.186C151.742 129.298 152.07 129.432 152.39 129.586C152.71 129.736 152.996 129.928 153.246 130.162C153.497 130.392 153.697 130.674 153.846 131.01C154.001 131.346 154.078 131.754 154.078 132.234C154.078 132.757 153.988 133.248 153.806 133.706C153.63 134.16 153.369 134.557 153.022 134.898C152.681 135.234 152.262 135.501 151.766 135.698C151.27 135.89 150.702 135.986 150.062 135.986C149.694 135.986 149.332 135.949 148.974 135.874C148.617 135.805 148.273 135.704 147.942 135.57C147.617 135.437 147.31 135.277 147.022 135.09C146.734 134.904 146.478 134.696 146.254 134.466L146.886 133.434C146.94 133.36 147.009 133.298 147.094 133.25C147.18 133.197 147.27 133.17 147.366 133.17C147.5 133.17 147.644 133.226 147.798 133.338C147.953 133.445 148.137 133.565 148.35 133.698C148.564 133.832 148.812 133.954 149.094 134.066C149.382 134.173 149.726 134.226 150.126 134.226C150.74 134.226 151.214 134.082 151.55 133.794C151.886 133.501 152.054 133.082 152.054 132.538C152.054 132.234 151.977 131.986 151.822 131.794C151.673 131.602 151.473 131.442 151.222 131.314C150.972 131.181 150.686 131.069 150.366 130.978C150.046 130.888 149.721 130.789 149.39 130.682C149.06 130.576 148.734 130.448 148.414 130.298C148.094 130.149 147.809 129.954 147.558 129.714C147.308 129.474 147.105 129.176 146.95 128.818C146.801 128.456 146.726 128.01 146.726 127.482C146.726 127.061 146.809 126.65 146.974 126.25C147.145 125.85 147.39 125.496 147.71 125.186C148.03 124.877 148.425 124.629 148.894 124.442C149.364 124.256 149.902 124.162 150.51 124.162C151.193 124.162 151.822 124.269 152.398 124.482C152.974 124.696 153.465 124.994 153.87 125.378L153.334 126.394ZM164.035 126.058H160.547V135.858H158.395V126.058H154.907V124.29H164.035V126.058ZM170.536 131.49L169.128 127.642C169.059 127.472 168.987 127.269 168.912 127.034C168.838 126.8 168.763 126.546 168.688 126.274C168.619 126.546 168.547 126.802 168.472 127.042C168.398 127.277 168.326 127.482 168.256 127.658L166.856 131.49H170.536ZM174.336 135.858H172.672C172.486 135.858 172.334 135.813 172.216 135.722C172.099 135.626 172.011 135.509 171.952 135.37L171.088 133.01H166.296L165.432 135.37C165.39 135.493 165.307 135.605 165.184 135.706C165.062 135.808 164.91 135.858 164.728 135.858H163.048L167.6 124.29H169.792L174.336 135.858ZM169.688 122.266C169.806 122.266 169.907 122.242 169.992 122.194C170.083 122.146 170.155 122.088 170.208 122.018C170.267 121.944 170.31 121.864 170.336 121.778C170.363 121.688 170.376 121.6 170.376 121.514H171.584C171.584 121.781 171.547 122.037 171.472 122.282C171.403 122.522 171.296 122.738 171.152 122.93C171.014 123.117 170.84 123.266 170.632 123.378C170.43 123.49 170.195 123.546 169.928 123.546C169.656 123.546 169.419 123.504 169.216 123.418C169.019 123.333 168.838 123.242 168.672 123.146C168.507 123.045 168.355 122.952 168.216 122.866C168.083 122.781 167.944 122.738 167.8 122.738C167.678 122.738 167.574 122.762 167.488 122.81C167.403 122.858 167.334 122.92 167.28 122.994C167.227 123.069 167.187 123.152 167.16 123.242C167.134 123.333 167.12 123.421 167.12 123.506H165.896C165.896 123.245 165.934 122.992 166.008 122.746C166.083 122.496 166.19 122.277 166.328 122.09C166.472 121.898 166.646 121.746 166.848 121.634C167.056 121.517 167.294 121.458 167.56 121.458C167.832 121.458 168.07 121.501 168.272 121.586C168.475 121.672 168.656 121.765 168.816 121.866C168.976 121.962 169.126 122.053 169.264 122.138C169.403 122.224 169.544 122.266 169.688 122.266ZM186.222 130.074C186.222 130.922 186.08 131.709 185.798 132.434C185.52 133.154 185.126 133.778 184.614 134.306C184.102 134.834 183.486 135.248 182.766 135.546C182.046 135.84 181.246 135.986 180.366 135.986C179.491 135.986 178.694 135.84 177.974 135.546C177.254 135.248 176.635 134.834 176.118 134.306C175.606 133.778 175.208 133.154 174.926 132.434C174.643 131.709 174.502 130.922 174.502 130.074C174.502 129.226 174.643 128.442 174.926 127.722C175.208 126.997 175.606 126.37 176.118 125.842C176.635 125.314 177.254 124.904 177.974 124.61C178.694 124.312 179.491 124.162 180.366 124.162C180.952 124.162 181.504 124.232 182.022 124.37C182.539 124.504 183.014 124.696 183.446 124.946C183.878 125.192 184.264 125.493 184.606 125.85C184.952 126.202 185.246 126.597 185.486 127.034C185.726 127.472 185.907 127.946 186.03 128.458C186.158 128.97 186.222 129.509 186.222 130.074ZM184.022 130.074C184.022 129.44 183.936 128.872 183.766 128.37C183.595 127.864 183.352 127.434 183.038 127.082C182.723 126.73 182.339 126.461 181.886 126.274C181.438 126.088 180.931 125.994 180.366 125.994C179.8 125.994 179.291 126.088 178.838 126.274C178.39 126.461 178.006 126.73 177.686 127.082C177.371 127.434 177.128 127.864 176.958 128.37C176.787 128.872 176.702 129.44 176.702 130.074C176.702 130.709 176.787 131.28 176.958 131.786C177.128 132.288 177.371 132.714 177.686 133.066C178.006 133.413 178.39 133.68 178.838 133.866C179.291 134.053 179.8 134.146 180.366 134.146C180.931 134.146 181.438 134.053 181.886 133.866C182.339 133.68 182.723 133.413 183.038 133.066C183.352 132.714 183.595 132.288 183.766 131.786C183.936 131.28 184.022 130.709 184.022 130.074Z" fill="#706ACC"/>
<circle cx="487.574" cy="90.4265" r="7.98868" transform="rotate(19.3113 487.574 90.4265)" stroke="#B8BCC9" stroke-width="2" stroke-dasharray="4 4"/>
<circle cx="518" cy="226" r="7" stroke="#B8BCC9" stroke-width="2" stroke-dasharray="4 4"/>
<circle cx="472.5" cy="304.5" r="9.5" stroke="#B8BCC9" stroke-width="2" stroke-dasharray="4 4"/>
<circle cx="518.5" cy="156.5" r="8.5" stroke="#B8BCC9" stroke-width="2" stroke-dasharray="4 4"/>
<circle cx="159.5" cy="15.5" r="9.5" stroke="#B8BCC9" stroke-width="2" stroke-dasharray="4 4"/>
<circle cx="37" cy="109" r="8" stroke="#B8BCC9" stroke-width="2" stroke-dasharray="4 4"/>
<circle cx="26" cy="263" r="8" stroke="#B8BCC9" stroke-width="2" stroke-dasharray="4 4"/>
<circle cx="170" cy="357" r="7" stroke="#B8BCC9" stroke-width="2" stroke-dasharray="4 4"/>
<circle cx="350.5" cy="356.5" r="7.5" stroke="#B8BCC9" stroke-width="2" stroke-dasharray="4 4"/>
<circle cx="291.5" cy="112.5" r="7.5" fill="#706ACC"/>
<circle cx="438.5" cy="200.5" r="3.5" fill="#DBDBDB"/>
<circle cx="228.5" cy="53.5" r="3.5" fill="#DBDBDB"/>
<circle cx="396.5" cy="293.5" r="7.5" fill="#C0D369"/>
<circle cx="177.5" cy="254.5" r="7.5" fill="#DBDBDB"/>
</svg>
