<svg width="144" height="144" viewBox="0 0 144 144" fill="none" xmlns="http://www.w3.org/2000/svg">
<circle cx="71.8814" cy="71.8814" r="13.5625" fill="#FCD04B"/>
<path d="M64.4159 138.464C64.4591 138.402 64.5055 138.355 64.5554 138.323C64.6006 138.296 64.6556 138.284 64.7205 138.289C64.794 138.293 64.8781 138.336 64.9727 138.416C65.0674 138.496 65.1876 138.584 65.3333 138.68C65.4744 138.781 65.6485 138.875 65.8555 138.962C66.0583 139.049 66.3089 139.102 66.6072 139.122C66.8883 139.14 67.1395 139.117 67.3608 139.054C67.5774 138.994 67.7635 138.904 67.919 138.784C68.0702 138.663 68.1883 138.517 68.2734 138.344C68.3582 138.176 68.4072 137.991 68.4205 137.787C68.4374 137.528 68.3888 137.308 68.2747 137.126C68.156 136.949 67.9968 136.794 67.7971 136.659C67.5931 136.524 67.3622 136.403 67.1044 136.295C66.8419 136.191 66.5754 136.082 66.3049 135.969C66.03 135.855 65.7647 135.729 65.5088 135.591C65.2483 135.457 65.0202 135.292 64.8245 135.097C64.6245 134.902 64.4704 134.668 64.3622 134.396C64.2497 134.124 64.206 133.795 64.2311 133.41C64.2576 133.004 64.3518 132.626 64.5136 132.276C64.6751 131.93 64.8985 131.634 65.1838 131.388C65.4648 131.141 65.8048 130.955 66.2039 130.829C66.5986 130.703 67.0424 130.656 67.5354 130.688C68.1408 130.728 68.6829 130.872 69.1617 131.12C69.6403 131.373 70.0425 131.696 70.3685 132.091L69.9664 132.664C69.9287 132.709 69.885 132.746 69.8355 132.773C69.7814 132.804 69.724 132.818 69.6635 132.814C69.6073 132.81 69.5461 132.782 69.48 132.73C69.4093 132.682 69.3309 132.621 69.2446 132.545C69.1583 132.47 69.0594 132.388 68.948 132.298C68.8366 132.208 68.7097 132.124 68.5672 132.045C68.4204 131.966 68.2534 131.897 68.0662 131.837C67.8788 131.781 67.6661 131.745 67.4283 131.73C67.1299 131.71 66.8613 131.734 66.6225 131.801C66.3836 131.868 66.1794 131.97 66.0098 132.106C65.8356 132.247 65.6985 132.418 65.5985 132.62C65.4984 132.822 65.4401 133.051 65.4234 133.306C65.4051 133.587 65.455 133.82 65.5732 134.006C65.6867 134.196 65.8433 134.358 66.043 134.493C66.2426 134.627 66.4738 134.744 66.7366 134.844C66.999 134.948 67.2658 135.052 67.5369 135.157C67.8077 135.266 68.0734 135.387 68.3338 135.521C68.5943 135.656 68.8223 135.823 69.0177 136.022C69.2131 136.222 69.3667 136.464 69.4783 136.749C69.5854 137.038 69.6255 137.388 69.5987 137.799C69.5773 138.128 69.4938 138.442 69.3484 138.74C69.1986 139.039 68.9949 139.299 68.7372 139.521C68.4752 139.743 68.1623 139.914 67.7984 140.033C67.4302 140.152 67.0147 140.197 66.5521 140.167C66.0332 140.133 65.5672 140.02 65.1541 139.828C64.7368 139.636 64.3761 139.373 64.0721 139.041L64.4159 138.464Z" fill="black"/>
<path d="M46.6572 130.66C46.8719 129.996 47.1744 129.42 47.5646 128.932C47.9536 128.447 48.4044 128.067 48.9172 127.791C49.43 127.515 49.9924 127.353 50.6046 127.305C51.2112 127.26 51.8403 127.343 52.4918 127.553C53.1432 127.764 53.7016 128.065 54.1669 128.457C54.631 128.853 54.99 129.313 55.2441 129.837C55.4983 130.361 55.6411 130.933 55.6728 131.554C55.703 132.178 55.6109 132.822 55.3962 133.486C55.1815 134.15 54.8797 134.724 54.4908 135.209C54.1005 135.697 53.649 136.08 53.1362 136.356C52.6221 136.636 52.0611 136.8 51.4531 136.85C50.8451 136.899 50.2153 136.818 49.5639 136.608C48.9124 136.397 48.3547 136.094 47.8907 135.698C47.4225 135.3 47.0621 134.838 46.8093 134.31C46.5552 133.786 46.413 133.211 46.3827 132.587C46.3511 131.966 46.4426 131.324 46.6572 130.66ZM47.888 131.058C47.712 131.603 47.6282 132.115 47.6367 132.596C47.6451 133.077 47.7374 133.51 47.9135 133.895C48.0883 134.284 48.3435 134.621 48.6791 134.907C49.0146 135.194 49.4216 135.414 49.8999 135.569C50.374 135.722 50.8309 135.781 51.2705 135.745C51.71 135.71 52.1166 135.586 52.4902 135.375C52.8583 135.166 53.1866 134.869 53.475 134.484C53.7634 134.099 53.9956 133.634 54.1716 133.09C54.3476 132.546 54.4314 132.033 54.423 131.552C54.4132 131.076 54.3209 130.643 54.1461 130.254C53.9659 129.868 53.7079 129.531 53.3724 129.245C53.0355 128.963 52.6299 128.746 52.1558 128.592C51.6775 128.438 51.2192 128.376 50.781 128.407C50.3414 128.443 49.9376 128.565 49.5694 128.774C49.2 128.987 48.8717 129.284 48.5846 129.664C48.2962 130.049 48.064 130.514 47.888 131.058Z" fill="black"/>
<path d="M36.8862 120.846L37.4445 119.945L41.9356 122.73L37.0268 130.646L35.9607 129.985L40.3111 122.97L36.8862 120.846Z" fill="black"/>
<path d="M25.6233 113.886L23.9725 117.597C23.9233 117.708 23.8634 117.832 23.7927 117.969C23.7189 118.11 23.6375 118.256 23.5484 118.406C23.8613 118.222 24.1342 118.082 24.3672 117.984L28.0787 116.349L25.6233 113.886ZM26.2179 109.585L26.9064 110.275C26.9859 110.355 27.0302 110.439 27.0393 110.528C27.0484 110.617 27.0344 110.704 26.9975 110.79L26.0199 112.995L28.9709 115.955L31.1785 114.983C31.2521 114.947 31.3364 114.933 31.4314 114.942C31.5264 114.952 31.6121 114.995 31.6886 115.071L32.377 115.762L23.1513 119.701L22.2517 118.799L26.2179 109.585Z" fill="black"/>
<path d="M16.9939 104.254C16.8063 103.942 16.6039 103.69 16.3866 103.497C16.1634 103.303 15.9351 103.167 15.7017 103.09C15.4623 103.011 15.2215 102.989 14.9793 103.024C14.737 103.058 14.4989 103.146 14.265 103.287C13.7897 103.573 13.5252 103.944 13.4715 104.401C13.4178 104.858 13.5786 105.399 13.9539 106.023L14.6643 107.203L17.6775 105.391L16.9939 104.254ZM18.8917 98.0909L19.468 99.0489C19.5864 99.2457 19.5974 99.4363 19.501 99.6207L17.8959 103.408C17.8447 103.525 17.8229 103.632 17.8305 103.728C17.8321 103.823 17.8787 103.947 17.9703 104.099L18.4629 104.918L21.7935 102.914L22.4403 103.989L14.4589 108.791L13.1018 106.535C12.798 106.03 12.5875 105.563 12.4703 105.133C12.3494 104.705 12.314 104.314 12.3641 103.96C12.412 103.603 12.5387 103.284 12.7442 103.003C12.946 102.725 13.2158 102.484 13.5537 102.281C13.8359 102.111 14.1264 101.997 14.425 101.939C14.7237 101.88 15.0228 101.878 15.3224 101.93C15.616 101.981 15.9052 102.088 16.1901 102.25C16.4726 102.409 16.7419 102.621 16.9979 102.887C16.9932 102.702 17.035 102.515 17.1232 102.326L18.8917 98.0909Z" fill="black"/>
<path d="M7.28642 88.9436C7.36013 88.9613 7.42066 88.9877 7.46803 89.0227C7.50996 89.055 7.54067 89.1021 7.56016 89.1641C7.58225 89.2344 7.5731 89.3281 7.53271 89.4453C7.49232 89.5625 7.45353 89.7064 7.41633 89.8771C7.3737 90.0449 7.34909 90.2411 7.34248 90.4658C7.33458 90.6863 7.37546 90.9392 7.46512 91.2244C7.54959 91.4931 7.66151 91.7191 7.8009 91.9024C7.93485 92.0829 8.08592 92.2239 8.25412 92.3255C8.42102 92.4229 8.60026 92.4802 8.79184 92.4972C8.97929 92.5155 9.17016 92.4941 9.36445 92.433C9.61248 92.355 9.80034 92.2301 9.92801 92.0582C10.0502 91.8836 10.1381 91.6788 10.1914 91.444C10.2435 91.205 10.2733 90.9458 10.2809 90.6664C10.283 90.3841 10.2879 90.0964 10.2957 89.8032C10.3022 89.5059 10.3237 89.213 10.3601 88.9244C10.3912 88.6331 10.4623 88.3609 10.5736 88.1079C10.6835 87.8507 10.8458 87.6226 11.0603 87.4234C11.2734 87.2201 11.564 87.0607 11.9319 86.945C12.3205 86.8229 12.7071 86.774 13.0918 86.7984C13.4724 86.8242 13.829 86.9255 14.1618 87.1026C14.4932 87.2755 14.7897 87.5252 15.0514 87.8518C15.3117 88.1742 15.516 88.5711 15.6641 89.0423C15.846 89.6211 15.9077 90.1786 15.8492 90.7148C15.7865 91.2524 15.63 91.7444 15.3797 92.191L14.7001 92.0231C14.6442 92.0043 14.5947 91.9768 14.5514 91.9404C14.5028 91.9012 14.4693 91.8526 14.4512 91.7947C14.4343 91.741 14.4382 91.6739 14.4628 91.5935C14.4821 91.5102 14.5111 91.4148 14.55 91.3072C14.5888 91.1996 14.63 91.0776 14.6735 90.9413C14.7169 90.805 14.7496 90.6562 14.7716 90.4948C14.7923 90.3294 14.7967 90.1485 14.785 89.9523C14.7692 89.7575 14.7255 89.5463 14.6541 89.319C14.5644 89.0337 14.4452 88.7918 14.2965 88.5933C14.1478 88.3947 13.9791 88.2411 13.7905 88.1323C13.5964 88.0207 13.3872 87.9548 13.1628 87.9344C12.9383 87.9141 12.7042 87.9423 12.4603 88.019C12.1916 88.1035 11.992 88.2343 11.8615 88.4116C11.7255 88.5861 11.6309 88.7907 11.5775 89.0255C11.5241 89.2604 11.4984 89.5183 11.5005 89.7993C11.4983 90.0815 11.4975 90.368 11.498 90.6585C11.4944 90.9504 11.477 91.242 11.446 91.5334C11.4149 91.8248 11.3417 92.0976 11.2263 92.3519C11.1109 92.6062 10.9405 92.837 10.7149 93.0442C10.4839 93.2485 10.172 93.4124 9.77926 93.5359C9.46508 93.6346 9.1424 93.6702 8.81121 93.6426C8.47872 93.6108 8.1624 93.5149 7.86227 93.3549C7.56084 93.1907 7.28863 92.9606 7.04566 92.6645C6.80138 92.3643 6.60972 91.993 6.47068 91.5507C6.31475 91.0546 6.25165 90.5793 6.28139 90.1248C6.30984 89.6662 6.42415 89.235 6.62433 88.8314L7.28642 88.9436Z" fill="black"/>
<path d="M9.36283 74.5952L13.0659 74.3448L13.1509 75.603L9.44789 75.8533L4.08785 79.636L4.01331 78.5335C4.00571 78.4211 4.02782 78.3306 4.07964 78.2619C4.12714 78.1936 4.19251 78.1327 4.27577 78.0793L7.7442 75.7079C7.89026 75.6199 8.02812 75.5389 8.15776 75.465C8.28308 75.3913 8.41114 75.3262 8.54195 75.2696C8.40471 75.2311 8.26919 75.186 8.1354 75.1342C7.99728 75.0828 7.85007 75.0254 7.69378 74.9621L3.93815 73.0857C3.86202 73.0517 3.79135 73.0022 3.72615 72.9371C3.66094 72.8721 3.62468 72.7855 3.61738 72.6774L3.5424 71.5684L9.36283 74.5952Z" fill="black"/>
<path d="M6.68839 57.5293C6.74588 57.5787 6.78769 57.6298 6.81381 57.6826C6.8364 57.7305 6.84221 57.7864 6.83124 57.8505C6.81881 57.9231 6.76788 58.0023 6.67846 58.0881C6.58903 58.1739 6.48881 58.2842 6.37779 58.4191C6.26324 58.549 6.15174 58.7123 6.0433 58.9092C5.93559 59.1018 5.85651 59.3454 5.80606 59.6401C5.75853 59.9178 5.75493 60.1699 5.79525 60.3967C5.83204 60.6184 5.90207 60.8128 6.00534 60.98C6.10935 61.1429 6.2427 61.2756 6.40539 61.3782C6.5638 61.4801 6.74339 61.5482 6.94413 61.5825C7.2004 61.6264 7.42457 61.601 7.61662 61.5064C7.80513 61.4068 7.97673 61.2647 8.13142 61.0802C8.28684 60.8913 8.4317 60.6743 8.566 60.4292C8.69676 60.179 8.83252 59.9252 8.97328 59.668C9.11477 59.4064 9.26762 59.1556 9.43182 58.9155C9.59247 58.6705 9.78004 58.4608 9.99453 58.2865C10.2097 58.1079 10.4582 57.979 10.74 57.8997C11.0225 57.8162 11.3538 57.807 11.7339 57.872C12.1354 57.9408 12.5017 58.0738 12.8328 58.2712C13.1596 58.4678 13.4307 58.7208 13.6459 59.0303C13.8618 59.3354 14.0116 59.693 14.0953 60.103C14.1797 60.5087 14.1803 60.955 14.0969 61.4419C13.9945 62.0399 13.7949 62.5641 13.498 63.0144C13.1968 63.4641 12.8329 63.8304 12.4064 64.1135L11.8784 63.6538C11.8373 63.6116 11.8058 63.5644 11.7839 63.5123C11.7585 63.4552 11.7509 63.3968 11.7612 63.337C11.7707 63.2815 11.8048 63.2236 11.8634 63.1633C11.9186 63.098 11.988 63.0263 12.0717 62.9483C12.1554 62.8703 12.2477 62.7806 12.3486 62.6792C12.4495 62.5777 12.5465 62.4603 12.6397 62.3267C12.7337 62.189 12.8202 62.0301 12.8994 61.8502C12.9742 61.6696 13.0318 61.4618 13.072 61.2269C13.1225 60.9322 13.1268 60.6626 13.0852 60.418C13.0435 60.1735 12.9636 59.9598 12.8454 59.7769C12.7237 59.589 12.5677 59.4348 12.3773 59.3143C12.1869 59.1937 11.9657 59.1119 11.7137 59.0688C11.4361 59.0212 11.1987 59.0466 11.0017 59.1447C10.8011 59.2379 10.6234 59.3767 10.4687 59.5613C10.314 59.7458 10.1734 59.9635 10.047 60.2145C9.9162 60.4647 9.78472 60.7191 9.6525 60.9779C9.516 61.2359 9.36743 61.4874 9.20678 61.7325C9.04612 61.9775 8.85641 62.1869 8.63765 62.3604C8.4189 62.534 8.16187 62.6615 7.86658 62.7428C7.56775 62.8192 7.21545 62.8226 6.80968 62.7531C6.48507 62.6976 6.18174 62.5819 5.89969 62.4061C5.61837 62.2261 5.38073 61.9963 5.18676 61.7169C4.99352 61.4333 4.8564 61.1042 4.77541 60.7299C4.69515 60.3512 4.69414 59.9334 4.77237 59.4764C4.86012 58.9638 5.02097 58.5122 5.25493 58.1214C5.48962 57.7263 5.78815 57.3949 6.15052 57.1272L6.68839 57.5293Z" fill="black"/>
<path d="M7.93405 46.5838L8.2694 45.7448L19.6286 50.2852L19.2932 51.1242L7.93405 46.5838Z" fill="black"/>
<path d="M18.322 32.078C18.3542 32.1466 18.3715 32.2103 18.3737 32.2692C18.3748 32.3221 18.3572 32.3755 18.3209 32.4295C18.2799 32.4907 18.201 32.5421 18.0843 32.5839C17.9676 32.6256 17.831 32.6853 17.6746 32.7629C17.5169 32.8346 17.3483 32.938 17.1689 33.0733C16.9918 33.205 16.82 33.395 16.6534 33.6432C16.4964 33.8771 16.39 34.1058 16.334 34.3292C16.2769 34.5465 16.2613 34.7526 16.2871 34.9474C16.3154 35.1385 16.3828 35.3142 16.4893 35.4744C16.5922 35.6321 16.7282 35.7677 16.8973 35.8812C17.1132 36.0261 17.3281 36.0946 17.5421 36.0869C17.7549 36.0731 17.9696 36.0136 18.1862 35.9085C18.4053 35.7998 18.6262 35.661 18.8491 35.4922C19.0707 35.3174 19.2984 35.1414 19.5321 34.9642C19.7682 34.7834 20.0103 34.6171 20.2583 34.4652C20.5051 34.3073 20.7621 34.1927 21.0291 34.1214C21.2985 34.0464 21.578 34.0305 21.8675 34.0734C22.1595 34.1127 22.4656 34.2398 22.7858 34.4547C23.1241 34.6816 23.4039 34.9529 23.6253 35.2684C23.8431 35.5816 23.9869 35.9233 24.0567 36.2937C24.129 36.6605 24.1194 37.0481 24.028 37.4564C23.9391 37.8612 23.757 38.2687 23.4818 38.6789C23.1438 39.1827 22.7472 39.5793 22.292 39.8688C21.8332 40.1559 21.3513 40.3413 20.8463 40.4252L20.5526 39.7897C20.5323 39.7344 20.5228 39.6784 20.5242 39.622C20.5244 39.5595 20.5414 39.503 20.5752 39.4526C20.6066 39.4059 20.6614 39.367 20.7396 39.336C20.8166 39.2989 20.9093 39.2619 21.0175 39.225C21.1258 39.1881 21.2467 39.144 21.3803 39.0927C21.5139 39.0414 21.6505 38.9739 21.7901 38.8902C21.9322 38.8029 22.0762 38.6933 22.222 38.5616C22.3642 38.4274 22.5017 38.2613 22.6345 38.0634C22.8011 37.8151 22.9154 37.5709 22.9774 37.3307C23.0394 37.0905 23.0539 36.8628 23.0209 36.6476C22.9867 36.4263 22.9074 36.2218 22.7829 36.0339C22.6585 35.8461 22.4901 35.6809 22.2778 35.5385C22.0439 35.3815 21.817 35.3075 21.597 35.3165C21.3759 35.3194 21.157 35.3735 20.9403 35.4786C20.7237 35.5837 20.5063 35.7249 20.2883 35.9021C20.0666 36.0769 19.8425 36.2553 19.6161 36.4373C19.386 36.6169 19.1475 36.7857 18.9006 36.9436C18.6538 37.1015 18.3951 37.2149 18.1244 37.2838C17.8538 37.3527 17.5671 37.3639 17.2644 37.3173C16.9605 37.2647 16.6376 37.1238 16.2958 36.8944C16.0223 36.7109 15.7928 36.4813 15.6074 36.2055C15.4243 35.9261 15.3014 35.6193 15.2387 35.285C15.1784 34.9471 15.1879 34.5908 15.2671 34.216C15.3488 33.8377 15.5188 33.456 15.7771 33.071C16.0668 32.6391 16.3984 32.2928 16.7717 32.0319C17.1475 31.7674 17.5555 31.5871 17.9956 31.4911L18.322 32.078Z" fill="black"/>
<path d="M33.9849 20.6352C34.4513 21.1541 34.7979 21.7049 35.0246 22.2877C35.2485 22.8673 35.3511 23.4481 35.3324 24.0301C35.3137 24.6121 35.1714 25.1799 34.9057 25.7334C34.6403 26.2808 34.253 26.7834 33.7439 27.2411C33.2347 27.6988 32.6938 28.0306 32.1214 28.2364C31.546 28.439 30.9679 28.5187 30.3872 28.4755C29.8065 28.4323 29.2399 28.2687 28.6873 27.9846C28.1319 27.6973 27.621 27.2942 27.1546 26.7754C26.6881 26.2565 26.343 25.7073 26.1192 25.1277C25.8924 24.5449 25.7884 23.9625 25.8071 23.3805C25.8229 22.7953 25.9621 22.2273 26.2246 21.6767C26.4871 21.1261 26.8729 20.6219 27.3821 20.1642C27.8913 19.7065 28.4336 19.3763 29.0089 19.1737C29.5875 18.9683 30.1686 18.8887 30.7523 18.9351C31.333 18.9783 31.901 19.1435 32.4565 19.4308C33.009 19.7149 33.5185 20.1164 33.9849 20.6352ZM33.023 21.5C32.6406 21.0746 32.2393 20.7449 31.8191 20.5108C31.3989 20.2767 30.9781 20.1392 30.5569 20.0984C30.1327 20.0544 29.7127 20.1056 29.2967 20.2523C28.8808 20.3989 28.486 20.6402 28.1121 20.9763C27.7415 21.3094 27.4613 21.675 27.2713 22.073C27.0814 22.471 26.9842 22.8847 26.9797 23.314C26.9756 23.7373 27.0677 24.1702 27.2558 24.6129C27.444 25.0556 27.7293 25.4896 28.1117 25.915C28.4941 26.3404 28.8954 26.6701 29.3156 26.9042C29.7329 27.135 30.1536 27.2725 30.5778 27.3165C31.0023 27.3545 31.4225 27.3001 31.8384 27.1535C32.2514 27.0036 32.6432 26.7621 33.0138 26.429C33.3876 26.0929 33.671 25.7275 33.8638 25.3328C34.0538 24.9348 34.1508 24.5241 34.1549 24.1009C34.1561 23.6745 34.0641 23.2415 33.8788 22.8021C33.6907 22.3594 33.4054 21.9254 33.023 21.5Z" fill="black"/>
<path d="M47.3779 17.11L47.8765 18.0449L43.2136 20.5315L38.8307 12.3126L39.9376 11.7223L43.822 19.0063L47.3779 17.11Z" fill="black"/>
<path d="M59.0506 10.8618L56.6692 7.57114C56.5986 7.47326 56.5214 7.35918 56.4377 7.2289C56.3529 7.09443 56.268 6.95102 56.1829 6.79868C56.1845 7.16128 56.1691 7.46787 56.1367 7.71846L55.6883 11.7495L59.0506 10.8618ZM62.4723 13.5349L61.5296 13.7838C61.4207 13.8125 61.3255 13.8085 61.2441 13.7717C61.1627 13.735 61.0942 13.6791 61.0385 13.6042L59.6223 11.652L55.5812 12.7189L55.3132 15.1157C55.308 15.1978 55.2775 15.2775 55.2217 15.355C55.166 15.4325 55.0858 15.485 54.981 15.5127L54.0383 15.7616L55.2617 5.80491L56.4935 5.4797L62.4723 13.5349Z" fill="black"/>
<path d="M71.7123 8.23233C72.0762 8.22658 72.3962 8.17819 72.6721 8.08715C72.9523 7.99171 73.1843 7.86236 73.3681 7.6991C73.5561 7.53144 73.696 7.33421 73.7878 7.1074C73.8795 6.88058 73.9233 6.63069 73.9189 6.35773C73.9102 5.80313 73.7216 5.38789 73.3532 5.11201C72.9848 4.83613 72.4366 4.70395 71.7087 4.71545L70.3309 4.73723L70.3865 8.25329L71.7123 8.23233ZM76.0907 12.9672L74.9728 12.9849C74.7432 12.9885 74.5728 12.9024 74.4617 12.7264L71.9914 9.43708C71.9161 9.33425 71.8347 9.26186 71.7474 9.2199C71.6643 9.17354 71.534 9.15177 71.3563 9.15458L70.4009 9.16967L70.4624 13.0562L69.208 13.076L69.0608 3.76268L71.693 3.72108C72.2823 3.71176 72.7923 3.76438 73.2232 3.87891C73.654 3.98912 74.0098 4.15468 74.2907 4.37561C74.5759 4.59646 74.7881 4.86614 74.9275 5.18464C75.0668 5.49881 75.1396 5.85304 75.1459 6.24733C75.1511 6.57662 75.1039 6.88507 75.0045 7.17268C74.905 7.46028 74.7574 7.72048 74.5617 7.95327C74.3703 8.18166 74.1329 8.37827 73.8495 8.5431C73.5704 8.70786 73.2517 8.83425 72.8933 8.92226C73.0551 9.01071 73.1958 9.14067 73.3156 9.31213L76.0907 12.9672Z" fill="black"/>
<path d="M89.8273 7.52077C89.775 7.57563 89.7218 7.61474 89.6677 7.6381C89.6187 7.65818 89.5625 7.66109 89.4991 7.64683C89.4273 7.63066 89.3508 7.57571 89.2697 7.48196C89.1886 7.38822 89.0836 7.28243 88.9547 7.16459C88.8309 7.04348 88.6735 6.92369 88.4825 6.80522C88.2958 6.68771 88.0565 6.59614 87.7648 6.53052C87.49 6.46871 87.2384 6.45208 87.0099 6.48063C86.7866 6.50591 86.5888 6.5658 86.4165 6.66029C86.2484 6.75574 86.109 6.88205 85.9981 7.03922C85.8882 7.19217 85.8109 7.36799 85.7662 7.56669C85.7092 7.82035 85.7229 8.04553 85.8075 8.24221C85.8972 8.43562 86.0303 8.61434 86.2066 8.77836C86.3871 8.94333 86.5963 9.09921 86.8342 9.246C87.0773 9.38951 87.3237 9.5382 87.5734 9.69207C87.8272 9.84689 88.0698 10.0125 88.3011 10.1889C88.5375 10.362 88.7372 10.5601 88.9002 10.7834C89.0674 11.0075 89.1833 11.2623 89.2479 11.5478C89.3168 11.8342 89.3089 12.1656 89.2242 12.5418C89.1348 12.9392 88.983 13.2982 88.7688 13.6186C88.5556 13.9349 88.2889 14.1925 87.9687 14.3914C87.6528 14.5913 87.288 14.7224 86.8742 14.7848C86.4647 14.8481 86.0189 14.8256 85.537 14.7172C84.9451 14.584 84.4319 14.3576 83.9975 14.0378C83.5641 13.7138 83.217 13.3315 82.9563 12.8908L83.4427 12.3873C83.487 12.3484 83.5357 12.3194 83.5889 12.3003C83.6472 12.2778 83.706 12.2733 83.7652 12.2866C83.8201 12.299 83.8762 12.336 83.9334 12.3977C83.9957 12.4562 84.0637 12.5292 84.1373 12.6168C84.2108 12.7044 84.2957 12.8012 84.3917 12.9072C84.4878 13.0132 84.6001 13.1162 84.7286 13.2162C84.8614 13.3171 85.0156 13.4118 85.1911 13.5001C85.3676 13.5842 85.5721 13.6524 85.8047 13.7047C86.0964 13.7704 86.3654 13.7887 86.6118 13.7597C86.8581 13.7307 87.0757 13.662 87.2645 13.5534C87.4584 13.4416 87.6205 13.2937 87.7507 13.1098C87.8809 12.9259 87.974 12.7092 88.0301 12.4598C88.0919 12.185 88.0789 11.9466 87.9911 11.7448C87.9084 11.5396 87.7789 11.3551 87.6026 11.191C87.4263 11.027 87.2161 10.8754 86.9721 10.7361C86.729 10.5926 86.4817 10.4481 86.2301 10.3027C85.9795 10.153 85.736 9.99167 85.4996 9.81856C85.2631 9.64545 85.0639 9.44518 84.9018 9.21775C84.7398 8.99031 84.6258 8.72704 84.5598 8.42794C84.499 8.12556 84.5138 7.77355 84.6041 7.37192C84.6764 7.05062 84.8076 6.75367 84.9977 6.48108C85.1921 6.20944 85.4338 5.98399 85.7228 5.80472C86.0161 5.6264 86.3518 5.50647 86.7298 5.44493C87.1121 5.38435 87.5294 5.40493 87.9818 5.50668C88.4891 5.62079 88.9319 5.80477 89.3101 6.05862C89.6925 6.31342 90.008 6.62867 90.2566 7.00439L89.8273 7.52077Z" fill="black"/>
<path d="M101.195 16.5185L99.5531 19.8469L98.4223 19.289L100.064 15.9606L99.4829 9.42597L100.474 9.91486C100.575 9.9647 100.642 10.0293 100.675 10.1085C100.711 10.1839 100.731 10.271 100.735 10.3698L101.045 14.56C101.048 14.7305 101.049 14.8904 101.048 15.0396C101.049 15.185 101.041 15.3284 101.024 15.47C101.126 15.3706 101.233 15.276 101.345 15.1863C101.459 15.0926 101.582 14.9941 101.716 14.8907L105.224 12.5842C105.291 12.5354 105.369 12.4991 105.458 12.4754C105.547 12.4517 105.641 12.4638 105.738 12.5117L106.734 13.0034L101.195 16.5185Z" fill="black"/>
<path d="M117.298 22.771C117.227 22.7959 117.161 22.8064 117.103 22.8025C117.05 22.798 116.999 22.775 116.949 22.7333C116.892 22.6861 116.849 22.6023 116.82 22.4819C116.79 22.3615 116.745 22.2194 116.684 22.0557C116.63 21.8915 116.544 21.713 116.428 21.5204C116.316 21.3306 116.145 21.1399 115.915 20.9484C115.699 20.7679 115.483 20.6382 115.266 20.5593C115.056 20.4798 114.853 20.4428 114.656 20.4482C114.463 20.4564 114.282 20.5052 114.111 20.5944C113.944 20.6803 113.795 20.8014 113.664 20.9578C113.498 21.1574 113.407 21.364 113.392 21.5776C113.384 21.7907 113.421 22.0104 113.503 22.2368C113.588 22.466 113.703 22.7002 113.848 22.9395C113.998 23.1781 114.15 23.4229 114.302 23.6738C114.457 23.9274 114.597 24.1855 114.722 24.448C114.854 24.71 114.941 24.9775 114.984 25.2505C115.03 25.5262 115.017 25.8059 114.944 26.0893C114.875 26.3756 114.716 26.6668 114.469 26.9629C114.208 27.2757 113.909 27.5257 113.573 27.713C113.238 27.897 112.884 28.0044 112.508 28.0353C112.136 28.0689 111.751 28.019 111.354 27.8856C110.961 27.755 110.575 27.5314 110.196 27.2149C109.73 26.8262 109.377 26.3905 109.136 25.9076C108.898 25.4215 108.764 24.9229 108.733 24.4119L109.396 24.1859C109.453 24.1715 109.51 24.1679 109.566 24.1752C109.628 24.1819 109.682 24.2047 109.729 24.2435C109.772 24.2796 109.805 24.3382 109.828 24.4192C109.857 24.4997 109.884 24.5957 109.909 24.7072C109.935 24.8187 109.966 24.9436 110.003 25.0818C110.04 25.2199 110.093 25.3628 110.162 25.5105C110.234 25.6609 110.328 25.8154 110.444 25.9742C110.562 26.1296 110.713 26.2837 110.896 26.4364C111.126 26.6279 111.357 26.7671 111.589 26.8538C111.821 26.9404 112.046 26.9786 112.264 26.9682C112.487 26.9572 112.699 26.8997 112.899 26.7955C113.099 26.6913 113.281 26.541 113.444 26.3447C113.625 26.1285 113.722 25.9105 113.736 25.6908C113.756 25.4705 113.725 25.2472 113.643 25.0208C113.561 24.7943 113.444 24.5635 113.29 24.3281C113.139 24.0895 112.985 23.848 112.828 23.6038C112.673 23.3562 112.53 23.1015 112.399 22.8395C112.267 22.5776 112.182 22.3084 112.141 22.0321C112.101 21.7558 112.12 21.4695 112.198 21.1733C112.282 20.8765 112.455 20.57 112.719 20.254C112.93 20.0011 113.182 19.7968 113.476 19.6411C113.773 19.4881 114.091 19.3979 114.43 19.3703C114.772 19.3456 115.126 19.3921 115.49 19.51C115.858 19.6306 116.22 19.8394 116.576 20.1365C116.975 20.4696 117.285 20.8355 117.506 21.234C117.729 21.6352 117.866 22.0598 117.916 22.5075L117.298 22.771Z" fill="black"/>
<path d="M126.14 29.342L126.697 30.0531L117.069 37.599L116.512 36.8878L126.14 29.342Z" fill="black"/>
<path d="M133.472 45.6073C133.397 45.6008 133.333 45.5837 133.281 45.5561C133.235 45.5304 133.197 45.4884 133.169 45.43C133.136 45.3638 133.132 45.2698 133.154 45.1479C133.177 45.026 133.193 44.8779 133.205 44.7036C133.222 44.5313 133.217 44.3335 133.19 44.1104C133.165 43.8912 133.087 43.6472 132.956 43.3785C132.832 43.1254 132.688 42.9185 132.523 42.758C132.364 42.5995 132.193 42.4826 132.012 42.4072C131.832 42.3357 131.647 42.3058 131.455 42.3175C131.266 42.3273 131.081 42.3769 130.898 42.4662C130.664 42.5802 130.497 42.7317 130.396 42.9207C130.302 43.1116 130.245 43.3272 130.227 43.5673C130.211 43.8114 130.221 44.0721 130.255 44.3496C130.295 44.629 130.333 44.9143 130.369 45.2053C130.406 45.5003 130.429 45.7931 130.436 46.0839C130.448 46.3767 130.419 46.6564 130.346 46.9232C130.276 47.1938 130.149 47.4436 129.967 47.6724C129.786 47.9052 129.523 48.1061 129.176 48.2753C128.81 48.4539 128.435 48.5598 128.051 48.5929C127.671 48.6242 127.303 48.577 126.948 48.4515C126.594 48.3299 126.264 48.1271 125.956 47.8431C125.651 47.563 125.39 47.201 125.173 46.757C124.907 46.2118 124.763 45.6697 124.741 45.1308C124.723 44.5899 124.805 44.08 124.986 43.6011L125.683 43.666C125.741 43.6762 125.794 43.6961 125.842 43.7256C125.896 43.7572 125.936 43.8002 125.963 43.8547C125.988 43.9053 125.994 43.9723 125.981 44.0555C125.975 44.1407 125.96 44.2394 125.938 44.3516C125.915 44.4638 125.893 44.5905 125.87 44.7317C125.847 44.873 125.837 45.025 125.84 45.1878C125.844 45.3546 125.866 45.534 125.907 45.7263C125.952 45.9167 126.026 46.1189 126.131 46.3331C126.262 46.6018 126.416 46.8233 126.593 46.9975C126.769 47.1716 126.959 47.2985 127.162 47.378C127.37 47.4594 127.587 47.4935 127.812 47.4801C128.037 47.4668 128.264 47.4041 128.494 47.292C128.747 47.1684 128.925 47.0093 129.027 46.8145C129.136 46.6218 129.199 46.4053 129.217 46.1652C129.235 45.925 129.222 45.6662 129.178 45.3886C129.138 45.1092 129.096 44.8258 129.052 44.5386C129.012 44.2494 128.986 43.9585 128.974 43.6657C128.961 43.3729 128.993 43.0922 129.069 42.8236C129.145 42.5549 129.279 42.3014 129.472 42.0629C129.67 41.8264 129.954 41.6179 130.323 41.4374C130.619 41.293 130.933 41.2097 131.265 41.1877C131.598 41.1696 131.925 41.2174 132.246 41.3309C132.569 41.4484 132.872 41.6354 133.156 41.892C133.443 42.1525 133.687 42.4912 133.891 42.9078C134.119 43.3752 134.252 43.8358 134.29 44.2896C134.33 44.7474 134.282 45.1907 134.144 45.6196L133.472 45.6073Z" fill="black"/>
<path d="M135.508 64.8977C134.825 65.0407 134.175 65.064 133.557 64.9676C132.943 64.8703 132.389 64.6675 131.895 64.3592C131.401 64.0509 130.982 63.643 130.636 63.1353C130.296 62.631 130.056 62.0438 129.915 61.3737C129.775 60.7035 129.759 60.0692 129.869 59.4708C129.982 58.8715 130.204 58.3315 130.532 57.8509C130.861 57.3703 131.287 56.9623 131.81 56.627C132.337 56.2908 132.942 56.0512 133.625 55.9082C134.308 55.7652 134.956 55.7424 135.57 55.8397C136.188 55.9361 136.744 56.1384 137.238 56.4467C137.736 56.7541 138.158 57.1595 138.502 57.663C138.847 58.1664 139.089 58.7531 139.229 59.4233C139.37 60.0934 139.383 60.7281 139.269 61.3275C139.157 61.9311 138.934 62.4736 138.601 62.9551C138.272 63.4357 137.844 63.8441 137.317 64.1803C136.794 64.5156 136.191 64.7547 135.508 64.8977ZM135.243 63.6317C135.803 63.5145 136.289 63.3329 136.703 63.0869C137.116 62.841 137.446 62.5461 137.693 62.2022C137.944 61.8574 138.11 61.4684 138.192 61.0351C138.274 60.6017 138.263 60.1391 138.16 59.6471C138.058 59.1593 137.883 58.7334 137.634 58.3694C137.385 58.0053 137.076 57.7136 136.707 57.4943C136.343 57.2783 135.922 57.1406 135.445 57.0812C134.968 57.0218 134.449 57.0507 133.889 57.1679C133.329 57.2851 132.843 57.4667 132.429 57.7127C132.02 57.9577 131.69 58.2526 131.439 58.5974C131.193 58.9455 131.029 59.3362 130.947 59.7696C130.87 60.202 130.882 60.6621 130.984 61.1498C131.087 61.6418 131.261 62.0703 131.506 62.4352C131.755 62.7993 132.061 63.0893 132.425 63.3053C132.793 63.5204 133.214 63.6581 133.687 63.7184C134.164 63.7778 134.683 63.7489 135.243 63.6317Z" fill="black"/>
<path d="M131.835 78.251L130.776 78.2129L130.966 72.9318L140.274 73.2662L140.229 74.5199L131.979 74.2236L131.835 78.251Z" fill="black"/>
<path d="M131.38 91.4829L135.422 91.0748C135.542 91.0628 135.679 91.0533 135.834 91.0463C135.993 91.0405 136.16 91.039 136.334 91.0419C136.02 90.8613 135.762 90.6941 135.562 90.5403L132.3 88.1293L131.38 91.4829ZM127.351 93.1007L127.609 92.1605C127.639 92.0518 127.69 91.9715 127.763 91.9195C127.835 91.8676 127.918 91.8363 128.011 91.8258L130.41 91.5807L131.515 87.5501L129.577 86.1152C129.509 86.0695 129.455 86.0031 129.416 85.916C129.377 85.8289 129.372 85.7332 129.4 85.6287L129.658 84.6884L137.656 90.7439L137.319 91.9726L127.351 93.1007Z" fill="black"/>
<path d="M127.3 103.754C127.122 104.072 127.003 104.373 126.943 104.657C126.885 104.947 126.881 105.213 126.93 105.454C126.98 105.7 127.081 105.92 127.231 106.114C127.381 106.307 127.575 106.47 127.813 106.603C128.297 106.874 128.751 106.919 129.175 106.739C129.598 106.559 129.988 106.151 130.343 105.516L131.016 104.313L127.947 102.597L127.3 103.754ZM121.007 105.164L121.553 104.189C121.665 103.988 121.825 103.884 122.033 103.876L126.118 103.391C126.244 103.377 126.348 103.343 126.428 103.289C126.51 103.24 126.594 103.138 126.681 102.983L127.147 102.149L123.755 100.252L124.367 99.1568L132.496 103.704L131.211 106.002C130.923 106.516 130.622 106.931 130.307 107.246C129.995 107.563 129.673 107.788 129.341 107.92C129.007 108.056 128.667 108.104 128.322 108.065C127.98 108.027 127.637 107.912 127.293 107.72C127.006 107.559 126.763 107.364 126.564 107.133C126.365 106.903 126.214 106.645 126.111 106.359C126.009 106.078 125.958 105.774 125.958 105.446C125.956 105.122 126.006 104.783 126.11 104.429C125.952 104.525 125.769 104.581 125.561 104.599L121.007 105.164Z" fill="black"/>
<path d="M118.823 119.779C118.802 119.706 118.794 119.641 118.801 119.582C118.809 119.53 118.834 119.48 118.878 119.432C118.928 119.378 119.014 119.339 119.136 119.316C119.258 119.293 119.402 119.255 119.569 119.203C119.736 119.157 119.918 119.081 120.117 118.975C120.312 118.873 120.511 118.712 120.714 118.492C120.906 118.286 121.046 118.076 121.136 117.864C121.227 117.658 121.274 117.457 121.279 117.261C121.281 117.068 121.241 116.884 121.161 116.709C121.084 116.537 120.971 116.382 120.821 116.244C120.631 116.067 120.429 115.966 120.216 115.94C120.004 115.921 119.783 115.946 119.552 116.016C119.319 116.09 119.079 116.192 118.833 116.324C118.587 116.463 118.334 116.601 118.076 116.74C117.815 116.882 117.55 117.008 117.281 117.12C117.013 117.237 116.741 117.311 116.466 117.34C116.188 117.372 115.91 117.344 115.63 117.257C115.348 117.173 115.066 116.999 114.783 116.737C114.484 116.461 114.249 116.149 114.08 115.803C113.913 115.46 113.824 115.1 113.813 114.723C113.799 114.35 113.868 113.968 114.022 113.579C114.173 113.193 114.416 112.819 114.752 112.456C115.164 112.011 115.617 111.681 116.112 111.466C116.61 111.254 117.115 111.145 117.627 111.141L117.818 111.814C117.829 111.872 117.83 111.929 117.82 111.984C117.81 112.046 117.785 112.099 117.743 112.144C117.705 112.185 117.645 112.215 117.563 112.233C117.481 112.258 117.384 112.28 117.271 112.3C117.158 112.32 117.032 112.344 116.892 112.374C116.752 112.404 116.607 112.45 116.456 112.511C116.302 112.575 116.143 112.661 115.978 112.768C115.817 112.878 115.655 113.021 115.493 113.196C115.29 113.415 115.139 113.639 115.04 113.866C114.942 114.094 114.892 114.317 114.891 114.535C114.891 114.758 114.937 114.973 115.031 115.178C115.125 115.383 115.265 115.572 115.453 115.746C115.66 115.937 115.872 116.045 116.091 116.071C116.31 116.102 116.534 116.083 116.765 116.013C116.995 115.943 117.232 115.837 117.475 115.696C117.721 115.558 117.97 115.416 118.222 115.272C118.477 115.13 118.739 115 119.007 114.883C119.276 114.765 119.549 114.693 119.827 114.667C120.105 114.641 120.39 114.675 120.682 114.768C120.974 114.867 121.271 115.056 121.573 115.336C121.815 115.56 122.006 115.822 122.146 116.124C122.283 116.428 122.357 116.75 122.367 117.09C122.374 117.434 122.309 117.784 122.173 118.142C122.033 118.503 121.806 118.854 121.491 119.194C121.138 119.575 120.756 119.866 120.347 120.066C119.935 120.268 119.504 120.383 119.054 120.41L118.823 119.779Z" fill="black"/>
<path d="M105.335 125.095L103.28 122.004L104.33 121.306L106.385 124.397L112.329 127.174L111.409 127.786C111.315 127.848 111.225 127.874 111.14 127.863C111.057 127.856 110.972 127.829 110.884 127.783L107.104 125.949C106.955 125.865 106.816 125.786 106.688 125.71C106.562 125.638 106.442 125.559 106.328 125.473C106.362 125.612 106.39 125.752 106.412 125.894C106.436 126.039 106.459 126.195 106.482 126.362L106.716 130.554C106.724 130.637 106.716 130.723 106.692 130.812C106.668 130.901 106.611 130.975 106.521 131.035L105.595 131.651L105.335 125.095Z" fill="black"/>
<path d="M91.8447 135.885C91.8591 135.81 91.8827 135.749 91.9156 135.7C91.946 135.656 91.9916 135.624 92.0527 135.601C92.1219 135.576 92.216 135.581 92.3348 135.616C92.4537 135.651 92.5992 135.684 92.7714 135.713C92.941 135.748 93.1382 135.764 93.3629 135.76C93.5835 135.758 93.8343 135.706 94.1152 135.604C94.3798 135.507 94.6006 135.385 94.7774 135.238C94.9517 135.096 95.0857 134.938 95.1796 134.766C95.2695 134.595 95.3185 134.413 95.3269 134.221C95.3367 134.033 95.3068 133.843 95.237 133.652C95.1479 133.407 95.0147 133.225 94.8372 133.106C94.6572 132.991 94.4487 132.913 94.2117 132.87C93.9707 132.829 93.7104 132.811 93.4309 132.816C93.1488 132.826 92.8611 132.834 92.5679 132.84C92.2706 132.847 91.977 132.839 91.6871 132.815C91.3946 132.797 91.1195 132.738 90.8618 132.639C90.5999 132.54 90.3647 132.389 90.1561 132.183C89.9434 131.979 89.771 131.696 89.6389 131.334C89.4994 130.951 89.4332 130.567 89.4402 130.182C89.4488 129.801 89.534 129.44 89.6959 129.099C89.8537 128.76 90.0898 128.453 90.4042 128.177C90.7146 127.902 91.1019 127.68 91.566 127.511C92.1359 127.303 92.6901 127.217 93.2284 127.251C93.7682 127.289 94.2669 127.424 94.7243 127.653L94.5871 128.34C94.5709 128.397 94.5456 128.447 94.5112 128.492C94.4742 128.543 94.4272 128.578 94.3702 128.599C94.3173 128.618 94.2501 128.617 94.1686 128.596C94.0846 128.581 93.9879 128.556 93.8787 128.522C93.7694 128.488 93.6458 128.453 93.5076 128.415C93.3695 128.378 93.2194 128.352 93.0572 128.337C92.891 128.324 92.7101 128.328 92.5146 128.348C92.3207 128.373 92.1117 128.426 91.8878 128.508C91.6069 128.61 91.3706 128.74 91.179 128.898C90.9873 129.055 90.8414 129.231 90.7413 129.424C90.6385 129.623 90.5821 129.835 90.5719 130.06C90.5617 130.285 90.6004 130.518 90.688 130.758C90.7845 131.022 90.9242 131.216 91.1072 131.338C91.2876 131.466 91.4963 131.552 91.7333 131.594C91.9703 131.637 92.2291 131.651 92.5097 131.637C92.7918 131.626 93.078 131.614 93.3682 131.6C93.6599 131.591 93.952 131.595 94.2445 131.613C94.537 131.631 94.8129 131.692 95.0721 131.795C95.3314 131.899 95.5696 132.059 95.7867 132.275C96.0012 132.497 96.179 132.801 96.32 133.188C96.4329 133.497 96.4829 133.818 96.4703 134.15C96.4535 134.483 96.372 134.804 96.2256 135.111C96.0752 135.419 95.8576 135.702 95.5727 135.958C95.2838 136.215 94.9215 136.423 94.4859 136.582C93.9974 136.76 93.5254 136.845 93.07 136.836C92.6106 136.828 92.1747 136.733 91.7625 136.551L91.8447 135.885Z" fill="black"/>
<path d="M81.7234 140.234L80.8286 140.359L79.1347 128.244L80.0295 128.119L81.7234 140.234Z" fill="black"/>
</svg>
