<svg width="56" height="57" viewBox="0 0 56 57" fill="none" xmlns="http://www.w3.org/2000/svg">
<path fill-rule="evenodd" clip-rule="evenodd" d="M9.40503 19.1666C8.30046 19.1666 7.40503 20.0621 7.40503 21.1666V45.1666C7.40503 46.2712 8.30046 47.1666 9.40503 47.1666H46.5952C47.6997 47.1666 48.5952 46.2712 48.5952 45.1666V21.1666C48.5952 20.0621 47.6997 19.1666 46.5952 19.1666H9.40503ZM23.8333 23.8333C23.5572 23.8333 23.3333 24.0572 23.3333 24.3333V28C23.3333 28.2761 23.5572 28.5 23.8333 28.5H32.1666C32.4428 28.5 32.6666 28.2761 32.6666 28V24.3333C32.6666 24.0572 32.4428 23.8333 32.1666 23.8333H23.8333Z" fill="#FDB816"/>
<path opacity="0.3" d="M23.3334 19.1667H18.6667V16.8334C18.6667 12.9674 21.8008 9.83337 25.6667 9.83337H30.3334C34.1994 9.83337 37.3334 12.9674 37.3334 16.8334V19.1667H32.6667V16.8334C32.6667 15.5447 31.6221 14.5 30.3334 14.5H25.6667C24.3781 14.5 23.3334 15.5447 23.3334 16.8334V19.1667Z" fill="#FDB816"/>
</svg>
