<svg width="56" height="57" viewBox="0 0 56 57" fill="none" xmlns="http://www.w3.org/2000/svg">
<path fill-rule="evenodd" clip-rule="evenodd" d="M11 7.5C8.79086 7.5 7 9.29086 7 11.5V22.1667C7 24.3758 8.79086 26.1667 11 26.1667H45C47.2091 26.1667 49 24.3758 49 22.1667V11.5C49 9.29086 47.2091 7.5 45 7.5H11ZM21 16.8333C21 19.4107 18.9107 21.5 16.3333 21.5C13.756 21.5 11.6667 19.4107 11.6667 16.8333C11.6667 14.256 13.756 12.1667 16.3333 12.1667C18.9107 12.1667 21 14.256 21 16.8333Z" fill="#FDB816"/>
<path opacity="0.3" fill-rule="evenodd" clip-rule="evenodd" d="M11 30.8334C8.79086 30.8334 7 32.6242 7 34.8334V45.5C7 47.7092 8.79086 49.5 11 49.5H45C47.2091 49.5 49 47.7092 49 45.5V34.8334C49 32.6242 47.2091 30.8334 45 30.8334H11ZM44.3333 40.1667C44.3333 42.744 42.244 44.8334 39.6667 44.8334C37.0893 44.8334 35 42.744 35 40.1667C35 37.5894 37.0893 35.5 39.6667 35.5C42.244 35.5 44.3333 37.5894 44.3333 40.1667Z" fill="#FDB816"/>
</svg>
