<svg width="56" height="56" viewBox="0 0 56 56" fill="none" xmlns="http://www.w3.org/2000/svg">
<rect width="56" height="56" rx="28" fill="#FEB916" fill-opacity="0.75"/>
<rect opacity="0.3" x="27.3333" y="14.6667" width="2.66667" height="5.33333" rx="1" fill="#13273B"/>
<rect opacity="0.3" x="27.3333" y="33.3333" width="2.66667" height="6.66667" rx="1" fill="#13273B"/>
<path fill-rule="evenodd" clip-rule="evenodd" d="M32.6574 22.7254C32.2858 22.2525 31.8003 21.8767 31.2007 21.598C30.6012 21.3194 30.0227 21.18 29.4654 21.18C29.1783 21.18 28.8869 21.2054 28.5914 21.256C28.2958 21.3067 28.0298 21.4038 27.7934 21.5474C27.5569 21.6909 27.3585 21.8767 27.198 22.1047C27.0376 22.3327 26.9574 22.624 26.9574 22.9787C26.9574 23.2827 27.0207 23.536 27.1474 23.7387C27.274 23.9414 27.4598 24.1187 27.7047 24.2707C27.9496 24.4227 28.2409 24.562 28.5787 24.6887C28.9165 24.8154 29.2965 24.9463 29.7187 25.0814C30.3267 25.284 30.96 25.5078 31.6187 25.7527C32.2774 25.9976 32.8769 26.3227 33.4174 26.728C33.9578 27.1334 34.4054 27.6358 34.76 28.2354C35.1147 28.8349 35.292 29.5823 35.292 30.4774C35.292 31.5076 35.102 32.3985 34.722 33.15C34.342 33.9016 33.8312 34.5223 33.1894 35.012C32.5476 35.5018 31.8129 35.8649 30.9854 36.1014C30.1578 36.3378 29.3049 36.456 28.4267 36.456C27.1431 36.456 25.9018 36.2323 24.7027 35.7847C23.5036 35.3371 22.5072 34.6996 21.7134 33.872L24.5507 30.984C24.9898 31.5245 25.5683 31.9763 26.286 32.3394C27.0038 32.7025 27.7174 32.884 28.4267 32.884C28.7476 32.884 29.06 32.8503 29.364 32.7827C29.668 32.7151 29.934 32.6054 30.162 32.4534C30.39 32.3014 30.5716 32.0987 30.7067 31.8454C30.8418 31.592 30.9094 31.288 30.9094 30.9334C30.9094 30.5956 30.8249 30.3085 30.656 30.072C30.4872 29.8356 30.2465 29.6203 29.934 29.426C29.6216 29.2318 29.2332 29.0545 28.7687 28.894C28.3043 28.7336 27.7765 28.5605 27.1854 28.3747C26.6112 28.1889 26.0496 27.9694 25.5007 27.716C24.9518 27.4627 24.462 27.1376 24.0314 26.7407C23.6007 26.3438 23.2545 25.8625 22.9927 25.2967C22.7309 24.7309 22.6 24.0427 22.6 23.232C22.6 22.2356 22.8027 21.3827 23.208 20.6734C23.6134 19.964 24.1454 19.3814 24.804 18.9254C25.4627 18.4694 26.2058 18.1358 27.0334 17.9247C27.8609 17.7136 28.6969 17.608 29.5414 17.608C30.5547 17.608 31.5892 17.7938 32.6447 18.1654C33.7003 18.5369 34.6249 19.0858 35.4187 19.812L32.6574 22.7254Z" fill="#13273B"/>
</svg>
