<svg width="56" height="56" viewBox="0 0 56 56" fill="none" xmlns="http://www.w3.org/2000/svg">
<rect width="56" height="56" rx="28" fill="#FEB916" fill-opacity="0.75"/>
<path opacity="0.3" fill-rule="evenodd" clip-rule="evenodd" d="M30.4982 14.6667H19.8094C17.3605 14.6667 17.3333 14.8349 17.3333 17.2222V38.7778C17.3333 41.1652 17.3605 41.3334 19.8094 41.3334H36.1904C38.6393 41.3334 38.6666 41.1652 38.6666 38.7778V21.807C38.6666 21.3657 38.4722 20.9467 38.1353 20.6617L31.4669 15.0214C31.1961 14.7924 30.8529 14.6667 30.4982 14.6667ZM25.6055 32.6167C25.861 32.8722 26.1805 33 26.4999 33C26.8194 33 27.1388 32.8722 27.3944 32.6167L32.5055 27.5056C33.0166 26.9945 33.0166 26.2278 32.5055 25.7167C31.9944 25.2056 31.2277 25.2056 30.7166 25.7167L26.4999 29.9334L24.8388 28.2722C24.3916 27.7611 23.561 27.7611 23.0499 28.2722C22.5388 28.7834 22.5388 29.55 23.0499 30.0611L25.6055 32.6167Z" fill="#13273B"/>
<path fill-rule="evenodd" clip-rule="evenodd" d="M26.5001 33C26.1806 33 25.8612 32.8722 25.6056 32.6166L23.0501 30.0611C22.539 29.55 22.539 28.7833 23.0501 28.2722C23.5612 27.7611 24.3917 27.7611 24.839 28.2722L26.5001 29.9333L30.7167 25.7166C31.2279 25.2055 31.9945 25.2055 32.5056 25.7166C33.0167 26.2278 33.0167 26.9944 32.5056 27.5055L27.3945 32.6166C27.139 32.8722 26.8195 33 26.5001 33Z" fill="#13273B"/>
</svg>
