<svg width="56" height="56" viewBox="0 0 56 56" fill="none" xmlns="http://www.w3.org/2000/svg">
<rect width="56" height="56" rx="28" fill="#FEB916" fill-opacity="0.75"/>
<path opacity="0.3" fill-rule="evenodd" clip-rule="evenodd" d="M14.6667 38.5C14.6667 39.3284 15.3383 40 16.1667 40H39.8334C40.6618 40 41.3334 39.3284 41.3334 38.5V22.8333C41.3334 22.0049 40.6618 21.3333 39.8334 21.3333H25.3334L21.7728 17.7727C21.4914 17.4913 21.1099 17.3333 20.7121 17.3333H16.1667C15.3383 17.3333 14.6667 18.0049 14.6667 18.8333V38.5Z" fill="#13273B"/>
<path fill-rule="evenodd" clip-rule="evenodd" d="M26.5001 34.3334C26.1806 34.3334 25.8612 34.2056 25.6056 33.95L23.0501 31.3945C22.539 30.8834 22.539 30.1167 23.0501 29.6056C23.5612 29.0945 24.3917 29.0945 24.839 29.6056L26.5001 31.2667L30.7167 27.05C31.2279 26.5389 31.9945 26.5389 32.5056 27.05C33.0167 27.5611 33.0167 28.3278 32.5056 28.8389L27.3945 33.95C27.139 34.2056 26.8195 34.3334 26.5001 34.3334Z" fill="#13273B"/>
</svg>
