<svg width="56" height="56" viewBox="0 0 56 56" fill="none" xmlns="http://www.w3.org/2000/svg">
<rect width="56" height="56" rx="28" fill="#FEB916" fill-opacity="0.75"/>
<path d="M36.4251 19.5841C35.5833 18.7423 34.2187 18.7418 33.3763 19.5829L19.5558 33.3822C18.7737 34.1631 18.7732 35.4303 19.5547 36.2117L19.7974 36.4545C20.5789 37.236 21.8461 37.2355 22.627 36.4534L36.4263 22.6329C37.2674 21.7905 37.2669 20.4258 36.4251 19.5841Z" fill="#13273B"/>
<path opacity="0.3" fill-rule="evenodd" clip-rule="evenodd" d="M21.24 25.1428C23.3959 25.1428 25.1428 23.3964 25.1428 21.2381C25.1428 19.0798 23.3959 17.3333 21.24 17.3333C19.0841 17.3333 17.3333 19.0798 17.3333 21.2381C17.3333 23.3964 19.0841 25.1428 21.24 25.1428ZM34.7638 38.6666C36.9197 38.6666 38.6666 36.9202 38.6666 34.7619C38.6666 32.5996 36.9197 30.8571 34.7638 30.8571C32.608 30.8571 30.8571 32.5996 30.8571 34.7619C30.8571 36.9202 32.608 38.6666 34.7638 38.6666Z" fill="#13273B"/>
</svg>
