<svg width="56" height="56" viewBox="0 0 56 56" fill="none" xmlns="http://www.w3.org/2000/svg">
<rect width="56" height="56" rx="28" fill="#FEB916" fill-opacity="0.75"/>
<path opacity="0.3" fill-rule="evenodd" clip-rule="evenodd" d="M16.8468 16.9079C16.3133 16.765 15.765 17.0816 15.622 17.615L11.9986 31.138C11.8556 31.6715 12.1722 32.2198 12.7057 32.3627L37.8198 39.092C38.3532 39.235 38.9016 38.9184 39.0445 38.3849L42.668 24.862C42.8109 24.3285 42.4943 23.7802 41.9609 23.6372L16.8468 16.9079ZM32.4849 29.3803C31.7225 32.2255 28.798 33.9139 25.9529 33.1516C23.1077 32.3892 21.4193 29.4647 22.1817 26.6196C22.944 23.7744 25.8685 22.086 28.7136 22.8484C31.5588 23.6107 33.2472 26.5352 32.4849 29.3803Z" fill="#13273B"/>
<path fill-rule="evenodd" clip-rule="evenodd" d="M14.3333 20C13.781 20 13.3333 20.4477 13.3333 21V35C13.3333 35.5523 13.781 36 14.3333 36H40.3333C40.8855 36 41.3333 35.5523 41.3333 35V21C41.3333 20.4477 40.8855 20 40.3333 20H14.3333ZM32.6666 28C32.6666 30.9455 30.2788 33.3333 27.3333 33.3333C24.3877 33.3333 21.9999 30.9455 21.9999 28C21.9999 25.0545 24.3877 22.6667 27.3333 22.6667C30.2788 22.6667 32.6666 25.0545 32.6666 28ZM27.3333 30.6667C28.806 30.6667 29.9999 29.4728 29.9999 28C29.9999 26.5272 28.806 25.3333 27.3333 25.3333C25.8605 25.3333 24.6666 26.5272 24.6666 28C24.6666 29.4728 25.8605 30.6667 27.3333 30.6667Z" fill="#13273B"/>
</svg>
