<svg width="56" height="56" viewBox="0 0 56 56" fill="none" xmlns="http://www.w3.org/2000/svg">
<rect width="56" height="56" rx="28" fill="#FEB916" fill-opacity="0.75"/>
<path opacity="0.3" fill-rule="evenodd" clip-rule="evenodd" d="M27.6667 33.3333C27.1145 33.3333 26.6667 33.781 26.6667 34.3333V38.6666H23.1667C22.8906 38.6666 22.6667 38.8905 22.6667 39.1666V39.5C22.6667 39.7761 22.8906 40 23.1667 40H27.6667H28.3334H32.8334C33.1096 40 33.3334 39.7761 33.3334 39.5V39.1666C33.3334 38.8905 33.1096 38.6666 32.8334 38.6666H29.3334V34.3333C29.3334 33.781 28.8857 33.3333 28.3334 33.3333H27.6667Z" fill="#13273B"/>
<path fill-rule="evenodd" clip-rule="evenodd" d="M14.6667 19.6667C14.6667 19.1144 15.1145 18.6667 15.6667 18.6667H40.3334C40.8857 18.6667 41.3334 19.1144 41.3334 19.6667V33.6667C41.3334 34.219 40.8857 34.6667 40.3334 34.6667H15.6667C15.1145 34.6667 14.6667 34.219 14.6667 33.6667V19.6667ZM17.3334 23.3334C17.3334 22.9652 17.6319 22.6667 18.0001 22.6667H30.0001C30.3683 22.6667 30.6667 22.9652 30.6667 23.3334C30.6667 23.7015 30.3683 24 30.0001 24H18.0001C17.6319 24 17.3334 23.7015 17.3334 23.3334ZM18.0001 25.3334C17.6319 25.3334 17.3334 25.6318 17.3334 26C17.3334 26.3682 17.6319 26.6667 18.0001 26.6667H22.0001C22.3683 26.6667 22.6667 26.3682 22.6667 26C22.6667 25.6318 22.3683 25.3334 22.0001 25.3334H18.0001Z" fill="#13273B"/>
</svg>
